<svg xmlns="http://www.w3.org/2000/svg" xmlns:xlink="http://www.w3.org/1999/xlink" width="150" zoomAndPan="magnify" viewBox="0 0 112.5 56.249996" height="75" preserveAspectRatio="xMidYMid meet" version="1.0"><defs><g/><clipPath id="a5364c69f3"><path d="M 7 15 L 13 15 L 13 18 L 7 18 Z M 7 15 " clip-rule="nonzero"/></clipPath><clipPath id="e91ae87b4e"><path d="M 4.425781 6.546875 L 19.085938 4.066406 L 21.195312 16.527344 L 6.535156 19.007812 Z M 4.425781 6.546875 " clip-rule="nonzero"/></clipPath><clipPath id="877d2a09e5"><path d="M 4.425781 6.546875 L 19.085938 4.066406 L 21.195312 16.527344 L 6.535156 19.007812 Z M 4.425781 6.546875 " clip-rule="nonzero"/></clipPath><clipPath id="4bd42cc416"><path d="M 10 13 L 14 13 L 14 16 L 10 16 Z M 10 13 " clip-rule="nonzero"/></clipPath><clipPath id="346ede618a"><path d="M 4.425781 6.546875 L 19.085938 4.066406 L 21.195312 16.527344 L 6.535156 19.007812 Z M 4.425781 6.546875 " clip-rule="nonzero"/></clipPath><clipPath id="8b4072c79c"><path d="M 4.425781 6.546875 L 19.085938 4.066406 L 21.195312 16.527344 L 6.535156 19.007812 Z M 4.425781 6.546875 " clip-rule="nonzero"/></clipPath><clipPath id="7077507ced"><path d="M 11 8 L 16 8 L 16 15 L 11 15 Z M 11 8 " clip-rule="nonzero"/></clipPath><clipPath id="d0ba267c2c"><path d="M 4.425781 6.546875 L 19.085938 4.066406 L 21.195312 16.527344 L 6.535156 19.007812 Z M 4.425781 6.546875 " clip-rule="nonzero"/></clipPath><clipPath id="2f40acef5c"><path d="M 4.425781 6.546875 L 19.085938 4.066406 L 21.195312 16.527344 L 6.535156 19.007812 Z M 4.425781 6.546875 " clip-rule="nonzero"/></clipPath><clipPath id="c30b689e5e"><path d="M 15 9 L 18 9 L 18 13 L 15 13 Z M 15 9 " clip-rule="nonzero"/></clipPath><clipPath id="224b479d7e"><path d="M 4.425781 6.546875 L 19.085938 4.066406 L 21.195312 16.527344 L 6.535156 19.007812 Z M 4.425781 6.546875 " clip-rule="nonzero"/></clipPath><clipPath id="fd66a1d0ba"><path d="M 4.425781 6.546875 L 19.085938 4.066406 L 21.195312 16.527344 L 6.535156 19.007812 Z M 4.425781 6.546875 " clip-rule="nonzero"/></clipPath><clipPath id="cae39f40d6"><path d="M 18 6 L 20 6 L 20 12 L 18 12 Z M 18 6 " clip-rule="nonzero"/></clipPath><clipPath id="9c9bbc8432"><path d="M 4.425781 6.546875 L 19.085938 4.066406 L 21.195312 16.527344 L 6.535156 19.007812 Z M 4.425781 6.546875 " clip-rule="nonzero"/></clipPath><clipPath id="64387861fa"><path d="M 4.425781 6.546875 L 19.085938 4.066406 L 21.195312 16.527344 L 6.535156 19.007812 Z M 4.425781 6.546875 " clip-rule="nonzero"/></clipPath><clipPath id="0c018924f1"><path d="M 18 4 L 20 4 L 20 5 L 18 5 Z M 18 4 " clip-rule="nonzero"/></clipPath><clipPath id="bfea01f128"><path d="M 4.425781 6.546875 L 19.085938 4.066406 L 21.195312 16.527344 L 6.535156 19.007812 Z M 4.425781 6.546875 " clip-rule="nonzero"/></clipPath><clipPath id="39bd6370d3"><path d="M 4.425781 6.546875 L 19.085938 4.066406 L 21.195312 16.527344 L 6.535156 19.007812 Z M 4.425781 6.546875 " clip-rule="nonzero"/></clipPath><clipPath id="e89b6a76e8"><path d="M 9 11 L 11 11 L 11 12 L 9 12 Z M 9 11 " clip-rule="nonzero"/></clipPath><clipPath id="c5da657a9b"><path d="M 4.425781 6.546875 L 19.085938 4.066406 L 21.195312 16.527344 L 6.535156 19.007812 Z M 4.425781 6.546875 " clip-rule="nonzero"/></clipPath><clipPath id="ddc648f0ff"><path d="M 4.425781 6.546875 L 19.085938 4.066406 L 21.195312 16.527344 L 6.535156 19.007812 Z M 4.425781 6.546875 " clip-rule="nonzero"/></clipPath><clipPath id="ea851ac84a"><path d="M 14 6 L 16 6 L 16 8 L 14 8 Z M 14 6 " clip-rule="nonzero"/></clipPath><clipPath id="a0b98a9197"><path d="M 4.425781 6.546875 L 19.085938 4.066406 L 21.195312 16.527344 L 6.535156 19.007812 Z M 4.425781 6.546875 " clip-rule="nonzero"/></clipPath><clipPath id="ed6133d2d5"><path d="M 4.425781 6.546875 L 19.085938 4.066406 L 21.195312 16.527344 L 6.535156 19.007812 Z M 4.425781 6.546875 " clip-rule="nonzero"/></clipPath><clipPath id="da3ae08ac7"><path d="M 5 14 L 7 14 L 7 16 L 5 16 Z M 5 14 " clip-rule="nonzero"/></clipPath><clipPath id="bbfc145249"><path d="M 4.425781 6.546875 L 19.085938 4.066406 L 21.195312 16.527344 L 6.535156 19.007812 Z M 4.425781 6.546875 " clip-rule="nonzero"/></clipPath><clipPath id="70e7ad6985"><path d="M 4.425781 6.546875 L 19.085938 4.066406 L 21.195312 16.527344 L 6.535156 19.007812 Z M 4.425781 6.546875 " clip-rule="nonzero"/></clipPath><clipPath id="fbc1b8859b"><path d="M 71 33 L 78 33 L 78 37 L 71 37 Z M 71 33 " clip-rule="nonzero"/></clipPath><clipPath id="632bdfbc41"><path d="M 80.648438 46.199219 L 63.675781 48.292969 L 61.945312 34.273438 L 78.917969 32.179688 Z M 80.648438 46.199219 " clip-rule="nonzero"/></clipPath><clipPath id="18f582a3a5"><path d="M 80.648438 46.199219 L 63.675781 48.292969 L 61.945312 34.273438 L 78.917969 32.179688 Z M 80.648438 46.199219 " clip-rule="nonzero"/></clipPath><clipPath id="758cf3c899"><path d="M 70 35 L 74 35 L 74 39 L 70 39 Z M 70 35 " clip-rule="nonzero"/></clipPath><clipPath id="77d0432b83"><path d="M 80.648438 46.199219 L 63.675781 48.292969 L 61.945312 34.273438 L 78.917969 32.179688 Z M 80.648438 46.199219 " clip-rule="nonzero"/></clipPath><clipPath id="0570f624f7"><path d="M 80.648438 46.199219 L 63.675781 48.292969 L 61.945312 34.273438 L 78.917969 32.179688 Z M 80.648438 46.199219 " clip-rule="nonzero"/></clipPath><clipPath id="24ee40686e"><path d="M 68 37 L 73 37 L 73 44 L 68 44 Z M 68 37 " clip-rule="nonzero"/></clipPath><clipPath id="607870fa21"><path d="M 80.648438 46.199219 L 63.675781 48.292969 L 61.945312 34.273438 L 78.917969 32.179688 Z M 80.648438 46.199219 " clip-rule="nonzero"/></clipPath><clipPath id="9a5226efd0"><path d="M 80.648438 46.199219 L 63.675781 48.292969 L 61.945312 34.273438 L 78.917969 32.179688 Z M 80.648438 46.199219 " clip-rule="nonzero"/></clipPath><clipPath id="f795bf997b"><path d="M 66 38 L 69 38 L 69 43 L 66 43 Z M 66 38 " clip-rule="nonzero"/></clipPath><clipPath id="61c920f779"><path d="M 80.648438 46.199219 L 63.675781 48.292969 L 61.945312 34.273438 L 78.917969 32.179688 Z M 80.648438 46.199219 " clip-rule="nonzero"/></clipPath><clipPath id="79a42a88d9"><path d="M 80.648438 46.199219 L 63.675781 48.292969 L 61.945312 34.273438 L 78.917969 32.179688 Z M 80.648438 46.199219 " clip-rule="nonzero"/></clipPath><clipPath id="e42ecaf3c1"><path d="M 63 39 L 65 39 L 65 46 L 63 46 Z M 63 39 " clip-rule="nonzero"/></clipPath><clipPath id="c2641ee763"><path d="M 80.648438 46.199219 L 63.675781 48.292969 L 61.945312 34.273438 L 78.917969 32.179688 Z M 80.648438 46.199219 " clip-rule="nonzero"/></clipPath><clipPath id="54ee9c7729"><path d="M 80.648438 46.199219 L 63.675781 48.292969 L 61.945312 34.273438 L 78.917969 32.179688 Z M 80.648438 46.199219 " clip-rule="nonzero"/></clipPath><clipPath id="5df34c5dc1"><path d="M 63 47 L 65 47 L 65 49 L 63 49 Z M 63 47 " clip-rule="nonzero"/></clipPath><clipPath id="02dc67668c"><path d="M 80.648438 46.199219 L 63.675781 48.292969 L 61.945312 34.273438 L 78.917969 32.179688 Z M 80.648438 46.199219 " clip-rule="nonzero"/></clipPath><clipPath id="b3bdd42d43"><path d="M 80.648438 46.199219 L 63.675781 48.292969 L 61.945312 34.273438 L 78.917969 32.179688 Z M 80.648438 46.199219 " clip-rule="nonzero"/></clipPath><clipPath id="934e6c2a61"><path d="M 74 40 L 76 40 L 76 41 L 74 41 Z M 74 40 " clip-rule="nonzero"/></clipPath><clipPath id="9118ff7b51"><path d="M 80.648438 46.199219 L 63.675781 48.292969 L 61.945312 34.273438 L 78.917969 32.179688 Z M 80.648438 46.199219 " clip-rule="nonzero"/></clipPath><clipPath id="0646251b6b"><path d="M 80.648438 46.199219 L 63.675781 48.292969 L 61.945312 34.273438 L 78.917969 32.179688 Z M 80.648438 46.199219 " clip-rule="nonzero"/></clipPath><clipPath id="67ee34348d"><path d="M 68 44 L 69 44 L 69 46 L 68 46 Z M 68 44 " clip-rule="nonzero"/></clipPath><clipPath id="b96f7f9091"><path d="M 80.648438 46.199219 L 63.675781 48.292969 L 61.945312 34.273438 L 78.917969 32.179688 Z M 80.648438 46.199219 " clip-rule="nonzero"/></clipPath><clipPath id="64215341bf"><path d="M 80.648438 46.199219 L 63.675781 48.292969 L 61.945312 34.273438 L 78.917969 32.179688 Z M 80.648438 46.199219 " clip-rule="nonzero"/></clipPath><clipPath id="12fb789a3a"><path d="M 78 36 L 80 36 L 80 38 L 78 38 Z M 78 36 " clip-rule="nonzero"/></clipPath><clipPath id="57025a99dc"><path d="M 80.648438 46.199219 L 63.675781 48.292969 L 61.945312 34.273438 L 78.917969 32.179688 Z M 80.648438 46.199219 " clip-rule="nonzero"/></clipPath><clipPath id="cd4c06dbcd"><path d="M 80.648438 46.199219 L 63.675781 48.292969 L 61.945312 34.273438 L 78.917969 32.179688 Z M 80.648438 46.199219 " clip-rule="nonzero"/></clipPath><clipPath id="e4cd497e5b"><path d="M 9.519531 33.277344 L 19.929688 33.277344 L 19.929688 43.683594 L 9.519531 43.683594 Z M 9.519531 33.277344 " clip-rule="nonzero"/></clipPath><clipPath id="1a894ccd4f"><path d="M 59.144531 16.207031 L 65.089844 16.207031 L 65.089844 22.15625 L 59.144531 22.15625 Z M 59.144531 16.207031 " clip-rule="nonzero"/></clipPath><clipPath id="b9dc0aa249"><path d="M 56.71875 10.683594 L 61.921875 10.683594 L 61.921875 15.886719 L 56.71875 15.886719 Z M 56.71875 10.683594 " clip-rule="nonzero"/></clipPath></defs><g clip-path="url(#a5364c69f3)"><g clip-path="url(#e91ae87b4e)"><g clip-path="url(#877d2a09e5)"><path fill="#dea600" d="M 12.714844 17.226562 C 11.148438 16.535156 9.578125 15.84375 8.011719 15.152344 C 7.660156 15 7.453125 15.554688 7.800781 15.707031 C 9.371094 16.398438 10.9375 17.089844 12.507812 17.78125 C 12.855469 17.933594 13.0625 17.378906 12.714844 17.226562 Z M 12.714844 17.226562 " fill-opacity="1" fill-rule="nonzero"/></g></g></g><g clip-path="url(#4bd42cc416)"><g clip-path="url(#346ede618a)"><g clip-path="url(#8b4072c79c)"><path fill="#dea600" d="M 13.402344 15.167969 C 12.722656 14.570312 12.039062 13.96875 11.355469 13.367188 C 11.238281 13.261719 11.03125 13.316406 10.945312 13.4375 C 10.84375 13.582031 10.894531 13.746094 11.011719 13.851562 C 11.695312 14.453125 12.378906 15.050781 13.058594 15.652344 C 13.179688 15.757812 13.386719 15.703125 13.472656 15.582031 C 13.574219 15.441406 13.523438 15.273438 13.402344 15.167969 Z M 13.402344 15.167969 " fill-opacity="1" fill-rule="nonzero"/></g></g></g><g clip-path="url(#7077507ced)"><g clip-path="url(#d0ba267c2c)"><g clip-path="url(#2f40acef5c)"><path fill="#dea600" d="M 15.179688 13.5625 C 14.019531 12.144531 12.96875 10.644531 12.035156 9.066406 C 11.839844 8.742188 11.300781 8.988281 11.496094 9.316406 C 12.457031 10.9375 13.53125 12.484375 14.726562 13.945312 C 14.96875 14.238281 15.421875 13.859375 15.179688 13.5625 Z M 15.179688 13.5625 " fill-opacity="1" fill-rule="nonzero"/></g></g></g><g clip-path="url(#c30b689e5e)"><g clip-path="url(#224b479d7e)"><g clip-path="url(#fd66a1d0ba)"><path fill="#dea600" d="M 17.226562 12.320312 C 16.953125 11.277344 16.546875 10.273438 16.003906 9.34375 C 15.921875 9.203125 15.761719 9.128906 15.609375 9.199219 C 15.472656 9.261719 15.382812 9.453125 15.464844 9.59375 C 15.980469 10.476562 16.382812 11.425781 16.640625 12.417969 C 16.683594 12.574219 16.816406 12.691406 16.984375 12.660156 C 17.132812 12.636719 17.265625 12.476562 17.226562 12.320312 Z M 17.226562 12.320312 " fill-opacity="1" fill-rule="nonzero"/></g></g></g><g clip-path="url(#cae39f40d6)"><g clip-path="url(#9c9bbc8432)"><g clip-path="url(#64387861fa)"><path fill="#dea600" d="M 19.203125 11.574219 C 18.996094 9.914062 18.929688 8.238281 19.003906 6.566406 C 19.019531 6.1875 18.429688 6.125 18.410156 6.507812 C 18.335938 8.230469 18.40625 9.960938 18.621094 11.671875 C 18.667969 12.050781 19.25 11.953125 19.203125 11.574219 Z M 19.203125 11.574219 " fill-opacity="1" fill-rule="nonzero"/></g></g></g><g clip-path="url(#0c018924f1)"><g clip-path="url(#bfea01f128)"><g clip-path="url(#39bd6370d3)"><path fill="#dea600" d="M 18.808594 4.71875 C 19.1875 4.652344 19.085938 4.070312 18.710938 4.132812 C 18.335938 4.195312 18.433594 4.78125 18.808594 4.71875 Z M 18.808594 4.71875 " fill-opacity="1" fill-rule="nonzero"/></g></g></g><g clip-path="url(#e89b6a76e8)"><g clip-path="url(#c5da657a9b)"><g clip-path="url(#ddc648f0ff)"><path fill="#dea600" d="M 9.875 11.789062 C 10.25 11.726562 10.152344 11.140625 9.773438 11.203125 C 9.398438 11.269531 9.496094 11.851562 9.875 11.789062 Z M 9.875 11.789062 " fill-opacity="1" fill-rule="nonzero"/></g></g></g><g clip-path="url(#ea851ac84a)"><g clip-path="url(#a0b98a9197)"><g clip-path="url(#ed6133d2d5)"><path fill="#dea600" d="M 15.113281 7.527344 C 15.488281 7.464844 15.390625 6.878906 15.015625 6.941406 C 14.636719 7.007812 14.734375 7.589844 15.113281 7.527344 Z M 15.113281 7.527344 " fill-opacity="1" fill-rule="nonzero"/></g></g></g><g clip-path="url(#da3ae08ac7)"><g clip-path="url(#bbfc145249)"><g clip-path="url(#70e7ad6985)"><path fill="#dea600" d="M 6.273438 15.175781 C 6.652344 15.113281 6.550781 14.53125 6.175781 14.59375 C 5.800781 14.65625 5.898438 15.242188 6.273438 15.175781 Z M 6.273438 15.175781 " fill-opacity="1" fill-rule="nonzero"/></g></g></g><g clip-path="url(#fbc1b8859b)"><g clip-path="url(#632bdfbc41)"><g clip-path="url(#18f582a3a5)"><path fill="#dea600" d="M 71.71875 33.882812 C 73.484375 34.726562 75.246094 35.570312 77.007812 36.414062 C 77.402344 36.601562 77.671875 35.992188 77.277344 35.804688 C 75.515625 34.960938 73.753906 34.117188 71.992188 33.269531 C 71.597656 33.082031 71.328125 33.695312 71.71875 33.882812 Z M 71.71875 33.882812 " fill-opacity="1" fill-rule="nonzero"/></g></g></g><g clip-path="url(#758cf3c899)"><g clip-path="url(#77d0432b83)"><g clip-path="url(#0570f624f7)"><path fill="#dea600" d="M 70.816406 36.148438 C 71.566406 36.851562 72.316406 37.550781 73.066406 38.253906 C 73.199219 38.378906 73.441406 38.328125 73.546875 38.195312 C 73.667969 38.042969 73.621094 37.855469 73.488281 37.730469 C 72.738281 37.027344 71.988281 36.324219 71.238281 35.625 C 71.105469 35.5 70.863281 35.550781 70.757812 35.683594 C 70.636719 35.835938 70.683594 36.023438 70.816406 36.148438 Z M 70.816406 36.148438 " fill-opacity="1" fill-rule="nonzero"/></g></g></g><g clip-path="url(#24ee40686e)"><g clip-path="url(#607870fa21)"><g clip-path="url(#9a5226efd0)"><path fill="#dea600" d="M 68.6875 37.859375 C 69.941406 39.5 71.066406 41.226562 72.050781 43.03125 C 72.253906 43.40625 72.886719 43.15625 72.683594 42.777344 C 71.671875 40.921875 70.519531 39.140625 69.230469 37.457031 C 68.972656 37.113281 68.425781 37.515625 68.6875 37.859375 Z M 68.6875 37.859375 " fill-opacity="1" fill-rule="nonzero"/></g></g></g><g clip-path="url(#f795bf997b)"><g clip-path="url(#61c920f779)"><g clip-path="url(#79a42a88d9)"><path fill="#dea600" d="M 66.269531 39.15625 C 66.527344 40.335938 66.9375 41.472656 67.511719 42.539062 C 67.597656 42.699219 67.773438 42.792969 67.957031 42.71875 C 68.113281 42.652344 68.226562 42.441406 68.140625 42.285156 C 67.597656 41.273438 67.191406 40.191406 66.949219 39.070312 C 66.910156 38.898438 66.761719 38.761719 66.570312 38.785156 C 66.398438 38.804688 66.234375 38.980469 66.269531 39.15625 Z M 66.269531 39.15625 " fill-opacity="1" fill-rule="nonzero"/></g></g></g><g clip-path="url(#e42ecaf3c1)"><g clip-path="url(#c2641ee763)"><g clip-path="url(#54ee9c7729)"><path fill="#dea600" d="M 63.957031 39.898438 C 64.105469 41.765625 64.089844 43.636719 63.914062 45.503906 C 63.875 45.929688 64.546875 46.023438 64.589844 45.597656 C 64.769531 43.675781 64.785156 41.738281 64.636719 39.8125 C 64.601562 39.386719 63.925781 39.472656 63.957031 39.898438 Z M 63.957031 39.898438 " fill-opacity="1" fill-rule="nonzero"/></g></g></g><g clip-path="url(#5df34c5dc1)"><g clip-path="url(#02dc67668c)"><g clip-path="url(#b3bdd42d43)"><path fill="#dea600" d="M 64.03125 47.578125 C 63.597656 47.632812 63.675781 48.292969 64.113281 48.238281 C 64.550781 48.183594 64.46875 47.527344 64.03125 47.578125 Z M 64.03125 47.578125 " fill-opacity="1" fill-rule="nonzero"/></g></g></g><g clip-path="url(#934e6c2a61)"><g clip-path="url(#9118ff7b51)"><g clip-path="url(#0646251b6b)"><path fill="#dea600" d="M 74.683594 40.089844 C 74.246094 40.144531 74.328125 40.800781 74.765625 40.746094 C 75.199219 40.691406 75.117188 40.035156 74.683594 40.089844 Z M 74.683594 40.089844 " fill-opacity="1" fill-rule="nonzero"/></g></g></g><g clip-path="url(#67ee34348d)"><g clip-path="url(#b96f7f9091)"><g clip-path="url(#64215341bf)"><path fill="#dea600" d="M 68.433594 44.609375 C 67.996094 44.664062 68.078125 45.320312 68.511719 45.269531 C 68.949219 45.214844 68.867188 44.558594 68.433594 44.609375 Z M 68.433594 44.609375 " fill-opacity="1" fill-rule="nonzero"/></g></g></g><g clip-path="url(#12fb789a3a)"><g clip-path="url(#57025a99dc)"><g clip-path="url(#cd4c06dbcd)"><path fill="#dea600" d="M 79.003906 36.46875 C 78.566406 36.523438 78.648438 37.179688 79.082031 37.125 C 79.519531 37.070312 79.4375 36.414062 79.003906 36.46875 Z M 79.003906 36.46875 " fill-opacity="1" fill-rule="nonzero"/></g></g></g><g fill="#ffded0" fill-opacity="1"><g transform="translate(14.427946, 23.833836)"><g><path d="M 7.652344 -0.0703125 C 9.378906 0.546875 9.226562 -2.976562 9.1875 -3.742188 C 9.144531 -4.757812 9.007812 -5.773438 8.832031 -6.789062 C 8.722656 -7.40625 8.679688 -8.214844 8.171875 -8.652344 C 6.816406 -9.84375 5.402344 -7.636719 4.800781 -6.691406 C 4.140625 -7.636719 2.523438 -9.722656 1.316406 -8.253906 C 0.890625 -7.71875 0.863281 -6.925781 0.769531 -6.28125 C 0.601562 -5.195312 0.4375 -4.101562 0.328125 -3.003906 C 0.234375 -2.222656 0.0429688 -1.21875 0.519531 -0.519531 C 0.945312 0.0820312 1.605469 0.0820312 2.042969 -0.507812 C 3.015625 -1.824219 2.371094 -3.742188 2.988281 -5.140625 C 3.375 -4.511719 3.867188 -3.167969 4.730469 -3.113281 C 5.554688 -3.058594 6.335938 -4.128906 6.855469 -4.648438 C 6.992188 -3.621094 6.9375 -2.605469 7.007812 -1.578125 C 7.035156 -1.070312 7.074219 -0.289062 7.652344 -0.0703125 Z M 7.652344 -0.0703125 "/></g></g></g><g fill="#ffded0" fill-opacity="1"><g transform="translate(23.43197, 23.833836)"><g><path d="M 3.894531 -0.382812 C 4.636719 -1.097656 4.550781 -2.207031 4.441406 -3.605469 C 4.332031 -4.484375 4.359375 -4.703125 4.855469 -5.417969 C 5.167969 -5.882812 5.484375 -6.363281 5.730469 -6.882812 C 5.992188 -7.445312 6.484375 -8.613281 5.691406 -8.980469 C 4.457031 -9.570312 3.730469 -7.390625 3.261719 -6.625 C 2.867188 -7.488281 2.730469 -8.761719 1.78125 -9.226562 C 0.671875 -9.777344 0 -8.832031 0.261719 -7.816406 C 0.535156 -6.691406 1.550781 -5.800781 1.6875 -4.703125 C 1.808594 -3.59375 1.289062 -1.589844 1.933594 -0.601562 C 2.453125 0.179688 3.550781 0.246094 3.894531 -0.382812 Z M 3.894531 -0.382812 "/></g></g></g><g fill="#ffded0" fill-opacity="1"><g transform="translate(29.146772, 23.833836)"><g/></g></g><g fill="#ffded0" fill-opacity="1"><g transform="translate(32.161671, 23.833836)"><g><path d="M 7.652344 -0.0703125 C 9.378906 0.546875 9.226562 -2.976562 9.1875 -3.742188 C 9.144531 -4.757812 9.007812 -5.773438 8.832031 -6.789062 C 8.722656 -7.40625 8.679688 -8.214844 8.171875 -8.652344 C 6.816406 -9.84375 5.402344 -7.636719 4.800781 -6.691406 C 4.140625 -7.636719 2.523438 -9.722656 1.316406 -8.253906 C 0.890625 -7.71875 0.863281 -6.925781 0.769531 -6.28125 C 0.601562 -5.195312 0.4375 -4.101562 0.328125 -3.003906 C 0.234375 -2.222656 0.0429688 -1.21875 0.519531 -0.519531 C 0.945312 0.0820312 1.605469 0.0820312 2.042969 -0.507812 C 3.015625 -1.824219 2.371094 -3.742188 2.988281 -5.140625 C 3.375 -4.511719 3.867188 -3.167969 4.730469 -3.113281 C 5.554688 -3.058594 6.335938 -4.128906 6.855469 -4.648438 C 6.992188 -3.621094 6.9375 -2.605469 7.007812 -1.578125 C 7.035156 -1.070312 7.074219 -0.289062 7.652344 -0.0703125 Z M 7.652344 -0.0703125 "/></g></g></g><g fill="#ffded0" fill-opacity="1"><g transform="translate(41.165695, 23.833836)"><g><path d="M 2.277344 -0.0273438 C 3.125 -0.0703125 3.976562 -0.0546875 4.8125 -0.0976562 C 5.511719 -0.136719 6.035156 -0.234375 6.308594 -0.917969 C 6.472656 -1.371094 6.566406 -2.195312 6.117188 -2.535156 C 5.609375 -2.90625 4.8125 -2.742188 4.238281 -2.769531 C 3.714844 -2.796875 2.371094 -3.222656 3.152344 -3.949219 C 3.621094 -4.386719 4.347656 -3.867188 4.894531 -4.019531 C 5.5 -4.195312 5.636719 -4.882812 5.566406 -5.445312 C 5.527344 -5.921875 5.363281 -6.199219 4.894531 -6.375 C 4.441406 -6.539062 3.496094 -6.238281 3.140625 -6.5 C 2.660156 -6.84375 3.097656 -7.488281 3.441406 -7.554688 C 3.960938 -7.679688 4.523438 -7.324219 5.074219 -7.542969 C 5.554688 -7.734375 5.800781 -8.1875 5.730469 -8.707031 C 5.636719 -9.433594 5.03125 -9.558594 4.402344 -9.652344 C 3.46875 -9.789062 1 -10.257812 0.589844 -9.105469 C 0.410156 -8.613281 0.507812 -7.925781 0.480469 -7.417969 C 0.453125 -6.5 0.410156 -5.582031 0.371094 -4.664062 C 0.328125 -3.878906 0.300781 -3.097656 0.261719 -2.316406 C 0.234375 -1.699219 0.0546875 -0.808594 0.546875 -0.328125 C 1 0.109375 1.726562 -0.015625 2.277344 -0.0273438 Z M 2.277344 -0.0273438 "/></g></g></g><g fill="#ffded0" fill-opacity="1"><g transform="translate(47.401294, 23.833836)"><g><path d="M 1.054688 -0.0820312 C 1.550781 0.0703125 2.167969 0.0273438 2.496094 -0.382812 C 2.851562 -0.824219 2.742188 -1.90625 3.140625 -2.234375 C 3.359375 -2.398438 5.277344 -2.25 5.347656 -2.195312 C 5.71875 -1.878906 5.785156 -1 6.0625 -0.601562 C 6.445312 -0.0429688 6.953125 -0.015625 7.488281 -0.4375 C 8.023438 -0.878906 7.96875 -1.332031 7.746094 -1.933594 L 6.144531 -6.445312 C 5.757812 -7.542969 5.5 -9.226562 4.058594 -9.199219 C 2.785156 -9.160156 2.152344 -8.390625 1.78125 -7.265625 C 1.34375 -5.9375 0.933594 -4.59375 0.601562 -3.234375 C 0.355469 -2.222656 -0.355469 -0.492188 1.054688 -0.0820312 Z M 3.769531 -4.183594 C 3.894531 -4.59375 4.03125 -5.003906 4.15625 -5.417969 C 4.265625 -5.046875 4.386719 -4.691406 4.511719 -4.320312 C 4.265625 -4.277344 4.019531 -4.222656 3.769531 -4.183594 Z M 3.769531 -4.183594 "/></g></g></g><g fill="#ffded0" fill-opacity="1"><g transform="translate(55.103332, 23.833836)"><g><path d="M 5.308594 -0.21875 C 6.199219 -0.714844 6.226562 -2.097656 5.390625 -2.660156 C 4.785156 -3.058594 4.15625 -2.921875 3.484375 -3.042969 C 2.976562 -3.140625 3.070312 -2.90625 2.988281 -3.484375 C 2.949219 -3.785156 3.03125 -4.140625 3.042969 -4.441406 C 3.085938 -5.664062 3.289062 -7.171875 2.894531 -8.363281 C 2.578125 -9.339844 1.5625 -9.695312 0.851562 -8.859375 C 0.179688 -8.0625 0.234375 -6.679688 0.234375 -5.71875 C 0.21875 -4.578125 0.164062 -3.347656 0.273438 -2.207031 C 0.398438 -0.945312 1.207031 -0.425781 2.398438 -0.234375 C 3.222656 -0.0976562 4.539062 0.207031 5.308594 -0.21875 Z M 5.308594 -0.21875 "/></g></g></g><g fill="#6997ed" fill-opacity="1"><g transform="translate(14.01586, 23.421749)"><g><path d="M 7.652344 -0.0703125 C 9.378906 0.546875 9.226562 -2.976562 9.1875 -3.742188 C 9.144531 -4.757812 9.007812 -5.773438 8.832031 -6.789062 C 8.722656 -7.40625 8.679688 -8.214844 8.171875 -8.652344 C 6.816406 -9.84375 5.402344 -7.636719 4.800781 -6.691406 C 4.140625 -7.636719 2.523438 -9.722656 1.316406 -8.253906 C 0.890625 -7.71875 0.863281 -6.925781 0.769531 -6.28125 C 0.601562 -5.195312 0.4375 -4.101562 0.328125 -3.003906 C 0.234375 -2.222656 0.0429688 -1.21875 0.519531 -0.519531 C 0.945312 0.0820312 1.605469 0.0820312 2.042969 -0.507812 C 3.015625 -1.824219 2.371094 -3.742188 2.988281 -5.140625 C 3.375 -4.511719 3.867188 -3.167969 4.730469 -3.113281 C 5.554688 -3.058594 6.335938 -4.128906 6.855469 -4.648438 C 6.992188 -3.621094 6.9375 -2.605469 7.007812 -1.578125 C 7.035156 -1.070312 7.074219 -0.289062 7.652344 -0.0703125 Z M 7.652344 -0.0703125 "/></g></g></g><g fill="#6997ed" fill-opacity="1"><g transform="translate(23.019884, 23.421749)"><g><path d="M 3.894531 -0.382812 C 4.636719 -1.097656 4.550781 -2.207031 4.441406 -3.605469 C 4.332031 -4.484375 4.359375 -4.703125 4.855469 -5.417969 C 5.167969 -5.882812 5.484375 -6.363281 5.730469 -6.882812 C 5.992188 -7.445312 6.484375 -8.613281 5.691406 -8.980469 C 4.457031 -9.570312 3.730469 -7.390625 3.261719 -6.625 C 2.867188 -7.488281 2.730469 -8.761719 1.78125 -9.226562 C 0.671875 -9.777344 0 -8.832031 0.261719 -7.816406 C 0.535156 -6.691406 1.550781 -5.800781 1.6875 -4.703125 C 1.808594 -3.59375 1.289062 -1.589844 1.933594 -0.601562 C 2.453125 0.179688 3.550781 0.246094 3.894531 -0.382812 Z M 3.894531 -0.382812 "/></g></g></g><g fill="#6997ed" fill-opacity="1"><g transform="translate(28.734686, 23.421749)"><g/></g></g><g fill="#6997ed" fill-opacity="1"><g transform="translate(31.749586, 23.421749)"><g><path d="M 7.652344 -0.0703125 C 9.378906 0.546875 9.226562 -2.976562 9.1875 -3.742188 C 9.144531 -4.757812 9.007812 -5.773438 8.832031 -6.789062 C 8.722656 -7.40625 8.679688 -8.214844 8.171875 -8.652344 C 6.816406 -9.84375 5.402344 -7.636719 4.800781 -6.691406 C 4.140625 -7.636719 2.523438 -9.722656 1.316406 -8.253906 C 0.890625 -7.71875 0.863281 -6.925781 0.769531 -6.28125 C 0.601562 -5.195312 0.4375 -4.101562 0.328125 -3.003906 C 0.234375 -2.222656 0.0429688 -1.21875 0.519531 -0.519531 C 0.945312 0.0820312 1.605469 0.0820312 2.042969 -0.507812 C 3.015625 -1.824219 2.371094 -3.742188 2.988281 -5.140625 C 3.375 -4.511719 3.867188 -3.167969 4.730469 -3.113281 C 5.554688 -3.058594 6.335938 -4.128906 6.855469 -4.648438 C 6.992188 -3.621094 6.9375 -2.605469 7.007812 -1.578125 C 7.035156 -1.070312 7.074219 -0.289062 7.652344 -0.0703125 Z M 7.652344 -0.0703125 "/></g></g></g><g fill="#6997ed" fill-opacity="1"><g transform="translate(40.75361, 23.421749)"><g><path d="M 2.277344 -0.0273438 C 3.125 -0.0703125 3.976562 -0.0546875 4.8125 -0.0976562 C 5.511719 -0.136719 6.035156 -0.234375 6.308594 -0.917969 C 6.472656 -1.371094 6.566406 -2.195312 6.117188 -2.535156 C 5.609375 -2.90625 4.8125 -2.742188 4.238281 -2.769531 C 3.714844 -2.796875 2.371094 -3.222656 3.152344 -3.949219 C 3.621094 -4.386719 4.347656 -3.867188 4.894531 -4.019531 C 5.5 -4.195312 5.636719 -4.882812 5.566406 -5.445312 C 5.527344 -5.921875 5.363281 -6.199219 4.894531 -6.375 C 4.441406 -6.539062 3.496094 -6.238281 3.140625 -6.5 C 2.660156 -6.84375 3.097656 -7.488281 3.441406 -7.554688 C 3.960938 -7.679688 4.523438 -7.324219 5.074219 -7.542969 C 5.554688 -7.734375 5.800781 -8.1875 5.730469 -8.707031 C 5.636719 -9.433594 5.03125 -9.558594 4.402344 -9.652344 C 3.46875 -9.789062 1 -10.257812 0.589844 -9.105469 C 0.410156 -8.613281 0.507812 -7.925781 0.480469 -7.417969 C 0.453125 -6.5 0.410156 -5.582031 0.371094 -4.664062 C 0.328125 -3.878906 0.300781 -3.097656 0.261719 -2.316406 C 0.234375 -1.699219 0.0546875 -0.808594 0.546875 -0.328125 C 1 0.109375 1.726562 -0.015625 2.277344 -0.0273438 Z M 2.277344 -0.0273438 "/></g></g></g><g fill="#6997ed" fill-opacity="1"><g transform="translate(46.989208, 23.421749)"><g><path d="M 1.054688 -0.0820312 C 1.550781 0.0703125 2.167969 0.0273438 2.496094 -0.382812 C 2.851562 -0.824219 2.742188 -1.90625 3.140625 -2.234375 C 3.359375 -2.398438 5.277344 -2.25 5.347656 -2.195312 C 5.71875 -1.878906 5.785156 -1 6.0625 -0.601562 C 6.445312 -0.0429688 6.953125 -0.015625 7.488281 -0.4375 C 8.023438 -0.878906 7.96875 -1.332031 7.746094 -1.933594 L 6.144531 -6.445312 C 5.757812 -7.542969 5.5 -9.226562 4.058594 -9.199219 C 2.785156 -9.160156 2.152344 -8.390625 1.78125 -7.265625 C 1.34375 -5.9375 0.933594 -4.59375 0.601562 -3.234375 C 0.355469 -2.222656 -0.355469 -0.492188 1.054688 -0.0820312 Z M 3.769531 -4.183594 C 3.894531 -4.59375 4.03125 -5.003906 4.15625 -5.417969 C 4.265625 -5.046875 4.386719 -4.691406 4.511719 -4.320312 C 4.265625 -4.277344 4.019531 -4.222656 3.769531 -4.183594 Z M 3.769531 -4.183594 "/></g></g></g><g fill="#6997ed" fill-opacity="1"><g transform="translate(54.691246, 23.421749)"><g><path d="M 5.308594 -0.21875 C 6.199219 -0.714844 6.226562 -2.097656 5.390625 -2.660156 C 4.785156 -3.058594 4.15625 -2.921875 3.484375 -3.042969 C 2.976562 -3.140625 3.070312 -2.90625 2.988281 -3.484375 C 2.949219 -3.785156 3.03125 -4.140625 3.042969 -4.441406 C 3.085938 -5.664062 3.289062 -7.171875 2.894531 -8.363281 C 2.578125 -9.339844 1.5625 -9.695312 0.851562 -8.859375 C 0.179688 -8.0625 0.234375 -6.679688 0.234375 -5.71875 C 0.21875 -4.578125 0.164062 -3.347656 0.273438 -2.207031 C 0.398438 -0.945312 1.207031 -0.425781 2.398438 -0.234375 C 3.222656 -0.0976562 4.539062 0.207031 5.308594 -0.21875 Z M 5.308594 -0.21875 "/></g></g></g><g fill="#ffded0" fill-opacity="1"><g transform="translate(9.203422, 36.738256)"><g><path d="M 2.164062 -0.015625 C 3.511719 -0.191406 3.425781 -1.902344 3.425781 -2.925781 C 3.425781 -3.703125 3.339844 -4.949219 4.015625 -5.539062 C 4.5 -5.953125 5.417969 -6.109375 5.972656 -6.457031 C 7.128906 -7.164062 8.238281 -8.253906 8.066406 -9.726562 C 7.734375 -12.460938 4.535156 -12.980469 2.300781 -12.910156 C 0.3125 -12.84375 0.5 -11.007812 0.414062 -9.378906 C 0.3125 -7.304688 0.363281 -5.226562 0.257812 -3.132812 C 0.207031 -1.9375 0.414062 0.207031 2.164062 -0.015625 Z M 4.449219 -7.632812 C 3.496094 -7.339844 3.652344 -7.839844 3.6875 -8.585938 C 3.703125 -9.347656 3.359375 -11.09375 4.535156 -10.503906 C 5.089844 -10.210938 5.417969 -9.5 5.382812 -8.894531 C 5.363281 -8.273438 5.054688 -7.824219 4.449219 -7.632812 Z M 4.449219 -7.632812 "/></g></g></g><g fill="#ffded0" fill-opacity="1"><g transform="translate(16.766186, 36.738256)"><g><path d="M 6.699219 -0.277344 C 7.824219 -0.898438 7.855469 -2.648438 6.800781 -3.359375 C 6.039062 -3.859375 5.242188 -3.6875 4.394531 -3.84375 C 3.753906 -3.964844 3.875 -3.667969 3.773438 -4.394531 C 3.722656 -4.777344 3.824219 -5.226562 3.84375 -5.609375 C 3.894531 -7.148438 4.152344 -9.050781 3.652344 -10.558594 C 3.253906 -11.785156 1.972656 -12.234375 1.074219 -11.179688 C 0.226562 -10.175781 0.292969 -8.429688 0.292969 -7.21875 C 0.277344 -5.78125 0.207031 -4.222656 0.347656 -2.785156 C 0.5 -1.195312 1.523438 -0.535156 3.027344 -0.292969 C 4.066406 -0.121094 5.730469 0.257812 6.699219 -0.277344 Z M 6.699219 -0.277344 "/></g></g></g><g fill="#ffded0" fill-opacity="1"><g transform="translate(24.069349, 36.738256)"><g><path d="M 1.332031 -0.105469 C 1.957031 0.0859375 2.734375 0.0351562 3.148438 -0.484375 C 3.601562 -1.039062 3.460938 -2.40625 3.964844 -2.820312 C 4.238281 -3.027344 6.664062 -2.839844 6.75 -2.769531 C 7.21875 -2.371094 7.304688 -1.261719 7.648438 -0.761719 C 8.132812 -0.0507812 8.773438 -0.015625 9.449219 -0.554688 C 10.125 -1.109375 10.054688 -1.679688 9.777344 -2.441406 L 7.753906 -8.132812 C 7.269531 -9.519531 6.941406 -11.648438 5.121094 -11.613281 C 3.511719 -11.5625 2.71875 -10.59375 2.25 -9.171875 C 1.695312 -7.492188 1.175781 -5.796875 0.761719 -4.085938 C 0.449219 -2.804688 -0.449219 -0.625 1.332031 -0.105469 Z M 4.757812 -5.277344 C 4.914062 -5.796875 5.089844 -6.316406 5.242188 -6.835938 C 5.382812 -6.367188 5.539062 -5.917969 5.695312 -5.453125 C 5.382812 -5.398438 5.070312 -5.332031 4.757812 -5.277344 Z M 4.757812 -5.277344 "/></g></g></g><g fill="#ffded0" fill-opacity="1"><g transform="translate(33.795411, 36.738256)"><g><path d="M 0.8125 -0.328125 C 2.457031 1.417969 3.21875 -4.378906 3.390625 -5.089844 C 4.101562 -3.929688 6.941406 1.992188 8.515625 -1.402344 C 9.5 -3.496094 9.226562 -7.027344 8.894531 -9.171875 C 8.738281 -10.332031 7.511719 -10.816406 6.664062 -9.933594 C 5.78125 -9 6.144531 -7.164062 6.214844 -6.039062 C 5.519531 -7.113281 5.140625 -8.289062 4.484375 -9.347656 C 3.964844 -10.210938 2.839844 -10.9375 1.816406 -10.4375 C 0.191406 -9.621094 0.449219 -5.953125 0.363281 -4.414062 C 0.3125 -3.339844 0.015625 -1.195312 0.8125 -0.328125 Z M 0.8125 -0.328125 "/></g></g></g><g fill="#ffded0" fill-opacity="1"><g transform="translate(42.742682, 36.738256)"><g><path d="M 0.8125 -0.328125 C 2.457031 1.417969 3.21875 -4.378906 3.390625 -5.089844 C 4.101562 -3.929688 6.941406 1.992188 8.515625 -1.402344 C 9.5 -3.496094 9.226562 -7.027344 8.894531 -9.171875 C 8.738281 -10.332031 7.511719 -10.816406 6.664062 -9.933594 C 5.78125 -9 6.144531 -7.164062 6.214844 -6.039062 C 5.519531 -7.113281 5.140625 -8.289062 4.484375 -9.347656 C 3.964844 -10.210938 2.839844 -10.9375 1.816406 -10.4375 C 0.191406 -9.621094 0.449219 -5.953125 0.363281 -4.414062 C 0.3125 -3.339844 0.015625 -1.195312 0.8125 -0.328125 Z M 0.8125 -0.328125 "/></g></g></g><g fill="#ffded0" fill-opacity="1"><g transform="translate(51.689952, 36.738256)"><g><path d="M 2.871094 -0.0351562 C 3.945312 -0.0859375 5.019531 -0.0703125 6.074219 -0.121094 C 6.957031 -0.171875 7.613281 -0.292969 7.960938 -1.160156 C 8.167969 -1.730469 8.289062 -2.769531 7.71875 -3.203125 C 7.078125 -3.667969 6.074219 -3.460938 5.347656 -3.496094 C 4.691406 -3.53125 2.992188 -4.066406 3.980469 -4.984375 C 4.570312 -5.539062 5.484375 -4.878906 6.179688 -5.070312 C 6.941406 -5.296875 7.113281 -6.160156 7.027344 -6.871094 C 6.976562 -7.476562 6.765625 -7.824219 6.179688 -8.046875 C 5.609375 -8.253906 4.414062 -7.875 3.964844 -8.203125 C 3.359375 -8.636719 3.910156 -9.449219 4.34375 -9.535156 C 5 -9.691406 5.710938 -9.242188 6.402344 -9.519531 C 7.007812 -9.761719 7.320312 -10.332031 7.234375 -10.988281 C 7.113281 -11.90625 6.351562 -12.0625 5.554688 -12.183594 C 4.378906 -12.355469 1.261719 -12.945312 0.746094 -11.492188 C 0.519531 -10.867188 0.640625 -10.003906 0.605469 -9.363281 C 0.570312 -8.203125 0.519531 -7.042969 0.46875 -5.882812 C 0.414062 -4.898438 0.378906 -3.910156 0.328125 -2.925781 C 0.292969 -2.144531 0.0703125 -1.019531 0.691406 -0.414062 C 1.261719 0.136719 2.179688 -0.015625 2.871094 -0.0351562 Z M 2.871094 -0.0351562 "/></g></g></g><g fill="#ffded0" fill-opacity="1"><g transform="translate(59.564227, 36.738256)"><g><path d="M 9.328125 -0.589844 C 10.78125 -2.023438 9.191406 -4.691406 8.34375 -5.972656 C 10.296875 -7.789062 10.746094 -10.644531 8.308594 -12.234375 C 6.59375 -13.359375 1.296875 -14.3125 0.832031 -11.421875 C 0.570312 -9.882812 0.761719 -8.152344 0.65625 -6.558594 C 0.554688 -5.105469 -0.0507812 -3.0625 0.46875 -1.644531 C 0.953125 -0.347656 2.421875 -0.015625 3.324219 -1.109375 C 3.773438 -1.660156 3.929688 -2.386719 4.085938 -3.0625 C 4.136719 -3.289062 4.117188 -3.894531 4.273438 -4.066406 C 4.464844 -4.273438 5.539062 -4.363281 5.816406 -4.449219 C 6.058594 -3.167969 7.027344 1.660156 9.328125 -0.589844 Z M 3.996094 -6.609375 C 3.929688 -7.304688 3.511719 -8.601562 3.722656 -9.242188 C 3.859375 -9.710938 4.1875 -9.691406 4.707031 -9.710938 C 5.988281 -9.777344 7.40625 -8.617188 5.902344 -7.5625 C 5.3125 -7.148438 4.65625 -6.871094 3.996094 -6.609375 Z M 3.996094 -6.609375 "/></g></g></g><g fill="#6997ed" fill-opacity="1"><g transform="translate(8.683208, 36.218042)"><g><path d="M 2.164062 -0.015625 C 3.511719 -0.191406 3.425781 -1.902344 3.425781 -2.925781 C 3.425781 -3.703125 3.339844 -4.949219 4.015625 -5.539062 C 4.5 -5.953125 5.417969 -6.109375 5.972656 -6.457031 C 7.128906 -7.164062 8.238281 -8.253906 8.066406 -9.726562 C 7.734375 -12.460938 4.535156 -12.980469 2.300781 -12.910156 C 0.3125 -12.84375 0.5 -11.007812 0.414062 -9.378906 C 0.3125 -7.304688 0.363281 -5.226562 0.257812 -3.132812 C 0.207031 -1.9375 0.414062 0.207031 2.164062 -0.015625 Z M 4.449219 -7.632812 C 3.496094 -7.339844 3.652344 -7.839844 3.6875 -8.585938 C 3.703125 -9.347656 3.359375 -11.09375 4.535156 -10.503906 C 5.089844 -10.210938 5.417969 -9.5 5.382812 -8.894531 C 5.363281 -8.273438 5.054688 -7.824219 4.449219 -7.632812 Z M 4.449219 -7.632812 "/></g></g></g><g fill="#6997ed" fill-opacity="1"><g transform="translate(16.245972, 36.218042)"><g><path d="M 6.699219 -0.277344 C 7.824219 -0.898438 7.855469 -2.648438 6.800781 -3.359375 C 6.039062 -3.859375 5.242188 -3.6875 4.394531 -3.84375 C 3.753906 -3.964844 3.875 -3.667969 3.773438 -4.394531 C 3.722656 -4.777344 3.824219 -5.226562 3.84375 -5.609375 C 3.894531 -7.148438 4.152344 -9.050781 3.652344 -10.558594 C 3.253906 -11.785156 1.972656 -12.234375 1.074219 -11.179688 C 0.226562 -10.175781 0.292969 -8.429688 0.292969 -7.21875 C 0.277344 -5.78125 0.207031 -4.222656 0.347656 -2.785156 C 0.5 -1.195312 1.523438 -0.535156 3.027344 -0.292969 C 4.066406 -0.121094 5.730469 0.257812 6.699219 -0.277344 Z M 6.699219 -0.277344 "/></g></g></g><g fill="#6997ed" fill-opacity="1"><g transform="translate(23.549136, 36.218042)"><g><path d="M 1.332031 -0.105469 C 1.957031 0.0859375 2.734375 0.0351562 3.148438 -0.484375 C 3.601562 -1.039062 3.460938 -2.40625 3.964844 -2.820312 C 4.238281 -3.027344 6.664062 -2.839844 6.75 -2.769531 C 7.21875 -2.371094 7.304688 -1.261719 7.648438 -0.761719 C 8.132812 -0.0507812 8.773438 -0.015625 9.449219 -0.554688 C 10.125 -1.109375 10.054688 -1.679688 9.777344 -2.441406 L 7.753906 -8.132812 C 7.269531 -9.519531 6.941406 -11.648438 5.121094 -11.613281 C 3.511719 -11.5625 2.71875 -10.59375 2.25 -9.171875 C 1.695312 -7.492188 1.175781 -5.796875 0.761719 -4.085938 C 0.449219 -2.804688 -0.449219 -0.625 1.332031 -0.105469 Z M 4.757812 -5.277344 C 4.914062 -5.796875 5.089844 -6.316406 5.242188 -6.835938 C 5.382812 -6.367188 5.539062 -5.917969 5.695312 -5.453125 C 5.382812 -5.398438 5.070312 -5.332031 4.757812 -5.277344 Z M 4.757812 -5.277344 "/></g></g></g><g fill="#6997ed" fill-opacity="1"><g transform="translate(33.275197, 36.218042)"><g><path d="M 0.8125 -0.328125 C 2.457031 1.417969 3.21875 -4.378906 3.390625 -5.089844 C 4.101562 -3.929688 6.941406 1.992188 8.515625 -1.402344 C 9.5 -3.496094 9.226562 -7.027344 8.894531 -9.171875 C 8.738281 -10.332031 7.511719 -10.816406 6.664062 -9.933594 C 5.78125 -9 6.144531 -7.164062 6.214844 -6.039062 C 5.519531 -7.113281 5.140625 -8.289062 4.484375 -9.347656 C 3.964844 -10.210938 2.839844 -10.9375 1.816406 -10.4375 C 0.191406 -9.621094 0.449219 -5.953125 0.363281 -4.414062 C 0.3125 -3.339844 0.015625 -1.195312 0.8125 -0.328125 Z M 0.8125 -0.328125 "/></g></g></g><g fill="#6997ed" fill-opacity="1"><g transform="translate(42.222468, 36.218042)"><g><path d="M 0.8125 -0.328125 C 2.457031 1.417969 3.21875 -4.378906 3.390625 -5.089844 C 4.101562 -3.929688 6.941406 1.992188 8.515625 -1.402344 C 9.5 -3.496094 9.226562 -7.027344 8.894531 -9.171875 C 8.738281 -10.332031 7.511719 -10.816406 6.664062 -9.933594 C 5.78125 -9 6.144531 -7.164062 6.214844 -6.039062 C 5.519531 -7.113281 5.140625 -8.289062 4.484375 -9.347656 C 3.964844 -10.210938 2.839844 -10.9375 1.816406 -10.4375 C 0.191406 -9.621094 0.449219 -5.953125 0.363281 -4.414062 C 0.3125 -3.339844 0.015625 -1.195312 0.8125 -0.328125 Z M 0.8125 -0.328125 "/></g></g></g><g fill="#6997ed" fill-opacity="1"><g transform="translate(51.169738, 36.218042)"><g><path d="M 2.871094 -0.0351562 C 3.945312 -0.0859375 5.019531 -0.0703125 6.074219 -0.121094 C 6.957031 -0.171875 7.613281 -0.292969 7.960938 -1.160156 C 8.167969 -1.730469 8.289062 -2.769531 7.71875 -3.203125 C 7.078125 -3.667969 6.074219 -3.460938 5.347656 -3.496094 C 4.691406 -3.53125 2.992188 -4.066406 3.980469 -4.984375 C 4.570312 -5.539062 5.484375 -4.878906 6.179688 -5.070312 C 6.941406 -5.296875 7.113281 -6.160156 7.027344 -6.871094 C 6.976562 -7.476562 6.765625 -7.824219 6.179688 -8.046875 C 5.609375 -8.253906 4.414062 -7.875 3.964844 -8.203125 C 3.359375 -8.636719 3.910156 -9.449219 4.34375 -9.535156 C 5 -9.691406 5.710938 -9.242188 6.402344 -9.519531 C 7.007812 -9.761719 7.320312 -10.332031 7.234375 -10.988281 C 7.113281 -11.90625 6.351562 -12.0625 5.554688 -12.183594 C 4.378906 -12.355469 1.261719 -12.945312 0.746094 -11.492188 C 0.519531 -10.867188 0.640625 -10.003906 0.605469 -9.363281 C 0.570312 -8.203125 0.519531 -7.042969 0.46875 -5.882812 C 0.414062 -4.898438 0.378906 -3.910156 0.328125 -2.925781 C 0.292969 -2.144531 0.0703125 -1.019531 0.691406 -0.414062 C 1.261719 0.136719 2.179688 -0.015625 2.871094 -0.0351562 Z M 2.871094 -0.0351562 "/></g></g></g><g fill="#6997ed" fill-opacity="1"><g transform="translate(59.044013, 36.218042)"><g><path d="M 9.328125 -0.589844 C 10.78125 -2.023438 9.191406 -4.691406 8.34375 -5.972656 C 10.296875 -7.789062 10.746094 -10.644531 8.308594 -12.234375 C 6.59375 -13.359375 1.296875 -14.3125 0.832031 -11.421875 C 0.570312 -9.882812 0.761719 -8.152344 0.65625 -6.558594 C 0.554688 -5.105469 -0.0507812 -3.0625 0.46875 -1.644531 C 0.953125 -0.347656 2.421875 -0.015625 3.324219 -1.109375 C 3.773438 -1.660156 3.929688 -2.386719 4.085938 -3.0625 C 4.136719 -3.289062 4.117188 -3.894531 4.273438 -4.066406 C 4.464844 -4.273438 5.539062 -4.363281 5.816406 -4.449219 C 6.058594 -3.167969 7.027344 1.660156 9.328125 -0.589844 Z M 3.996094 -6.609375 C 3.929688 -7.304688 3.511719 -8.601562 3.722656 -9.242188 C 3.859375 -9.710938 4.1875 -9.691406 4.707031 -9.710938 C 5.988281 -9.777344 7.40625 -8.617188 5.902344 -7.5625 C 5.3125 -7.148438 4.65625 -6.871094 3.996094 -6.609375 Z M 3.996094 -6.609375 "/></g></g></g><g clip-path="url(#e4cd497e5b)"><path fill="#ffded0" d="M 14.726562 33.277344 C 14.21875 37.5625 13.804688 37.972656 9.519531 38.480469 C 9.53125 38.480469 9.539062 38.480469 9.546875 38.484375 C 13.808594 38.988281 14.21875 39.40625 14.726562 43.683594 C 15.230469 39.398438 15.644531 38.988281 19.929688 38.480469 C 15.644531 37.972656 15.230469 37.5625 14.726562 33.277344 Z M 14.726562 33.277344 " fill-opacity="1" fill-rule="nonzero"/></g><g clip-path="url(#1a894ccd4f)"><path fill="#ffded0" d="M 62.117188 16.207031 C 61.828125 18.65625 61.59375 18.890625 59.144531 19.183594 C 59.148438 19.183594 59.15625 19.183594 59.160156 19.183594 C 61.59375 19.472656 61.828125 19.710938 62.117188 22.15625 C 62.40625 19.707031 62.644531 19.472656 65.089844 19.183594 C 62.644531 18.890625 62.40625 18.65625 62.117188 16.207031 Z M 62.117188 16.207031 " fill-opacity="1" fill-rule="nonzero"/></g><g clip-path="url(#b9dc0aa249)"><path fill="#ffded0" d="M 59.320312 10.683594 C 59.066406 12.828125 58.859375 13.03125 56.71875 13.285156 C 56.722656 13.285156 56.726562 13.289062 56.730469 13.289062 C 58.859375 13.539062 59.066406 13.75 59.320312 15.886719 C 59.574219 13.746094 59.777344 13.539062 61.921875 13.285156 C 59.777344 13.03125 59.574219 12.828125 59.320312 10.683594 Z M 59.320312 10.683594 " fill-opacity="1" fill-rule="nonzero"/></g></svg>