<svg id="svg" version="1.1" xmlns="http://www.w3.org/2000/svg" xmlns:xlink="http://www.w3.org/1999/xlink" width="400" height="400" viewBox="0, 0, 400,400"><g id="svgg"><path id="path0" d="M267.300 52.222 C 266.145 53.411,265.200 54.586,265.200 54.832 C 265.200 55.078,264.660 55.783,264.000 56.400 C 263.340 57.017,262.800 57.737,262.800 58.000 C 262.800 58.263,262.260 58.983,261.600 59.600 C 260.940 60.217,260.400 60.937,260.400 61.200 C 260.400 61.463,259.860 62.183,259.200 62.800 C 258.540 63.417,258.000 64.137,258.000 64.400 C 258.000 64.663,257.460 65.383,256.800 66.000 C 256.140 66.617,255.600 67.337,255.600 67.600 C 255.600 67.863,255.060 68.583,254.400 69.200 C 253.740 69.817,253.200 70.537,253.200 70.800 C 253.200 71.063,252.660 71.783,252.000 72.400 C 251.340 73.017,250.800 73.737,250.800 74.000 C 250.800 74.263,250.260 74.983,249.600 75.600 C 248.940 76.217,248.400 76.937,248.400 77.200 C 248.400 77.463,247.860 78.183,247.200 78.800 C 246.540 79.417,246.000 80.137,246.000 80.400 C 246.000 80.663,245.460 81.383,244.800 82.000 C 244.140 82.617,243.600 83.325,243.600 83.574 C 243.600 84.670,240.836 86.800,239.413 86.800 C 238.636 86.800,238.000 86.620,238.000 86.400 C 238.000 86.180,237.280 86.000,236.400 86.000 C 235.520 86.000,234.800 85.820,234.800 85.600 C 234.800 85.380,233.900 85.200,232.800 85.200 C 231.700 85.200,230.800 85.020,230.800 84.800 C 230.800 84.580,229.900 84.400,228.800 84.400 C 227.700 84.400,226.800 84.220,226.800 84.000 C 226.800 83.767,225.467 83.600,223.600 83.600 C 221.733 83.600,220.400 83.433,220.400 83.200 C 220.400 82.942,215.867 82.800,207.600 82.800 C 199.333 82.800,194.800 82.942,194.800 83.200 C 194.800 83.433,193.467 83.600,191.600 83.600 C 189.733 83.600,188.400 83.767,188.400 84.000 C 188.400 84.220,187.500 84.400,186.400 84.400 C 185.300 84.400,184.400 84.580,184.400 84.800 C 184.400 85.020,183.500 85.200,182.400 85.200 C 181.300 85.200,180.400 85.380,180.400 85.600 C 180.400 85.820,179.680 86.000,178.800 86.000 C 177.920 86.000,177.200 86.180,177.200 86.400 C 177.200 86.620,176.660 86.800,176.000 86.800 C 175.340 86.800,174.800 86.980,174.800 87.200 C 174.800 87.420,174.260 87.600,173.600 87.600 C 172.940 87.600,172.400 87.780,172.400 88.000 C 172.400 88.220,171.860 88.400,171.200 88.400 C 170.540 88.400,170.000 88.580,170.000 88.800 C 170.000 89.020,169.460 89.200,168.800 89.200 C 168.140 89.200,167.600 89.380,167.600 89.600 C 167.600 89.820,167.240 90.000,166.800 90.000 C 166.360 90.000,166.000 90.180,166.000 90.400 C 166.000 90.620,165.460 90.800,164.800 90.800 C 164.140 90.800,163.600 90.980,163.600 91.200 C 163.600 91.420,163.240 91.600,162.800 91.600 C 162.360 91.600,162.000 91.780,162.000 92.000 C 162.000 92.220,161.640 92.400,161.200 92.400 C 160.760 92.400,160.400 92.580,160.400 92.800 C 160.400 93.020,160.040 93.200,159.600 93.200 C 159.160 93.200,158.800 93.380,158.800 93.600 C 158.800 93.820,158.440 94.000,158.000 94.000 C 157.560 94.000,157.200 94.180,157.200 94.400 C 157.200 94.620,156.840 94.800,156.400 94.800 C 155.960 94.800,155.600 94.980,155.600 95.200 C 155.600 95.420,155.240 95.600,154.800 95.600 C 154.360 95.600,154.000 95.780,154.000 96.000 C 154.000 96.220,153.640 96.400,153.200 96.400 C 152.760 96.400,152.400 96.580,152.400 96.800 C 152.400 97.020,152.040 97.200,151.600 97.200 C 151.160 97.200,150.800 97.380,150.800 97.600 C 150.800 97.820,150.480 98.000,150.088 98.000 C 149.697 98.000,149.117 98.360,148.800 98.800 C 148.483 99.240,147.943 99.600,147.600 99.600 C 147.257 99.600,146.717 99.960,146.400 100.400 C 146.083 100.840,145.543 101.200,145.200 101.200 C 144.857 101.200,144.317 101.560,144.000 102.000 C 143.683 102.440,143.143 102.800,142.800 102.800 C 142.457 102.800,141.917 103.160,141.600 103.600 C 141.283 104.040,140.779 104.400,140.480 104.400 C 140.182 104.400,139.246 105.120,138.400 106.000 C 137.554 106.880,136.657 107.600,136.405 107.600 C 136.154 107.600,135.071 108.500,134.000 109.600 C 132.929 110.700,131.858 111.600,131.622 111.600 C 131.060 111.600,122.000 120.660,122.000 121.222 C 122.000 121.458,121.100 122.529,120.000 123.600 C 118.900 124.671,118.000 125.758,118.000 126.014 C 118.000 126.270,117.460 126.983,116.800 127.600 C 116.140 128.217,115.600 128.937,115.600 129.200 C 115.600 129.463,115.060 130.183,114.400 130.800 C 113.740 131.417,113.200 132.169,113.200 132.472 C 113.200 132.775,112.840 133.283,112.400 133.600 C 111.960 133.917,111.600 134.457,111.600 134.800 C 111.600 135.143,111.240 135.683,110.800 136.000 C 110.360 136.317,110.000 136.897,110.000 137.288 C 110.000 137.680,109.820 138.000,109.600 138.000 C 109.380 138.000,109.200 138.360,109.200 138.800 C 109.200 139.240,109.020 139.600,108.800 139.600 C 108.580 139.600,108.400 139.920,108.400 140.312 C 108.400 140.703,108.040 141.283,107.600 141.600 C 107.160 141.917,106.800 142.497,106.800 142.888 C 106.800 143.280,106.620 143.600,106.400 143.600 C 106.180 143.600,106.000 143.960,106.000 144.400 C 106.000 144.840,105.820 145.200,105.600 145.200 C 105.380 145.200,105.200 145.560,105.200 146.000 C 105.200 146.440,105.020 146.800,104.800 146.800 C 104.580 146.800,104.400 147.340,104.400 148.000 C 104.400 148.660,104.220 149.200,104.000 149.200 C 103.780 149.200,103.600 149.560,103.600 150.000 C 103.600 150.440,103.420 150.800,103.200 150.800 C 102.980 150.800,102.800 151.160,102.800 151.600 C 102.800 152.040,102.620 152.400,102.400 152.400 C 102.180 152.400,102.000 152.940,102.000 153.600 C 102.000 154.260,101.820 154.800,101.600 154.800 C 101.380 154.800,101.200 155.160,101.200 155.600 C 101.200 156.040,101.020 156.400,100.800 156.400 C 100.580 156.400,100.400 156.940,100.400 157.600 C 100.400 158.260,100.220 158.800,100.000 158.800 C 99.780 158.800,99.600 159.340,99.600 160.000 C 99.600 160.660,99.420 161.200,99.200 161.200 C 98.980 161.200,98.800 161.740,98.800 162.400 C 98.800 163.060,98.620 163.600,98.400 163.600 C 98.180 163.600,98.000 164.320,98.000 165.200 C 98.000 166.080,97.820 166.800,97.600 166.800 C 97.380 166.800,97.200 167.520,97.200 168.400 C 97.200 169.280,97.020 170.000,96.800 170.000 C 96.580 170.000,96.400 170.720,96.400 171.600 C 96.400 172.480,96.220 173.200,96.000 173.200 C 95.778 173.200,95.600 174.267,95.600 175.600 C 95.600 176.933,95.422 178.000,95.200 178.000 C 94.971 178.000,94.800 179.200,94.800 180.800 C 94.800 182.400,94.629 183.600,94.400 183.600 C 94.141 183.600,94.000 188.267,94.000 196.800 C 94.000 205.333,94.141 210.000,94.400 210.000 C 94.629 210.000,94.800 211.200,94.800 212.800 C 94.800 214.400,94.971 215.600,95.200 215.600 C 95.420 215.600,95.600 216.500,95.600 217.600 C 95.600 218.700,95.780 219.600,96.000 219.600 C 96.220 219.600,96.400 220.500,96.400 221.600 C 96.400 222.700,96.580 223.600,96.800 223.600 C 97.020 223.600,97.200 224.320,97.200 225.200 C 97.200 226.080,97.380 226.800,97.600 226.800 C 97.820 226.800,98.000 227.520,98.000 228.400 C 98.000 229.280,98.180 230.000,98.400 230.000 C 98.620 230.000,98.800 230.540,98.800 231.200 C 98.800 231.860,98.980 232.400,99.200 232.400 C 99.420 232.400,99.600 232.940,99.600 233.600 C 99.600 234.260,99.780 234.800,100.000 234.800 C 100.220 234.800,100.400 235.340,100.400 236.000 C 100.400 236.660,100.580 237.200,100.800 237.200 C 101.020 237.200,101.200 237.560,101.200 238.000 C 101.200 238.440,101.380 238.800,101.600 238.800 C 101.820 238.800,102.000 239.340,102.000 240.000 C 102.000 240.660,102.180 241.200,102.400 241.200 C 102.620 241.200,102.800 241.560,102.800 242.000 C 102.800 242.440,102.980 242.800,103.200 242.800 C 103.420 242.800,103.600 243.160,103.600 243.600 C 103.600 244.040,103.780 244.400,104.000 244.400 C 104.220 244.400,104.400 244.940,104.400 245.600 C 104.400 246.260,104.580 246.800,104.800 246.800 C 105.020 246.800,105.200 247.160,105.200 247.600 C 105.200 248.040,105.380 248.400,105.600 248.400 C 105.820 248.400,106.000 248.760,106.000 249.200 C 106.000 249.640,106.180 250.000,106.400 250.000 C 106.620 250.000,106.800 250.320,106.800 250.712 C 106.800 251.103,107.160 251.683,107.600 252.000 C 108.040 252.317,108.400 252.897,108.400 253.288 C 108.400 253.680,108.580 254.000,108.800 254.000 C 109.020 254.000,109.200 254.360,109.200 254.800 C 109.200 255.240,109.380 255.600,109.600 255.600 C 109.820 255.600,110.000 255.920,110.000 256.312 C 110.000 256.703,110.360 257.283,110.800 257.600 C 111.240 257.917,111.600 258.457,111.600 258.800 C 111.600 259.143,111.960 259.683,112.400 260.000 C 112.840 260.317,113.200 260.825,113.200 261.128 C 113.200 261.431,113.740 262.183,114.400 262.800 C 115.060 263.417,115.600 264.137,115.600 264.400 C 115.600 264.663,116.140 265.383,116.800 266.000 C 117.460 266.617,118.000 267.330,118.000 267.586 C 118.000 267.842,118.900 268.929,120.000 270.000 C 121.100 271.071,122.000 272.142,122.000 272.378 C 122.000 272.943,131.862 282.800,132.427 282.800 C 132.667 282.800,133.554 283.520,134.400 284.400 C 135.246 285.280,136.221 286.000,136.569 286.000 C 136.916 286.000,137.200 286.180,137.200 286.400 C 137.200 286.622,138.267 286.800,139.600 286.800 C 140.933 286.800,142.000 286.622,142.000 286.400 C 142.000 286.180,142.283 286.000,142.629 286.000 C 143.437 286.000,144.400 285.037,144.400 284.229 C 144.400 283.883,144.580 283.600,144.800 283.600 C 145.020 283.600,145.200 282.700,145.200 281.600 C 145.200 280.500,145.020 279.600,144.800 279.600 C 144.580 279.600,144.400 279.325,144.400 278.989 C 144.400 278.309,141.056 274.800,140.407 274.800 C 139.853 274.800,129.200 264.127,129.200 263.572 C 129.200 263.333,128.480 262.446,127.600 261.600 C 126.720 260.754,126.000 259.851,126.000 259.592 C 126.000 259.333,125.460 258.617,124.800 258.000 C 124.140 257.383,123.600 256.631,123.600 256.328 C 123.600 256.025,123.240 255.517,122.800 255.200 C 122.360 254.883,122.000 254.343,122.000 254.000 C 122.000 253.657,121.640 253.117,121.200 252.800 C 120.760 252.483,120.400 251.943,120.400 251.600 C 120.400 251.257,120.040 250.717,119.600 250.400 C 119.160 250.083,118.800 249.503,118.800 249.112 C 118.800 248.720,118.620 248.400,118.400 248.400 C 118.180 248.400,118.000 248.040,118.000 247.600 C 118.000 247.160,117.820 246.800,117.600 246.800 C 117.380 246.800,117.200 246.440,117.200 246.000 C 117.200 245.560,117.020 245.200,116.800 245.200 C 116.580 245.200,116.400 244.840,116.400 244.400 C 116.400 243.960,116.220 243.600,116.000 243.600 C 115.780 243.600,115.600 243.240,115.600 242.800 C 115.600 242.360,115.420 242.000,115.200 242.000 C 114.980 242.000,114.800 241.640,114.800 241.200 C 114.800 240.760,114.620 240.400,114.400 240.400 C 114.180 240.400,114.000 240.040,114.000 239.600 C 114.000 239.160,113.820 238.800,113.600 238.800 C 113.380 238.800,113.200 238.440,113.200 238.000 C 113.200 237.560,113.020 237.200,112.800 237.200 C 112.580 237.200,112.400 236.660,112.400 236.000 C 112.400 235.340,112.220 234.800,112.000 234.800 C 111.780 234.800,111.600 234.440,111.600 234.000 C 111.600 233.560,111.420 233.200,111.200 233.200 C 110.980 233.200,110.800 232.660,110.800 232.000 C 110.800 231.340,110.620 230.800,110.400 230.800 C 110.180 230.800,110.000 230.260,110.000 229.600 C 110.000 228.940,109.820 228.400,109.600 228.400 C 109.380 228.400,109.200 227.860,109.200 227.200 C 109.200 226.540,109.020 226.000,108.800 226.000 C 108.580 226.000,108.400 225.280,108.400 224.400 C 108.400 223.520,108.220 222.800,108.000 222.800 C 107.780 222.800,107.600 222.080,107.600 221.200 C 107.600 220.320,107.420 219.600,107.200 219.600 C 106.980 219.600,106.800 218.700,106.800 217.600 C 106.800 216.500,106.620 215.600,106.400 215.600 C 106.178 215.600,106.000 214.533,106.000 213.200 C 106.000 211.867,105.822 210.800,105.600 210.800 C 105.360 210.800,105.200 209.200,105.200 206.800 C 105.200 204.400,105.040 202.800,104.800 202.800 C 104.548 202.800,104.400 200.133,104.400 195.600 C 104.400 191.067,104.548 188.400,104.800 188.400 C 105.037 188.400,105.200 186.933,105.200 184.800 C 105.200 182.667,105.363 181.200,105.600 181.200 C 105.820 181.200,106.000 180.300,106.000 179.200 C 106.000 178.100,106.180 177.200,106.400 177.200 C 106.620 177.200,106.800 176.300,106.800 175.200 C 106.800 174.100,106.980 173.200,107.200 173.200 C 107.420 173.200,107.600 172.480,107.600 171.600 C 107.600 170.720,107.780 170.000,108.000 170.000 C 108.220 170.000,108.400 169.460,108.400 168.800 C 108.400 168.140,108.580 167.600,108.800 167.600 C 109.020 167.600,109.200 167.060,109.200 166.400 C 109.200 165.740,109.380 165.200,109.600 165.200 C 109.820 165.200,110.000 164.660,110.000 164.000 C 110.000 163.340,110.180 162.800,110.400 162.800 C 110.620 162.800,110.800 162.260,110.800 161.600 C 110.800 160.940,110.980 160.400,111.200 160.400 C 111.420 160.400,111.600 160.040,111.600 159.600 C 111.600 159.160,111.780 158.800,112.000 158.800 C 112.220 158.800,112.400 158.260,112.400 157.600 C 112.400 156.940,112.580 156.400,112.800 156.400 C 113.020 156.400,113.200 156.040,113.200 155.600 C 113.200 155.160,113.380 154.800,113.600 154.800 C 113.820 154.800,114.000 154.440,114.000 154.000 C 114.000 153.560,114.180 153.200,114.400 153.200 C 114.620 153.200,114.800 152.840,114.800 152.400 C 114.800 151.960,114.980 151.600,115.200 151.600 C 115.420 151.600,115.600 151.240,115.600 150.800 C 115.600 150.360,115.780 150.000,116.000 150.000 C 116.220 150.000,116.400 149.640,116.400 149.200 C 116.400 148.760,116.580 148.400,116.800 148.400 C 117.020 148.400,117.200 148.040,117.200 147.600 C 117.200 147.160,117.380 146.800,117.600 146.800 C 117.820 146.800,118.000 146.480,118.000 146.088 C 118.000 145.697,118.360 145.117,118.800 144.800 C 119.240 144.483,119.600 143.903,119.600 143.512 C 119.600 143.120,119.780 142.800,120.000 142.800 C 120.220 142.800,120.400 142.480,120.400 142.088 C 120.400 141.697,120.760 141.117,121.200 140.800 C 121.640 140.483,122.000 139.943,122.000 139.600 C 122.000 139.257,122.360 138.717,122.800 138.400 C 123.240 138.083,123.600 137.503,123.600 137.112 C 123.600 136.720,123.799 136.400,124.043 136.400 C 124.286 136.400,124.378 136.121,124.247 135.779 C 124.110 135.421,124.177 135.262,124.408 135.405 C 124.863 135.686,126.000 134.685,126.000 134.003 C 126.000 133.753,126.900 132.671,128.000 131.600 C 129.100 130.529,130.000 129.459,130.000 129.222 C 130.000 128.653,140.666 118.000,141.236 118.000 C 141.480 118.000,142.183 117.460,142.800 116.800 C 143.417 116.140,144.133 115.600,144.392 115.600 C 144.651 115.600,145.554 114.880,146.400 114.000 C 147.246 113.120,148.182 112.400,148.480 112.400 C 148.779 112.400,149.283 112.040,149.600 111.600 C 149.917 111.160,150.457 110.800,150.800 110.800 C 151.143 110.800,151.683 110.440,152.000 110.000 C 152.317 109.560,152.857 109.200,153.200 109.200 C 153.543 109.200,154.083 108.840,154.400 108.400 C 154.717 107.960,155.297 107.600,155.688 107.600 C 156.080 107.600,156.400 107.420,156.400 107.200 C 156.400 106.980,156.760 106.800,157.200 106.800 C 157.640 106.800,158.000 106.620,158.000 106.400 C 158.000 106.180,158.360 106.000,158.800 106.000 C 159.240 106.000,159.600 105.820,159.600 105.600 C 159.600 105.380,159.960 105.200,160.400 105.200 C 160.840 105.200,161.200 105.020,161.200 104.800 C 161.200 104.580,161.560 104.400,162.000 104.400 C 162.440 104.400,162.800 104.220,162.800 104.000 C 162.800 103.780,163.160 103.600,163.600 103.600 C 164.040 103.600,164.400 103.420,164.400 103.200 C 164.400 102.980,164.760 102.800,165.200 102.800 C 165.640 102.800,166.000 102.620,166.000 102.400 C 166.000 102.180,166.360 102.000,166.800 102.000 C 167.240 102.000,167.600 101.820,167.600 101.600 C 167.600 101.380,168.140 101.200,168.800 101.200 C 169.460 101.200,170.000 101.020,170.000 100.800 C 170.000 100.580,170.360 100.400,170.800 100.400 C 171.240 100.400,171.600 100.220,171.600 100.000 C 171.600 99.780,172.140 99.600,172.800 99.600 C 173.460 99.600,174.000 99.420,174.000 99.200 C 174.000 98.980,174.540 98.800,175.200 98.800 C 175.860 98.800,176.400 98.620,176.400 98.400 C 176.400 98.180,176.940 98.000,177.600 98.000 C 178.260 98.000,178.800 97.820,178.800 97.600 C 178.800 97.380,179.340 97.200,180.000 97.200 C 180.660 97.200,181.200 97.020,181.200 96.800 C 181.200 96.580,182.100 96.400,183.200 96.400 C 184.300 96.400,185.200 96.220,185.200 96.000 C 185.200 95.780,186.100 95.600,187.200 95.600 C 188.300 95.600,189.200 95.420,189.200 95.200 C 189.200 94.978,190.267 94.800,191.600 94.800 C 192.933 94.800,194.000 94.622,194.000 94.400 C 194.000 94.160,195.600 94.000,198.000 94.000 C 200.400 94.000,202.000 93.840,202.000 93.600 C 202.000 93.350,204.400 93.200,208.400 93.200 C 212.400 93.200,214.800 93.350,214.800 93.600 C 214.800 93.840,216.400 94.000,218.800 94.000 C 221.200 94.000,222.800 94.160,222.800 94.400 C 222.800 94.622,223.867 94.800,225.200 94.800 C 226.533 94.800,227.600 94.978,227.600 95.200 C 227.600 95.420,228.320 95.600,229.200 95.600 C 230.080 95.600,230.800 95.780,230.800 96.000 C 230.800 96.220,231.340 96.400,232.000 96.400 C 232.833 96.400,233.200 96.596,233.200 97.040 C 233.200 97.391,232.660 98.183,232.000 98.800 C 231.340 99.417,230.800 100.169,230.800 100.472 C 230.800 100.775,230.440 101.283,230.000 101.600 C 229.560 101.917,229.200 102.417,229.200 102.712 C 229.200 103.006,229.020 103.136,228.800 103.000 C 228.580 102.864,228.400 103.051,228.400 103.416 C 228.400 103.781,227.860 104.583,227.200 105.200 C 226.540 105.817,226.000 106.537,226.000 106.800 C 226.000 107.063,225.460 107.783,224.800 108.400 C 224.140 109.017,223.600 109.737,223.600 110.000 C 223.600 110.263,223.060 110.983,222.400 111.600 C 221.740 112.217,221.200 112.937,221.200 113.200 C 221.200 113.463,220.660 114.183,220.000 114.800 C 219.340 115.417,218.800 116.133,218.800 116.392 C 218.800 116.651,218.080 117.554,217.200 118.400 C 216.320 119.246,215.600 120.149,215.600 120.408 C 215.600 120.667,215.060 121.383,214.400 122.000 C 213.740 122.617,213.200 123.337,213.200 123.600 C 213.200 123.863,212.660 124.583,212.000 125.200 C 211.340 125.817,210.800 126.537,210.800 126.800 C 210.800 127.063,210.260 127.783,209.600 128.400 C 208.940 129.017,208.400 129.737,208.400 130.000 C 208.400 130.263,207.860 130.983,207.200 131.600 C 206.540 132.217,206.000 132.937,206.000 133.200 C 206.000 133.463,205.460 134.183,204.800 134.800 C 204.140 135.417,203.600 136.137,203.600 136.400 C 203.600 136.663,203.060 137.383,202.400 138.000 C 201.740 138.617,201.200 139.337,201.200 139.600 C 201.200 139.863,200.660 140.583,200.000 141.200 C 199.340 141.817,198.800 142.537,198.800 142.800 C 198.800 143.063,198.260 143.783,197.600 144.400 C 196.940 145.017,196.400 145.809,196.400 146.160 C 196.400 146.661,195.966 146.800,194.400 146.800 C 193.300 146.800,192.400 146.620,192.400 146.400 C 192.400 146.180,191.500 146.000,190.400 146.000 C 189.300 146.000,188.400 145.820,188.400 145.600 C 188.400 145.378,187.333 145.200,186.000 145.200 C 184.667 145.200,183.600 145.378,183.600 145.600 C 183.600 145.822,182.533 146.000,181.200 146.000 C 179.867 146.000,178.800 146.178,178.800 146.400 C 178.800 146.620,178.260 146.800,177.600 146.800 C 176.940 146.800,176.400 146.980,176.400 147.200 C 176.400 147.420,176.040 147.600,175.600 147.600 C 175.160 147.600,174.800 147.780,174.800 148.000 C 174.800 148.220,174.480 148.400,174.088 148.400 C 173.697 148.400,173.117 148.760,172.800 149.200 C 172.483 149.640,171.990 150.000,171.704 150.000 C 171.076 150.000,166.000 155.004,166.000 155.624 C 166.000 155.865,165.280 156.754,164.400 157.600 C 163.520 158.446,162.800 159.349,162.800 159.608 C 162.800 159.867,162.260 160.583,161.600 161.200 C 160.940 161.817,160.400 162.537,160.400 162.800 C 160.400 163.063,159.860 163.783,159.200 164.400 C 158.540 165.017,158.000 165.737,158.000 166.000 C 158.000 166.263,157.460 166.983,156.800 167.600 C 156.140 168.217,155.600 168.937,155.600 169.200 C 155.600 169.463,155.060 170.183,154.400 170.800 C 153.740 171.417,153.200 172.169,153.200 172.472 C 153.200 172.775,152.840 173.283,152.400 173.600 C 151.960 173.917,151.600 174.497,151.600 174.888 C 151.600 175.280,151.420 175.600,151.200 175.600 C 150.980 175.600,150.800 175.960,150.800 176.400 C 150.800 176.840,150.620 177.200,150.400 177.200 C 150.180 177.200,150.000 177.560,150.000 178.000 C 150.000 178.440,149.820 178.800,149.600 178.800 C 149.380 178.800,149.200 179.520,149.200 180.400 C 149.200 181.280,149.020 182.000,148.800 182.000 C 148.551 182.000,148.400 184.267,148.400 188.000 C 148.400 191.733,148.551 194.000,148.800 194.000 C 149.020 194.000,149.200 194.540,149.200 195.200 C 149.200 195.860,149.380 196.400,149.600 196.400 C 149.820 196.400,150.000 196.760,150.000 197.200 C 150.000 197.640,150.180 198.000,150.400 198.000 C 150.620 198.000,150.800 198.360,150.800 198.800 C 150.800 199.240,150.980 199.600,151.200 199.600 C 151.420 199.600,151.600 199.920,151.600 200.312 C 151.600 200.703,151.960 201.283,152.400 201.600 C 152.840 201.917,153.200 202.413,153.200 202.702 C 153.200 203.344,155.798 206.000,156.426 206.000 C 156.675 206.000,157.383 206.540,158.000 207.200 C 158.617 207.860,159.409 208.400,159.760 208.400 C 160.112 208.400,160.400 208.580,160.400 208.800 C 160.400 209.020,160.760 209.200,161.200 209.200 C 161.640 209.200,162.000 209.380,162.000 209.600 C 162.000 209.820,162.360 210.000,162.800 210.000 C 163.240 210.000,163.600 210.180,163.600 210.400 C 163.600 210.620,164.320 210.800,165.200 210.800 C 166.080 210.800,166.800 210.980,166.800 211.200 C 166.800 211.449,169.067 211.600,172.800 211.600 C 176.533 211.600,178.800 211.449,178.800 211.200 C 178.800 210.980,179.340 210.800,180.000 210.800 C 180.660 210.800,181.200 210.620,181.200 210.400 C 181.200 210.180,181.560 210.000,182.000 210.000 C 182.440 210.000,182.800 209.820,182.800 209.600 C 182.800 209.380,183.160 209.200,183.600 209.200 C 184.040 209.200,184.400 209.020,184.400 208.800 C 184.400 208.580,184.720 208.400,185.112 208.400 C 185.503 208.400,186.083 208.040,186.400 207.600 C 186.717 207.160,187.211 206.800,187.497 206.800 C 188.132 206.800,192.400 202.595,192.400 201.969 C 192.400 201.723,192.940 201.017,193.600 200.400 C 194.260 199.783,194.800 199.063,194.800 198.800 C 194.800 198.537,195.340 197.817,196.000 197.200 C 196.660 196.583,197.200 195.863,197.200 195.600 C 197.200 195.337,197.740 194.617,198.400 194.000 C 199.060 193.383,199.600 192.663,199.600 192.400 C 199.600 192.137,200.140 191.417,200.800 190.800 C 201.460 190.183,202.000 189.463,202.000 189.200 C 202.000 188.937,202.540 188.217,203.200 187.600 C 203.860 186.983,204.400 186.231,204.400 185.928 C 204.400 185.625,204.760 185.117,205.200 184.800 C 205.640 184.483,206.000 183.943,206.000 183.600 C 206.000 183.257,206.360 182.717,206.800 182.400 C 207.240 182.083,207.600 181.503,207.600 181.112 C 207.600 180.720,207.780 180.400,208.000 180.400 C 208.220 180.400,208.400 179.860,208.400 179.200 C 208.400 178.540,208.580 178.000,208.800 178.000 C 209.020 178.000,209.200 177.280,209.200 176.400 C 209.200 175.520,209.380 174.800,209.600 174.800 C 209.846 174.800,210.000 172.800,210.000 169.600 C 210.000 166.400,209.846 164.400,209.600 164.400 C 209.380 164.400,209.200 163.680,209.200 162.800 C 209.200 161.920,209.020 161.200,208.800 161.200 C 208.580 161.200,208.400 160.840,208.400 160.400 C 208.400 159.960,208.220 159.600,208.000 159.600 C 207.780 159.600,207.600 159.240,207.600 158.800 C 207.600 158.360,207.420 158.000,207.200 158.000 C 206.980 158.000,206.800 157.680,206.800 157.288 C 206.800 156.897,206.440 156.317,206.000 156.000 C 205.174 155.404,204.893 154.000,205.600 154.000 C 205.820 154.000,206.000 153.712,206.000 153.360 C 206.000 153.009,206.540 152.217,207.200 151.600 C 207.860 150.983,208.400 150.263,208.400 150.000 C 208.400 149.737,208.940 149.017,209.600 148.400 C 210.260 147.783,210.800 147.063,210.800 146.800 C 210.800 146.537,211.340 145.817,212.000 145.200 C 212.660 144.583,213.200 143.863,213.200 143.600 C 213.200 143.337,213.740 142.617,214.400 142.000 C 215.060 141.383,215.600 140.663,215.600 140.400 C 215.600 140.137,216.140 139.417,216.800 138.800 C 217.460 138.183,218.000 137.463,218.000 137.200 C 218.000 136.937,218.540 136.217,219.200 135.600 C 219.860 134.983,220.400 134.263,220.400 134.000 C 220.400 133.737,220.940 133.017,221.600 132.400 C 222.260 131.783,222.800 131.063,222.800 130.800 C 222.800 130.537,223.340 129.817,224.000 129.200 C 224.660 128.583,225.200 127.863,225.200 127.600 C 225.200 127.337,225.740 126.617,226.400 126.000 C 227.060 125.383,227.600 124.663,227.600 124.400 C 227.600 124.137,228.140 123.417,228.800 122.800 C 229.460 122.183,230.000 121.463,230.000 121.200 C 230.000 120.937,230.540 120.217,231.200 119.600 C 231.860 118.983,232.400 118.263,232.400 118.000 C 232.400 117.737,232.940 117.017,233.600 116.400 C 234.260 115.783,234.800 115.063,234.800 114.800 C 234.800 114.537,235.340 113.817,236.000 113.200 C 236.660 112.583,237.200 111.863,237.200 111.600 C 237.200 111.337,237.740 110.617,238.400 110.000 C 239.060 109.383,239.600 108.663,239.600 108.400 C 239.600 108.137,240.140 107.417,240.800 106.800 C 241.460 106.183,242.000 105.463,242.000 105.200 C 242.000 104.937,242.540 104.217,243.200 103.600 C 243.860 102.983,244.400 102.263,244.400 102.000 C 244.400 101.737,244.940 101.017,245.600 100.400 C 246.260 99.783,246.800 99.063,246.800 98.800 C 246.800 98.537,247.340 97.817,248.000 97.200 C 248.660 96.583,249.200 95.867,249.200 95.608 C 249.200 95.349,249.920 94.446,250.800 93.600 C 251.680 92.754,252.400 91.851,252.400 91.592 C 252.400 91.333,252.940 90.617,253.600 90.000 C 254.260 89.383,254.800 88.663,254.800 88.400 C 254.800 88.137,255.340 87.417,256.000 86.800 C 256.660 86.183,257.200 85.463,257.200 85.200 C 257.200 84.937,257.740 84.217,258.400 83.600 C 259.060 82.983,259.600 82.263,259.600 82.000 C 259.600 81.737,260.140 81.017,260.800 80.400 C 261.460 79.783,262.000 79.063,262.000 78.800 C 262.000 78.537,262.540 77.817,263.200 77.200 C 263.860 76.583,264.400 75.863,264.400 75.600 C 264.400 75.337,264.940 74.617,265.600 74.000 C 266.260 73.383,266.800 72.663,266.800 72.400 C 266.800 72.137,267.340 71.417,268.000 70.800 C 268.660 70.183,269.200 69.463,269.200 69.200 C 269.200 68.937,269.740 68.217,270.400 67.600 C 271.060 66.983,271.600 66.263,271.600 66.000 C 271.600 65.737,272.140 65.017,272.800 64.400 C 273.460 63.783,274.000 63.063,274.000 62.800 C 274.000 62.537,274.540 61.817,275.200 61.200 C 275.860 60.583,276.400 59.791,276.400 59.440 C 276.400 59.088,276.580 58.800,276.800 58.800 C 277.020 58.800,277.200 58.440,277.200 58.000 C 277.200 57.560,277.380 57.200,277.600 57.200 C 277.820 57.200,278.000 56.300,278.000 55.200 C 278.000 54.100,277.820 53.200,277.600 53.200 C 277.380 53.200,277.200 52.922,277.200 52.582 C 277.200 50.953,275.374 49.999,272.318 50.030 L 269.400 50.060 267.300 52.222 M190.000 60.000 C 190.000 60.220,189.280 60.400,188.400 60.400 L 186.800 60.400 186.800 69.200 C 186.800 74.800,186.945 78.000,187.200 78.000 C 187.420 78.000,187.600 78.360,187.600 78.800 C 187.600 79.552,187.867 79.600,192.000 79.600 C 194.667 79.600,196.400 79.442,196.400 79.200 C 196.400 78.978,197.467 78.800,198.800 78.800 L 201.200 78.800 201.200 77.200 L 201.200 75.600 196.000 75.600 L 190.800 75.600 190.800 73.600 L 190.800 71.600 194.629 71.600 C 198.987 71.600,199.600 71.283,199.600 69.029 L 199.600 67.600 195.200 67.600 L 190.800 67.600 190.800 65.600 L 190.800 63.600 195.029 63.600 C 199.544 63.600,200.400 63.281,200.400 61.600 C 200.400 59.888,199.568 59.600,194.629 59.600 C 191.810 59.600,190.000 59.756,190.000 60.000 M210.000 61.200 C 210.000 61.640,209.820 62.000,209.600 62.000 C 209.378 62.000,209.200 63.067,209.200 64.400 C 209.200 65.733,209.022 66.800,208.800 66.800 C 208.571 66.800,208.400 68.000,208.400 69.600 C 208.400 71.200,208.229 72.400,208.000 72.400 C 207.763 72.400,207.600 73.867,207.600 76.000 L 207.600 79.600 209.200 79.600 C 210.711 79.600,210.800 79.533,210.800 78.400 C 210.800 77.740,210.980 77.200,211.200 77.200 C 211.420 77.200,211.600 76.300,211.600 75.200 L 211.600 73.200 213.200 73.200 C 214.080 73.200,214.800 73.380,214.800 73.600 C 214.800 73.820,215.443 74.000,216.229 74.000 C 218.383 74.000,218.800 74.677,218.800 78.171 L 218.800 81.200 220.229 81.200 C 222.383 81.200,222.800 80.523,222.800 77.029 C 222.800 75.276,222.631 74.000,222.400 74.000 C 221.693 74.000,221.974 72.596,222.800 72.000 C 223.240 71.683,223.600 71.103,223.600 70.712 C 223.600 70.320,223.780 70.000,224.000 70.000 C 224.222 70.000,224.400 68.933,224.400 67.600 C 224.400 66.267,224.222 65.200,224.000 65.200 C 223.780 65.200,223.600 64.917,223.600 64.571 C 223.600 63.763,222.637 62.800,221.829 62.800 C 221.483 62.800,221.200 62.620,221.200 62.400 C 221.200 62.180,220.660 62.000,220.000 62.000 C 219.340 62.000,218.800 61.820,218.800 61.600 C 218.800 61.378,217.733 61.200,216.400 61.200 C 215.067 61.200,214.000 61.022,214.000 60.800 C 214.000 60.580,213.100 60.400,212.000 60.400 C 210.267 60.400,210.000 60.507,210.000 61.200 M174.000 61.600 C 174.000 61.820,173.640 62.000,173.200 62.000 C 172.578 62.000,172.400 62.267,172.400 63.200 C 172.400 63.860,172.580 64.400,172.800 64.400 C 173.020 64.400,173.200 65.300,173.200 66.400 C 173.200 67.500,173.380 68.400,173.600 68.400 C 173.820 68.400,174.000 69.120,174.000 70.000 C 174.000 70.880,174.180 71.600,174.400 71.600 C 174.620 71.600,174.800 72.140,174.800 72.800 C 174.800 74.381,174.681 74.342,172.400 72.000 C 171.329 70.900,170.252 70.000,170.007 70.000 C 169.762 70.000,168.319 68.740,166.800 67.200 C 163.865 64.224,161.660 63.483,160.171 64.971 C 159.525 65.618,159.386 68.400,160.000 68.400 C 160.220 68.400,160.400 69.120,160.400 70.000 C 160.400 70.880,160.580 71.600,160.800 71.600 C 161.020 71.600,161.200 72.500,161.200 73.600 C 161.200 74.700,161.380 75.600,161.600 75.600 C 161.820 75.600,162.000 76.320,162.000 77.200 C 162.000 78.080,162.180 78.800,162.400 78.800 C 162.620 78.800,162.800 79.520,162.800 80.400 C 162.800 81.280,162.980 82.000,163.200 82.000 C 163.420 82.000,163.600 82.360,163.600 82.800 C 163.600 83.467,163.867 83.600,165.200 83.600 L 166.800 83.600 166.800 81.200 C 166.800 79.867,166.622 78.800,166.400 78.800 C 166.180 78.800,166.000 77.900,166.000 76.800 C 166.000 75.700,165.820 74.800,165.600 74.800 C 165.380 74.800,165.200 74.095,165.200 73.233 C 165.200 72.342,164.984 71.590,164.700 71.488 C 164.425 71.390,164.326 71.174,164.480 71.008 C 164.634 70.842,165.658 71.627,166.754 72.753 C 167.851 73.879,168.948 74.800,169.193 74.800 C 169.438 74.800,170.881 76.060,172.400 77.600 C 173.919 79.140,175.440 80.400,175.781 80.400 C 176.121 80.400,176.400 80.580,176.400 80.800 C 176.400 81.020,176.760 81.200,177.200 81.200 C 177.640 81.200,178.000 81.020,178.000 80.800 C 178.000 80.580,178.360 80.400,178.800 80.400 C 179.524 80.400,179.600 80.133,179.600 77.600 C 179.600 76.000,179.429 74.800,179.200 74.800 C 178.980 74.800,178.800 74.080,178.800 73.200 C 178.800 72.320,178.620 71.600,178.400 71.600 C 178.180 71.600,178.000 70.700,178.000 69.600 C 178.000 68.500,177.820 67.600,177.600 67.600 C 177.380 67.600,177.200 66.880,177.200 66.000 C 177.200 65.120,177.020 64.400,176.800 64.400 C 176.580 64.400,176.400 63.937,176.400 63.371 C 176.400 62.806,176.143 62.086,175.829 61.771 C 175.173 61.116,174.000 61.006,174.000 61.600 M214.800 64.800 C 214.800 65.020,215.700 65.200,216.800 65.200 C 217.900 65.200,218.800 65.380,218.800 65.600 C 218.800 65.820,219.160 66.000,219.600 66.000 C 220.582 66.000,220.749 68.508,219.829 69.429 C 219.163 70.095,214.000 70.246,214.000 69.600 C 214.000 69.380,213.640 69.200,213.200 69.200 C 212.578 69.200,212.400 68.933,212.400 68.000 C 212.400 67.340,212.580 66.800,212.800 66.800 C 213.020 66.800,213.200 66.260,213.200 65.600 C 213.200 64.667,213.378 64.400,214.000 64.400 C 214.440 64.400,214.800 64.580,214.800 64.800 M146.800 71.200 C 146.800 72.300,146.980 73.200,147.200 73.200 C 147.420 73.200,147.600 73.740,147.600 74.400 C 147.600 75.060,147.780 75.600,148.000 75.600 C 148.220 75.600,148.400 75.960,148.400 76.400 C 148.400 76.840,148.580 77.200,148.800 77.200 C 149.020 77.200,149.200 77.560,149.200 78.000 C 149.200 78.440,149.380 78.800,149.600 78.800 C 149.820 78.800,150.000 79.160,150.000 79.600 C 150.000 80.040,150.180 80.400,150.400 80.400 C 150.620 80.400,150.800 80.580,150.800 80.800 C 150.800 81.020,150.440 81.200,150.000 81.200 C 149.560 81.200,149.200 81.020,149.200 80.800 C 149.200 80.580,148.880 80.400,148.488 80.400 C 148.097 80.400,147.517 80.040,147.200 79.600 C 146.883 79.160,146.303 78.800,145.912 78.800 C 145.520 78.800,145.200 78.620,145.200 78.400 C 145.200 78.180,144.880 78.000,144.488 78.000 C 144.097 78.000,143.517 77.640,143.200 77.200 C 142.883 76.760,142.303 76.400,141.912 76.400 C 141.520 76.400,141.200 76.220,141.200 76.000 C 141.200 75.780,140.840 75.600,140.400 75.600 C 139.960 75.600,139.600 75.420,139.600 75.200 C 139.600 74.980,139.240 74.800,138.800 74.800 C 138.360 74.800,138.000 74.620,138.000 74.400 C 138.000 74.180,137.640 74.000,137.200 74.000 C 136.760 74.000,136.400 74.180,136.400 74.400 C 136.400 74.620,136.040 74.800,135.600 74.800 C 134.907 74.800,134.800 75.067,134.800 76.800 C 134.800 77.900,134.980 78.800,135.200 78.800 C 135.420 78.800,135.600 79.340,135.600 80.000 C 135.600 80.660,135.780 81.200,136.000 81.200 C 136.220 81.200,136.400 81.560,136.400 82.000 C 136.400 82.440,136.580 82.800,136.800 82.800 C 137.020 82.800,137.200 83.160,137.200 83.600 C 137.200 84.040,137.380 84.400,137.600 84.400 C 137.820 84.400,138.000 84.760,138.000 85.200 C 138.000 85.640,138.180 86.000,138.400 86.000 C 138.620 86.000,138.800 86.360,138.800 86.800 C 138.800 87.240,138.980 87.600,139.200 87.600 C 139.420 87.600,139.600 87.960,139.600 88.400 C 139.600 88.840,139.780 89.200,140.000 89.200 C 140.220 89.200,140.400 89.658,140.400 90.218 C 140.400 92.144,142.698 93.759,143.829 92.629 C 144.478 91.980,144.623 88.400,144.000 88.400 C 143.780 88.400,143.600 88.040,143.600 87.600 C 143.600 87.160,143.420 86.800,143.200 86.800 C 142.980 86.800,142.800 86.440,142.800 86.000 C 142.800 85.560,142.620 85.200,142.400 85.200 C 142.180 85.200,142.000 84.840,142.000 84.400 C 142.000 83.960,141.820 83.600,141.600 83.600 C 141.380 83.600,141.200 83.240,141.200 82.800 C 141.200 82.360,141.020 82.000,140.800 82.000 C 140.580 82.000,140.400 81.640,140.400 81.200 C 140.400 80.760,140.580 80.400,140.800 80.400 C 141.020 80.400,141.200 80.580,141.200 80.800 C 141.200 81.020,141.560 81.200,142.000 81.200 C 142.440 81.200,142.800 81.380,142.800 81.600 C 142.800 81.820,143.120 82.000,143.512 82.000 C 143.903 82.000,144.483 82.360,144.800 82.800 C 145.117 83.240,145.697 83.600,146.088 83.600 C 146.480 83.600,146.800 83.780,146.800 84.000 C 146.800 84.220,147.120 84.400,147.512 84.400 C 147.903 84.400,148.483 84.760,148.800 85.200 C 149.117 85.640,149.697 86.000,150.088 86.000 C 150.480 86.000,150.800 86.180,150.800 86.400 C 150.800 86.620,151.160 86.800,151.600 86.800 C 152.040 86.800,152.400 86.980,152.400 87.200 C 152.400 87.814,155.182 87.675,155.829 87.029 C 156.478 86.380,156.623 82.800,156.000 82.800 C 155.780 82.800,155.600 82.440,155.600 82.000 C 155.600 81.560,155.420 81.200,155.200 81.200 C 154.980 81.200,154.800 80.840,154.800 80.400 C 154.800 79.960,154.620 79.600,154.400 79.600 C 154.180 79.600,154.000 79.240,154.000 78.800 C 154.000 78.360,153.820 78.000,153.600 78.000 C 153.380 78.000,153.200 77.460,153.200 76.800 C 153.200 76.140,153.020 75.600,152.800 75.600 C 152.580 75.600,152.400 75.240,152.400 74.800 C 152.400 74.360,152.220 74.000,152.000 74.000 C 151.780 74.000,151.600 73.640,151.600 73.200 C 151.600 72.760,151.420 72.400,151.200 72.400 C 150.980 72.400,150.800 72.040,150.800 71.600 C 150.800 71.160,150.620 70.800,150.400 70.800 C 150.180 70.800,150.000 70.440,150.000 70.000 C 150.000 69.333,149.733 69.200,148.400 69.200 L 146.800 69.200 146.800 71.200 M118.800 85.600 C 118.800 85.820,118.440 86.000,118.000 86.000 C 117.307 86.000,117.200 86.267,117.200 88.000 C 117.200 89.100,117.380 90.000,117.600 90.000 C 117.820 90.000,118.000 90.720,118.000 91.600 C 118.000 92.480,118.180 93.200,118.400 93.200 C 118.620 93.200,118.800 93.920,118.800 94.800 C 118.800 95.680,118.980 96.400,119.200 96.400 C 119.420 96.400,119.600 97.120,119.600 98.000 C 119.600 98.880,119.780 99.600,120.000 99.600 C 120.220 99.600,120.400 100.320,120.400 101.200 C 120.400 102.080,120.580 102.800,120.800 102.800 C 121.020 102.800,121.200 103.520,121.200 104.400 C 121.200 106.155,123.278 106.779,124.629 105.429 C 125.278 104.779,125.407 102.800,124.800 102.800 C 124.580 102.800,124.400 102.080,124.400 101.200 C 124.400 100.001,124.560 99.600,125.040 99.600 C 125.391 99.600,126.183 99.060,126.800 98.400 C 127.417 97.740,128.143 97.200,128.414 97.200 C 128.684 97.200,129.267 96.795,129.707 96.300 C 130.250 95.690,130.565 95.561,130.687 95.900 C 130.786 96.175,131.172 96.400,131.545 96.400 C 131.918 96.400,132.483 96.760,132.800 97.200 C 134.079 98.975,136.400 97.833,136.400 95.429 C 136.400 94.267,136.251 94.000,135.600 94.000 C 135.160 94.000,134.800 93.820,134.800 93.600 C 134.800 93.380,134.480 93.200,134.088 93.200 C 133.697 93.200,133.117 92.840,132.800 92.400 C 132.483 91.960,131.903 91.600,131.512 91.600 C 131.120 91.600,130.800 91.420,130.800 91.200 C 130.800 90.980,130.480 90.800,130.088 90.800 C 129.697 90.800,129.117 90.440,128.800 90.000 C 128.483 89.560,127.903 89.200,127.512 89.200 C 127.120 89.200,126.800 89.020,126.800 88.800 C 126.800 88.580,126.440 88.400,126.000 88.400 C 125.560 88.400,125.200 88.220,125.200 88.000 C 125.200 87.780,124.880 87.600,124.488 87.600 C 124.097 87.600,123.517 87.240,123.200 86.800 C 122.883 86.360,122.303 86.000,121.912 86.000 C 121.520 86.000,121.200 85.820,121.200 85.600 C 121.200 85.380,120.660 85.200,120.000 85.200 C 119.340 85.200,118.800 85.380,118.800 85.600 M122.800 91.200 C 122.800 91.420,123.120 91.600,123.512 91.600 C 123.903 91.600,124.483 91.960,124.800 92.400 C 125.117 92.840,125.697 93.200,126.088 93.200 C 126.480 93.200,126.800 93.380,126.800 93.600 C 126.800 93.820,126.512 94.000,126.160 94.000 C 125.809 94.000,125.017 94.540,124.400 95.200 C 122.948 96.754,122.800 96.717,122.800 94.800 C 122.800 93.920,122.620 93.200,122.400 93.200 C 122.180 93.200,122.000 92.660,122.000 92.000 C 122.000 91.340,122.180 90.800,122.400 90.800 C 122.620 90.800,122.800 90.980,122.800 91.200 M266.800 101.600 C 266.800 101.820,266.517 102.000,266.171 102.000 C 265.363 102.000,264.400 102.963,264.400 103.771 C 264.400 104.117,264.220 104.400,264.000 104.400 C 263.778 104.400,263.600 105.467,263.600 106.800 C 263.600 108.133,263.778 109.200,264.000 109.200 C 264.220 109.200,264.400 109.560,264.400 110.000 C 264.400 110.466,264.667 110.800,265.040 110.800 C 265.391 110.800,266.183 111.340,266.800 112.000 C 267.417 112.660,268.137 113.200,268.400 113.200 C 268.663 113.200,269.383 113.740,270.000 114.400 C 270.617 115.060,271.333 115.600,271.592 115.600 C 271.851 115.600,272.754 116.320,273.600 117.200 C 274.446 118.080,275.333 118.800,275.573 118.800 C 276.138 118.800,285.200 127.857,285.200 128.422 C 285.200 128.658,286.100 129.729,287.200 130.800 C 288.300 131.871,289.200 132.958,289.200 133.214 C 289.200 133.470,289.740 134.183,290.400 134.800 C 291.060 135.417,291.600 136.169,291.600 136.472 C 291.600 136.775,291.960 137.283,292.400 137.600 C 292.840 137.917,293.200 138.457,293.200 138.800 C 293.200 139.143,293.560 139.683,294.000 140.000 C 294.440 140.317,294.800 140.857,294.800 141.200 C 294.800 141.543,295.160 142.083,295.600 142.400 C 296.040 142.717,296.400 143.297,296.400 143.688 C 296.400 144.080,296.580 144.400,296.800 144.400 C 297.020 144.400,297.200 144.720,297.200 145.112 C 297.200 145.503,297.560 146.083,298.000 146.400 C 298.440 146.717,298.800 147.297,298.800 147.688 C 298.800 148.080,298.980 148.400,299.200 148.400 C 299.420 148.400,299.600 148.760,299.600 149.200 C 299.600 149.640,299.780 150.000,300.000 150.000 C 300.220 150.000,300.400 150.360,300.400 150.800 C 300.400 151.240,300.580 151.600,300.800 151.600 C 301.020 151.600,301.200 151.960,301.200 152.400 C 301.200 152.840,301.380 153.200,301.600 153.200 C 301.820 153.200,302.000 153.560,302.000 154.000 C 302.000 154.440,302.180 154.800,302.400 154.800 C 302.620 154.800,302.800 155.340,302.800 156.000 C 302.800 156.660,302.980 157.200,303.200 157.200 C 303.420 157.200,303.600 157.560,303.600 158.000 C 303.600 158.440,303.780 158.800,304.000 158.800 C 304.220 158.800,304.400 159.340,304.400 160.000 C 304.400 160.660,304.580 161.200,304.800 161.200 C 305.020 161.200,305.200 161.740,305.200 162.400 C 305.200 163.060,305.380 163.600,305.600 163.600 C 305.820 163.600,306.000 164.140,306.000 164.800 C 306.000 165.460,306.180 166.000,306.400 166.000 C 306.620 166.000,306.800 166.540,306.800 167.200 C 306.800 167.860,306.980 168.400,307.200 168.400 C 307.420 168.400,307.600 169.120,307.600 170.000 C 307.600 170.880,307.780 171.600,308.000 171.600 C 308.220 171.600,308.400 172.320,308.400 173.200 C 308.400 174.080,308.580 174.800,308.800 174.800 C 309.020 174.800,309.200 175.700,309.200 176.800 C 309.200 177.900,309.380 178.800,309.600 178.800 C 309.822 178.800,310.000 179.867,310.000 181.200 C 310.000 182.533,310.178 183.600,310.400 183.600 C 310.646 183.600,310.800 185.600,310.800 188.800 C 310.800 192.000,310.954 194.000,311.200 194.000 C 311.433 194.000,311.600 195.333,311.600 197.200 C 311.600 199.067,311.433 200.400,311.200 200.400 C 310.956 200.400,310.800 202.267,310.800 205.200 C 310.800 208.133,310.644 210.000,310.400 210.000 C 310.178 210.000,310.000 211.067,310.000 212.400 C 310.000 213.733,309.822 214.800,309.600 214.800 C 309.380 214.800,309.200 215.700,309.200 216.800 C 309.200 217.900,309.020 218.800,308.800 218.800 C 308.580 218.800,308.400 219.700,308.400 220.800 C 308.400 221.900,308.220 222.800,308.000 222.800 C 307.780 222.800,307.600 223.340,307.600 224.000 C 307.600 224.660,307.420 225.200,307.200 225.200 C 306.980 225.200,306.800 225.740,306.800 226.400 C 306.800 227.060,306.620 227.600,306.400 227.600 C 306.180 227.600,306.000 228.140,306.000 228.800 C 306.000 229.460,305.820 230.000,305.600 230.000 C 305.380 230.000,305.200 230.540,305.200 231.200 C 305.200 231.860,305.020 232.400,304.800 232.400 C 304.580 232.400,304.400 232.940,304.400 233.600 C 304.400 234.260,304.220 234.800,304.000 234.800 C 303.780 234.800,303.600 235.160,303.600 235.600 C 303.600 236.040,303.420 236.400,303.200 236.400 C 302.980 236.400,302.800 236.760,302.800 237.200 C 302.800 237.640,302.620 238.000,302.400 238.000 C 302.180 238.000,302.000 238.540,302.000 239.200 C 302.000 239.860,301.820 240.400,301.600 240.400 C 301.380 240.400,301.200 240.760,301.200 241.200 C 301.200 241.640,301.020 242.000,300.800 242.000 C 300.580 242.000,300.400 242.360,300.400 242.800 C 300.400 243.240,300.220 243.600,300.000 243.600 C 299.780 243.600,299.600 243.960,299.600 244.400 C 299.600 244.840,299.420 245.200,299.200 245.200 C 298.980 245.200,298.800 245.560,298.800 246.000 C 298.800 246.440,298.620 246.800,298.400 246.800 C 298.180 246.800,298.000 247.160,298.000 247.600 C 298.000 248.040,297.820 248.400,297.600 248.400 C 297.371 248.400,297.200 249.600,297.200 251.200 C 297.200 252.800,297.371 254.000,297.600 254.000 C 297.822 254.000,298.000 255.067,298.000 256.400 C 298.000 257.733,298.178 258.800,298.400 258.800 C 298.629 258.800,298.800 260.000,298.800 261.600 C 298.800 263.200,298.971 264.400,299.200 264.400 C 299.429 264.400,299.600 265.600,299.600 267.200 C 299.600 268.800,299.771 270.000,300.000 270.000 C 300.229 270.000,300.400 271.200,300.400 272.800 C 300.400 274.400,300.571 275.600,300.800 275.600 C 301.029 275.600,301.200 276.800,301.200 278.400 C 301.200 280.000,301.371 281.200,301.600 281.200 C 301.829 281.200,302.000 282.400,302.000 284.000 C 302.000 285.600,302.171 286.800,302.400 286.800 C 302.622 286.800,302.800 287.867,302.800 289.200 C 302.800 290.533,302.978 291.600,303.200 291.600 C 303.429 291.600,303.600 292.800,303.600 294.400 C 303.600 296.000,303.771 297.200,304.000 297.200 C 304.229 297.200,304.400 298.400,304.400 300.000 C 304.400 301.600,304.571 302.800,304.800 302.800 C 305.029 302.800,305.200 304.000,305.200 305.600 C 305.200 307.200,305.371 308.400,305.600 308.400 C 305.829 308.400,306.000 309.600,306.000 311.200 C 306.000 312.800,306.171 314.000,306.400 314.000 C 306.622 314.000,306.800 315.056,306.800 316.367 C 306.800 317.898,306.976 318.796,307.300 318.912 C 307.591 319.016,307.652 319.239,307.445 319.445 C 307.239 319.652,307.016 319.591,306.912 319.300 C 306.814 319.025,306.388 318.800,305.967 318.800 C 305.545 318.800,305.200 318.620,305.200 318.400 C 305.200 318.180,304.840 318.000,304.400 318.000 C 303.960 318.000,303.600 317.820,303.600 317.600 C 303.600 317.380,303.240 317.200,302.800 317.200 C 302.360 317.200,302.000 317.020,302.000 316.800 C 302.000 316.580,301.640 316.400,301.200 316.400 C 300.760 316.400,300.400 316.220,300.400 316.000 C 300.400 315.780,299.860 315.600,299.200 315.600 C 298.540 315.600,298.000 315.420,298.000 315.200 C 298.000 314.980,297.640 314.800,297.200 314.800 C 296.760 314.800,296.400 314.620,296.400 314.400 C 296.400 314.180,296.040 314.000,295.600 314.000 C 295.160 314.000,294.800 313.820,294.800 313.600 C 294.800 313.380,294.440 313.200,294.000 313.200 C 293.560 313.200,293.200 313.020,293.200 312.800 C 293.200 312.580,292.660 312.400,292.000 312.400 C 291.340 312.400,290.800 312.220,290.800 312.000 C 290.800 311.780,290.440 311.600,290.000 311.600 C 289.560 311.600,289.200 311.420,289.200 311.200 C 289.200 310.980,288.840 310.800,288.400 310.800 C 287.960 310.800,287.600 310.620,287.600 310.400 C 287.600 310.180,287.240 310.000,286.800 310.000 C 286.360 310.000,286.000 309.820,286.000 309.600 C 286.000 309.380,285.640 309.200,285.200 309.200 C 284.760 309.200,284.400 309.020,284.400 308.800 C 284.400 308.580,283.860 308.400,283.200 308.400 C 282.540 308.400,282.000 308.220,282.000 308.000 C 282.000 307.780,281.640 307.600,281.200 307.600 C 280.760 307.600,280.400 307.420,280.400 307.200 C 280.400 306.980,280.040 306.800,279.600 306.800 C 279.160 306.800,278.800 306.620,278.800 306.400 C 278.800 306.180,278.440 306.000,278.000 306.000 C 277.560 306.000,277.200 305.820,277.200 305.600 C 277.200 305.380,276.660 305.200,276.000 305.200 C 275.340 305.200,274.800 305.020,274.800 304.800 C 274.800 304.580,274.440 304.400,274.000 304.400 C 273.560 304.400,273.200 304.220,273.200 304.000 C 273.200 303.780,272.840 303.600,272.400 303.600 C 271.960 303.600,271.600 303.420,271.600 303.200 C 271.600 302.980,271.240 302.800,270.800 302.800 C 270.360 302.800,270.000 302.620,270.000 302.400 C 270.000 302.180,269.460 302.000,268.800 302.000 C 268.140 302.000,267.600 301.820,267.600 301.600 C 267.600 301.380,267.240 301.200,266.800 301.200 C 266.360 301.200,266.000 301.020,266.000 300.800 C 266.000 300.580,265.640 300.400,265.200 300.400 C 264.760 300.400,264.400 300.220,264.400 300.000 C 264.400 299.780,264.040 299.600,263.600 299.600 C 263.160 299.600,262.800 299.420,262.800 299.200 C 262.800 298.980,262.440 298.800,262.000 298.800 C 261.560 298.800,261.200 298.620,261.200 298.400 C 261.200 298.180,260.660 298.000,260.000 298.000 C 259.340 298.000,258.800 297.820,258.800 297.600 C 258.800 297.380,258.440 297.200,258.000 297.200 C 257.560 297.200,257.200 297.020,257.200 296.800 C 257.200 296.580,256.840 296.400,256.400 296.400 C 255.960 296.400,255.600 296.220,255.600 296.000 C 255.600 295.780,255.240 295.600,254.800 295.600 C 254.360 295.600,254.000 295.420,254.000 295.200 C 254.000 294.980,253.460 294.800,252.800 294.800 C 252.140 294.800,251.600 294.620,251.600 294.400 C 251.600 294.180,251.240 294.000,250.800 294.000 C 250.360 294.000,250.000 293.820,250.000 293.600 C 250.000 293.367,248.667 293.200,246.800 293.200 C 244.933 293.200,243.600 293.367,243.600 293.600 C 243.600 293.820,243.240 294.000,242.800 294.000 C 242.360 294.000,242.000 294.180,242.000 294.400 C 242.000 294.620,241.460 294.800,240.800 294.800 C 240.140 294.800,239.600 294.980,239.600 295.200 C 239.600 295.420,238.880 295.600,238.000 295.600 C 237.120 295.600,236.400 295.780,236.400 296.000 C 236.400 296.220,235.860 296.400,235.200 296.400 C 234.540 296.400,234.000 296.580,234.000 296.800 C 234.000 297.020,233.280 297.200,232.400 297.200 C 231.520 297.200,230.800 297.380,230.800 297.600 C 230.800 297.820,229.900 298.000,228.800 298.000 C 227.700 298.000,226.800 298.180,226.800 298.400 C 226.800 298.622,225.733 298.800,224.400 298.800 C 223.067 298.800,222.000 298.978,222.000 299.200 C 222.000 299.442,220.267 299.600,217.600 299.600 C 214.933 299.600,213.200 299.758,213.200 300.000 C 213.200 300.229,212.000 300.400,210.400 300.400 C 208.800 300.400,207.600 300.229,207.600 300.000 C 207.600 299.752,205.467 299.600,202.000 299.600 C 198.533 299.600,196.400 299.448,196.400 299.200 C 196.400 298.967,195.067 298.800,193.200 298.800 C 191.333 298.800,190.000 298.633,190.000 298.400 C 190.000 298.180,189.100 298.000,188.000 298.000 C 186.900 298.000,186.000 297.820,186.000 297.600 C 186.000 297.380,185.280 297.200,184.400 297.200 C 183.520 297.200,182.800 297.020,182.800 296.800 C 182.800 296.580,182.080 296.400,181.200 296.400 C 180.320 296.400,179.600 296.220,179.600 296.000 C 179.600 295.780,179.060 295.600,178.400 295.600 C 176.732 295.600,176.732 293.958,178.400 292.400 C 179.060 291.783,179.600 291.063,179.600 290.800 C 179.600 290.537,180.140 289.817,180.800 289.200 C 181.460 288.583,182.000 287.863,182.000 287.600 C 182.000 287.337,182.540 286.617,183.200 286.000 C 183.860 285.383,184.400 284.667,184.400 284.408 C 184.400 284.149,185.120 283.246,186.000 282.400 C 186.880 281.554,187.600 280.651,187.600 280.392 C 187.600 280.133,188.140 279.417,188.800 278.800 C 189.460 278.183,190.000 277.463,190.000 277.200 C 190.000 276.937,190.540 276.217,191.200 275.600 C 191.860 274.983,192.400 274.263,192.400 274.000 C 192.400 273.737,192.940 273.017,193.600 272.400 C 194.260 271.783,194.800 271.063,194.800 270.800 C 194.800 270.537,195.340 269.817,196.000 269.200 C 196.660 268.583,197.200 267.863,197.200 267.600 C 197.200 267.337,197.740 266.617,198.400 266.000 C 199.060 265.383,199.600 264.668,199.600 264.411 C 199.600 263.740,200.634 262.800,201.371 262.800 C 201.717 262.800,202.000 262.980,202.000 263.200 C 202.000 263.420,202.720 263.600,203.600 263.600 C 204.480 263.600,205.200 263.780,205.200 264.000 C 205.200 264.244,207.067 264.400,210.000 264.400 C 212.933 264.400,214.800 264.244,214.800 264.000 C 214.800 263.780,215.520 263.600,216.400 263.600 C 217.280 263.600,218.000 263.420,218.000 263.200 C 218.000 262.980,218.500 262.800,219.112 262.800 C 219.765 262.800,220.461 262.470,220.800 262.000 C 221.117 261.560,221.697 261.200,222.088 261.200 C 222.480 261.200,222.800 261.020,222.800 260.800 C 222.800 260.580,223.073 260.400,223.406 260.400 C 224.100 260.400,230.000 254.644,230.000 253.967 C 230.000 253.722,230.540 253.017,231.200 252.400 C 231.860 251.783,232.400 251.063,232.400 250.800 C 232.400 250.537,232.940 249.817,233.600 249.200 C 234.260 248.583,234.800 247.863,234.800 247.600 C 234.800 247.337,235.340 246.617,236.000 246.000 C 236.660 245.383,237.200 244.663,237.200 244.400 C 237.200 244.137,237.740 243.417,238.400 242.800 C 239.060 242.183,239.600 241.463,239.600 241.200 C 239.600 240.937,240.140 240.217,240.800 239.600 C 241.460 238.983,242.000 238.263,242.000 238.000 C 242.000 237.737,242.540 237.017,243.200 236.400 C 243.860 235.783,244.400 235.063,244.400 234.800 C 244.400 234.537,244.940 233.817,245.600 233.200 C 246.260 232.583,246.800 231.867,246.800 231.608 C 246.800 231.349,247.520 230.446,248.400 229.600 C 249.280 228.754,250.000 227.851,250.000 227.592 C 250.000 227.333,250.540 226.617,251.200 226.000 C 251.860 225.383,252.400 224.663,252.400 224.400 C 252.400 224.137,252.940 223.417,253.600 222.800 C 254.260 222.183,254.800 221.463,254.800 221.200 C 254.800 220.937,255.340 220.217,256.000 219.600 C 256.660 218.983,257.200 218.263,257.200 218.000 C 257.200 217.737,257.740 217.017,258.400 216.400 C 259.060 215.783,259.600 214.991,259.600 214.640 C 259.600 214.288,259.780 214.000,260.000 214.000 C 260.220 214.000,260.400 213.640,260.400 213.200 C 260.400 212.760,260.580 212.400,260.800 212.400 C 261.020 212.400,261.200 211.680,261.200 210.800 C 261.200 209.920,261.020 209.200,260.800 209.200 C 260.580 209.200,260.400 208.917,260.400 208.571 C 260.400 207.627,259.386 206.800,258.229 206.800 C 257.663 206.800,257.200 206.620,257.200 206.400 C 257.200 206.180,256.840 206.000,256.400 206.000 C 255.960 206.000,255.600 206.180,255.600 206.400 C 255.600 206.620,255.144 206.800,254.587 206.800 C 253.554 206.800,250.800 209.146,250.800 210.026 C 250.800 210.275,250.260 210.983,249.600 211.600 C 248.940 212.217,248.400 212.937,248.400 213.200 C 248.400 213.463,247.860 214.183,247.200 214.800 C 246.540 215.417,246.000 216.137,246.000 216.400 C 246.000 216.663,245.460 217.383,244.800 218.000 C 244.140 218.617,243.600 219.337,243.600 219.600 C 243.600 219.863,243.060 220.583,242.400 221.200 C 241.740 221.817,241.200 222.537,241.200 222.800 C 241.200 223.063,240.660 223.783,240.000 224.400 C 239.340 225.017,238.800 225.737,238.800 226.000 C 238.800 226.263,238.260 226.983,237.600 227.600 C 236.940 228.217,236.400 228.933,236.400 229.192 C 236.400 229.451,235.680 230.354,234.800 231.200 C 233.920 232.046,233.200 233.021,233.200 233.369 C 233.200 233.716,233.020 234.000,232.800 234.000 C 232.580 234.000,232.400 233.460,232.400 232.800 C 232.400 232.140,232.220 231.600,232.000 231.600 C 231.780 231.600,231.600 231.240,231.600 230.800 C 231.600 230.360,231.420 230.000,231.200 230.000 C 230.980 230.000,230.800 229.680,230.800 229.288 C 230.800 228.897,230.440 228.317,230.000 228.000 C 229.560 227.683,229.200 227.103,229.200 226.712 C 229.200 226.320,229.020 226.000,228.800 226.000 C 228.093 226.000,228.374 224.596,229.200 224.000 C 229.640 223.683,230.000 223.179,230.000 222.880 C 230.000 222.582,230.720 221.646,231.600 220.800 C 232.480 219.954,233.200 219.051,233.200 218.792 C 233.200 218.533,233.740 217.817,234.400 217.200 C 235.060 216.583,235.600 215.863,235.600 215.600 C 235.600 215.337,236.140 214.617,236.800 214.000 C 237.460 213.383,238.000 212.663,238.000 212.400 C 238.000 212.137,238.540 211.417,239.200 210.800 C 239.860 210.183,240.400 209.463,240.400 209.200 C 240.400 208.937,240.940 208.217,241.600 207.600 C 242.260 206.983,242.800 206.263,242.800 206.000 C 242.800 205.737,243.340 205.017,244.000 204.400 C 244.660 203.783,245.200 202.991,245.200 202.640 C 245.200 202.288,245.380 202.000,245.600 202.000 C 246.756 202.000,246.006 197.579,244.613 196.187 C 243.230 194.804,239.600 194.089,239.600 195.200 C 239.600 195.420,239.322 195.600,238.982 195.600 C 238.264 195.600,236.400 197.348,236.400 198.021 C 236.400 198.273,235.860 198.983,235.200 199.600 C 234.540 200.217,234.000 200.937,234.000 201.200 C 234.000 201.463,233.460 202.183,232.800 202.800 C 232.140 203.417,231.600 204.137,231.600 204.400 C 231.600 204.663,231.060 205.383,230.400 206.000 C 229.740 206.617,229.200 207.337,229.200 207.600 C 229.200 207.863,228.660 208.583,228.000 209.200 C 227.340 209.817,226.800 210.537,226.800 210.800 C 226.800 211.063,226.260 211.783,225.600 212.400 C 224.940 213.017,224.400 213.737,224.400 214.000 C 224.400 214.263,223.860 214.983,223.200 215.600 C 222.540 216.217,222.000 216.927,222.000 217.179 C 222.000 217.914,219.884 219.852,219.696 219.289 C 219.607 219.020,219.188 218.800,218.767 218.800 C 218.345 218.800,218.000 218.620,218.000 218.400 C 218.000 218.180,217.100 218.000,216.000 218.000 C 214.900 218.000,214.000 217.820,214.000 217.600 C 214.000 217.380,213.280 217.200,212.400 217.200 C 211.520 217.200,210.800 217.096,210.800 216.969 C 210.800 216.841,211.520 216.046,212.400 215.200 C 213.280 214.354,214.000 213.451,214.000 213.192 C 214.000 212.933,214.540 212.217,215.200 211.600 C 215.860 210.983,216.400 210.263,216.400 210.000 C 216.400 209.737,216.940 209.017,217.600 208.400 C 218.260 207.783,218.800 207.063,218.800 206.800 C 218.800 206.537,219.340 205.817,220.000 205.200 C 220.660 204.583,221.200 203.863,221.200 203.600 C 221.200 203.337,221.740 202.617,222.400 202.000 C 223.060 201.383,223.600 200.663,223.600 200.400 C 223.600 200.137,224.140 199.417,224.800 198.800 C 225.460 198.183,226.000 197.463,226.000 197.200 C 226.000 196.937,226.540 196.217,227.200 195.600 C 227.860 194.983,228.400 194.263,228.400 194.000 C 228.400 193.737,228.940 193.017,229.600 192.400 C 230.830 191.251,231.487 186.000,230.400 186.000 C 230.180 186.000,230.000 185.640,230.000 185.200 C 230.000 184.667,229.733 184.400,229.200 184.400 C 228.760 184.400,228.400 184.220,228.400 184.000 C 228.400 183.780,227.500 183.600,226.400 183.600 C 225.300 183.600,224.400 183.780,224.400 184.000 C 224.400 184.220,224.117 184.400,223.771 184.400 C 223.034 184.400,222.000 185.340,222.000 186.011 C 222.000 186.268,221.460 186.983,220.800 187.600 C 220.140 188.217,219.600 188.937,219.600 189.200 C 219.600 189.463,219.060 190.183,218.400 190.800 C 217.740 191.417,217.200 192.137,217.200 192.400 C 217.200 192.663,216.660 193.383,216.000 194.000 C 215.340 194.617,214.800 195.337,214.800 195.600 C 214.800 195.863,214.260 196.583,213.600 197.200 C 212.940 197.817,212.400 198.533,212.400 198.792 C 212.400 199.051,211.680 199.954,210.800 200.800 C 209.920 201.646,209.200 202.549,209.200 202.808 C 209.200 203.067,208.660 203.783,208.000 204.400 C 207.340 205.017,206.800 205.737,206.800 206.000 C 206.800 206.263,206.260 206.983,205.600 207.600 C 204.940 208.217,204.400 208.937,204.400 209.200 C 204.400 209.463,203.860 210.183,203.200 210.800 C 202.540 211.417,202.000 212.137,202.000 212.400 C 202.000 212.663,201.460 213.383,200.800 214.000 C 200.140 214.617,199.600 215.337,199.600 215.600 C 199.600 215.863,199.060 216.583,198.400 217.200 C 197.740 217.817,197.200 218.537,197.200 218.800 C 197.200 219.063,196.660 219.783,196.000 220.400 C 195.340 221.017,194.800 221.737,194.800 222.000 C 194.800 222.263,194.260 222.983,193.600 223.600 C 192.940 224.217,192.400 224.937,192.400 225.200 C 192.400 225.463,191.860 226.183,191.200 226.800 C 190.540 227.417,190.000 228.209,190.000 228.560 C 190.000 228.912,189.820 229.200,189.600 229.200 C 189.380 229.200,189.200 229.560,189.200 230.000 C 189.200 230.440,189.020 230.800,188.800 230.800 C 188.580 230.800,188.400 231.340,188.400 232.000 C 188.400 232.660,188.220 233.200,188.000 233.200 C 187.780 233.200,187.600 233.740,187.600 234.400 C 187.600 235.060,187.420 235.600,187.200 235.600 C 186.954 235.600,186.800 237.600,186.800 240.800 C 186.800 244.000,186.954 246.000,187.200 246.000 C 187.420 246.000,187.600 246.540,187.600 247.200 C 187.600 247.860,187.780 248.400,188.000 248.400 C 188.220 248.400,188.400 248.940,188.400 249.600 C 188.400 250.260,188.580 250.800,188.800 250.800 C 189.020 250.800,189.200 251.160,189.200 251.600 C 189.200 252.040,189.380 252.400,189.600 252.400 C 189.820 252.400,190.000 252.720,190.000 253.112 C 190.000 253.503,190.360 254.083,190.800 254.400 C 191.626 254.996,191.907 256.400,191.200 256.400 C 190.980 256.400,190.800 256.688,190.800 257.040 C 190.800 257.391,190.260 258.183,189.600 258.800 C 188.940 259.417,188.400 260.137,188.400 260.400 C 188.400 260.663,187.860 261.383,187.200 262.000 C 186.540 262.617,186.000 263.337,186.000 263.600 C 186.000 263.863,185.460 264.583,184.800 265.200 C 184.140 265.817,183.600 266.537,183.600 266.800 C 183.600 267.063,183.060 267.783,182.400 268.400 C 181.740 269.017,181.200 269.737,181.200 270.000 C 181.200 270.263,180.655 270.988,179.990 271.609 C 179.324 272.231,178.829 272.906,178.890 273.109 C 178.950 273.312,178.415 274.027,177.700 274.699 C 176.985 275.371,176.400 276.137,176.400 276.400 C 176.400 276.663,175.860 277.383,175.200 278.000 C 174.540 278.617,174.000 279.337,174.000 279.600 C 174.000 279.863,173.460 280.583,172.800 281.200 C 172.140 281.817,171.600 282.533,171.600 282.792 C 171.600 283.051,170.880 283.954,170.000 284.800 C 169.120 285.646,168.400 286.549,168.400 286.808 C 168.400 287.067,167.860 287.783,167.200 288.400 C 166.540 289.017,166.000 289.730,166.000 289.986 C 166.000 290.242,165.100 291.329,164.000 292.400 C 162.900 293.471,162.000 294.630,162.000 294.974 C 162.000 295.318,161.820 295.600,161.600 295.600 C 161.380 295.600,161.200 295.888,161.200 296.240 C 161.200 296.591,160.660 297.383,160.000 298.000 C 159.340 298.617,158.800 299.337,158.800 299.600 C 158.800 299.863,158.260 300.583,157.600 301.200 C 156.940 301.817,156.400 302.537,156.400 302.800 C 156.400 303.063,155.860 303.783,155.200 304.400 C 154.540 305.017,154.000 305.737,154.000 306.000 C 154.000 306.263,153.460 306.983,152.800 307.600 C 152.140 308.217,151.600 308.937,151.600 309.200 C 151.600 309.463,151.060 310.183,150.400 310.800 C 149.740 311.417,149.200 312.137,149.200 312.400 C 149.200 312.663,148.660 313.383,148.000 314.000 C 147.340 314.617,146.800 315.337,146.800 315.600 C 146.800 315.863,146.260 316.583,145.600 317.200 C 144.940 317.817,144.400 318.537,144.400 318.800 C 144.400 319.063,143.860 319.783,143.200 320.400 C 142.540 321.017,142.000 321.737,142.000 322.000 C 142.000 322.263,141.460 322.983,140.800 323.600 C 140.140 324.217,139.600 324.937,139.600 325.200 C 139.600 325.463,139.060 326.183,138.400 326.800 C 137.740 327.417,137.200 328.137,137.200 328.400 C 137.200 328.663,136.660 329.383,136.000 330.000 C 135.340 330.617,134.800 331.337,134.800 331.600 C 134.800 331.863,134.260 332.583,133.600 333.200 C 132.940 333.817,132.400 334.537,132.400 334.800 C 132.400 335.063,131.860 335.783,131.200 336.400 C 130.540 337.017,130.000 337.737,130.000 338.000 C 130.000 338.263,129.460 338.983,128.800 339.600 C 128.140 340.217,127.600 340.969,127.600 341.272 C 127.600 341.575,127.240 342.083,126.800 342.400 C 126.125 342.886,126.000 343.435,126.000 345.906 C 126.000 349.990,126.793 350.800,130.791 350.800 L 133.617 350.800 135.809 348.609 C 137.014 347.403,138.000 346.216,138.000 345.969 C 138.000 345.723,138.540 345.017,139.200 344.400 C 139.860 343.783,140.400 343.063,140.400 342.800 C 140.400 342.537,140.940 341.817,141.600 341.200 C 142.260 340.583,142.800 339.863,142.800 339.600 C 142.800 339.337,143.340 338.617,144.000 338.000 C 144.660 337.383,145.200 336.663,145.200 336.400 C 145.200 336.137,145.740 335.417,146.400 334.800 C 147.060 334.183,147.600 333.463,147.600 333.200 C 147.600 332.937,148.140 332.217,148.800 331.600 C 149.460 330.983,150.000 330.267,150.000 330.008 C 150.000 329.749,150.720 328.846,151.600 328.000 C 152.480 327.154,153.200 326.251,153.200 325.992 C 153.200 325.733,153.740 325.017,154.400 324.400 C 155.060 323.783,155.600 323.063,155.600 322.800 C 155.600 322.537,156.140 321.817,156.800 321.200 C 157.460 320.583,158.000 319.863,158.000 319.600 C 158.000 319.337,158.540 318.617,159.200 318.000 C 159.860 317.383,160.400 316.663,160.400 316.400 C 160.400 316.137,160.940 315.417,161.600 314.800 C 162.260 314.183,162.800 313.463,162.800 313.200 C 162.800 312.937,163.340 312.217,164.000 311.600 C 164.660 310.983,165.200 310.263,165.200 310.000 C 165.200 309.737,165.740 309.017,166.400 308.400 C 167.060 307.783,167.600 307.073,167.600 306.821 C 167.600 306.148,169.464 304.400,170.182 304.400 C 170.522 304.400,170.800 304.580,170.800 304.800 C 170.800 305.020,171.340 305.200,172.000 305.200 C 172.660 305.200,173.200 305.380,173.200 305.600 C 173.200 305.820,173.740 306.000,174.400 306.000 C 175.060 306.000,175.600 306.180,175.600 306.400 C 175.600 306.620,176.140 306.800,176.800 306.800 C 177.460 306.800,178.000 306.980,178.000 307.200 C 178.000 307.420,178.720 307.600,179.600 307.600 C 180.480 307.600,181.200 307.780,181.200 308.000 C 181.200 308.220,182.100 308.400,183.200 308.400 C 184.300 308.400,185.200 308.580,185.200 308.800 C 185.200 309.022,186.267 309.200,187.600 309.200 C 188.933 309.200,190.000 309.378,190.000 309.600 C 190.000 309.833,191.333 310.000,193.200 310.000 C 195.067 310.000,196.400 310.167,196.400 310.400 C 196.400 310.657,200.533 310.800,208.000 310.800 C 215.467 310.800,219.600 310.657,219.600 310.400 C 219.600 310.167,220.933 310.000,222.800 310.000 C 224.667 310.000,226.000 309.833,226.000 309.600 C 226.000 309.378,227.067 309.200,228.400 309.200 C 229.733 309.200,230.800 309.022,230.800 308.800 C 230.800 308.580,231.520 308.400,232.400 308.400 C 233.280 308.400,234.000 308.220,234.000 308.000 C 234.000 307.780,234.720 307.600,235.600 307.600 C 236.480 307.600,237.200 307.420,237.200 307.200 C 237.200 306.980,237.920 306.800,238.800 306.800 C 239.680 306.800,240.400 306.620,240.400 306.400 C 240.400 306.180,240.940 306.000,241.600 306.000 C 242.260 306.000,242.800 305.820,242.800 305.600 C 242.800 305.380,243.340 305.200,244.000 305.200 C 244.660 305.200,245.200 305.020,245.200 304.800 C 245.200 304.580,245.740 304.400,246.400 304.400 C 247.060 304.400,247.600 304.580,247.600 304.800 C 247.600 305.020,248.140 305.200,248.800 305.200 C 249.460 305.200,250.000 305.380,250.000 305.600 C 250.000 305.820,250.360 306.000,250.800 306.000 C 251.240 306.000,251.600 306.180,251.600 306.400 C 251.600 306.620,251.960 306.800,252.400 306.800 C 252.840 306.800,253.200 306.980,253.200 307.200 C 253.200 307.420,253.560 307.600,254.000 307.600 C 254.440 307.600,254.800 307.780,254.800 308.000 C 254.800 308.220,255.160 308.400,255.600 308.400 C 256.040 308.400,256.400 308.580,256.400 308.800 C 256.400 309.020,256.940 309.200,257.600 309.200 C 258.260 309.200,258.800 309.380,258.800 309.600 C 258.800 309.820,259.160 310.000,259.600 310.000 C 260.040 310.000,260.400 310.180,260.400 310.400 C 260.400 310.620,260.760 310.800,261.200 310.800 C 261.640 310.800,262.000 310.980,262.000 311.200 C 262.000 311.420,262.360 311.600,262.800 311.600 C 263.240 311.600,263.600 311.780,263.600 312.000 C 263.600 312.220,264.140 312.400,264.800 312.400 C 265.460 312.400,266.000 312.580,266.000 312.800 C 266.000 313.020,266.360 313.200,266.800 313.200 C 267.240 313.200,267.600 313.380,267.600 313.600 C 267.600 313.820,267.960 314.000,268.400 314.000 C 268.840 314.000,269.200 314.180,269.200 314.400 C 269.200 314.620,269.560 314.800,270.000 314.800 C 270.440 314.800,270.800 314.980,270.800 315.200 C 270.800 315.420,271.160 315.600,271.600 315.600 C 272.040 315.600,272.400 315.780,272.400 316.000 C 272.400 316.220,272.940 316.400,273.600 316.400 C 274.260 316.400,274.800 316.580,274.800 316.800 C 274.800 317.020,275.160 317.200,275.600 317.200 C 276.040 317.200,276.400 317.380,276.400 317.600 C 276.400 317.820,276.760 318.000,277.200 318.000 C 277.640 318.000,278.000 318.180,278.000 318.400 C 278.000 318.620,278.360 318.800,278.800 318.800 C 279.240 318.800,279.600 318.980,279.600 319.200 C 279.600 319.420,280.140 319.600,280.800 319.600 C 281.460 319.600,282.000 319.780,282.000 320.000 C 282.000 320.220,282.360 320.400,282.800 320.400 C 283.240 320.400,283.600 320.580,283.600 320.800 C 283.600 321.020,283.960 321.200,284.400 321.200 C 284.840 321.200,285.200 321.380,285.200 321.600 C 285.200 321.820,285.560 322.000,286.000 322.000 C 286.440 322.000,286.800 322.180,286.800 322.400 C 286.800 322.620,287.160 322.800,287.600 322.800 C 288.040 322.800,288.400 322.980,288.400 323.200 C 288.400 323.420,288.940 323.600,289.600 323.600 C 290.260 323.600,290.800 323.780,290.800 324.000 C 290.800 324.220,291.160 324.400,291.600 324.400 C 292.040 324.400,292.400 324.580,292.400 324.800 C 292.400 325.020,292.760 325.200,293.200 325.200 C 293.640 325.200,294.000 325.380,294.000 325.600 C 294.000 325.820,294.360 326.000,294.800 326.000 C 295.240 326.000,295.600 326.180,295.600 326.400 C 295.600 326.620,296.140 326.800,296.800 326.800 C 297.460 326.800,298.000 326.980,298.000 327.200 C 298.000 327.420,298.360 327.600,298.800 327.600 C 299.240 327.600,299.600 327.780,299.600 328.000 C 299.600 328.220,299.960 328.400,300.400 328.400 C 300.840 328.400,301.200 328.580,301.200 328.800 C 301.200 329.020,301.560 329.200,302.000 329.200 C 302.440 329.200,302.800 329.380,302.800 329.600 C 302.800 329.820,303.160 330.000,303.600 330.000 C 304.040 330.000,304.400 330.180,304.400 330.400 C 304.400 330.620,304.940 330.800,305.600 330.800 C 306.260 330.800,306.800 330.980,306.800 331.200 C 306.800 331.420,307.160 331.600,307.600 331.600 C 308.040 331.600,308.400 331.780,308.400 332.000 C 308.400 332.220,308.760 332.400,309.200 332.400 C 309.640 332.400,310.000 332.580,310.000 332.800 C 310.000 333.020,310.360 333.200,310.800 333.200 C 311.240 333.200,311.600 333.380,311.600 333.600 C 311.600 333.822,312.667 334.000,314.000 334.000 C 315.333 334.000,316.400 333.822,316.400 333.600 C 316.400 333.380,316.683 333.200,317.029 333.200 C 317.837 333.200,318.800 332.237,318.800 331.429 C 318.800 331.083,318.980 330.800,319.200 330.800 C 319.429 330.800,319.600 329.600,319.600 328.000 C 319.600 326.400,319.429 325.200,319.200 325.200 C 318.971 325.200,318.800 324.000,318.800 322.400 C 318.800 320.800,318.629 319.600,318.400 319.600 C 318.171 319.600,318.000 318.400,318.000 316.800 C 318.000 315.200,317.829 314.000,317.600 314.000 C 317.371 314.000,317.200 312.800,317.200 311.200 C 317.200 309.600,317.029 308.400,316.800 308.400 C 316.571 308.400,316.400 307.200,316.400 305.600 C 316.400 304.000,316.229 302.800,316.000 302.800 C 315.778 302.800,315.600 301.733,315.600 300.400 C 315.600 299.067,315.422 298.000,315.200 298.000 C 314.971 298.000,314.800 296.800,314.800 295.200 C 314.800 293.600,314.629 292.400,314.400 292.400 C 314.171 292.400,314.000 291.200,314.000 289.600 C 314.000 288.000,313.829 286.800,313.600 286.800 C 313.371 286.800,313.200 285.600,313.200 284.000 C 313.200 282.400,313.029 281.200,312.800 281.200 C 312.571 281.200,312.400 280.000,312.400 278.400 C 312.400 276.800,312.229 275.600,312.000 275.600 C 311.778 275.600,311.600 274.533,311.600 273.200 C 311.600 271.867,311.422 270.800,311.200 270.800 C 310.971 270.800,310.800 269.600,310.800 268.000 C 310.800 266.400,310.629 265.200,310.400 265.200 C 310.171 265.200,310.000 264.000,310.000 262.400 C 310.000 260.800,309.829 259.600,309.600 259.600 C 309.371 259.600,309.200 258.400,309.200 256.800 C 309.200 255.200,309.029 254.000,308.800 254.000 C 308.580 254.000,308.400 253.280,308.400 252.400 C 308.400 251.520,308.580 250.800,308.800 250.800 C 309.020 250.800,309.200 250.440,309.200 250.000 C 309.200 249.560,309.380 249.200,309.600 249.200 C 309.820 249.200,310.000 248.840,310.000 248.400 C 310.000 247.960,310.180 247.600,310.400 247.600 C 310.620 247.600,310.800 247.240,310.800 246.800 C 310.800 246.360,310.980 246.000,311.200 246.000 C 311.420 246.000,311.600 245.640,311.600 245.200 C 311.600 244.760,311.780 244.400,312.000 244.400 C 312.220 244.400,312.400 244.040,312.400 243.600 C 312.400 243.160,312.580 242.800,312.800 242.800 C 313.020 242.800,313.200 242.260,313.200 241.600 C 313.200 240.940,313.380 240.400,313.600 240.400 C 313.820 240.400,314.000 240.040,314.000 239.600 C 314.000 239.160,314.180 238.800,314.400 238.800 C 314.620 238.800,314.800 238.260,314.800 237.600 C 314.800 236.940,314.980 236.400,315.200 236.400 C 315.420 236.400,315.600 235.860,315.600 235.200 C 315.600 234.540,315.780 234.000,316.000 234.000 C 316.220 234.000,316.400 233.460,316.400 232.800 C 316.400 232.140,316.580 231.600,316.800 231.600 C 317.020 231.600,317.200 231.060,317.200 230.400 C 317.200 229.740,317.380 229.200,317.600 229.200 C 317.820 229.200,318.000 228.660,318.000 228.000 C 318.000 227.340,318.180 226.800,318.400 226.800 C 318.620 226.800,318.800 225.900,318.800 224.800 C 318.800 223.700,318.980 222.800,319.200 222.800 C 319.420 222.800,319.600 222.080,319.600 221.200 C 319.600 220.320,319.780 219.600,320.000 219.600 C 320.222 219.600,320.400 218.533,320.400 217.200 C 320.400 215.867,320.578 214.800,320.800 214.800 C 321.029 214.800,321.200 213.600,321.200 212.000 C 321.200 210.400,321.371 209.200,321.600 209.200 C 321.858 209.200,322.000 204.933,322.000 197.200 C 322.000 189.467,321.858 185.200,321.600 185.200 C 321.367 185.200,321.200 183.867,321.200 182.000 C 321.200 180.133,321.033 178.800,320.800 178.800 C 320.578 178.800,320.400 177.733,320.400 176.400 C 320.400 175.067,320.222 174.000,320.000 174.000 C 319.780 174.000,319.600 173.280,319.600 172.400 C 319.600 171.520,319.420 170.800,319.200 170.800 C 318.980 170.800,318.800 170.080,318.800 169.200 C 318.800 168.320,318.620 167.600,318.400 167.600 C 318.180 167.600,318.000 166.880,318.000 166.000 C 318.000 165.120,317.820 164.400,317.600 164.400 C 317.380 164.400,317.200 163.860,317.200 163.200 C 317.200 162.540,317.020 162.000,316.800 162.000 C 316.580 162.000,316.400 161.460,316.400 160.800 C 316.400 160.140,316.220 159.600,316.000 159.600 C 315.780 159.600,315.600 159.060,315.600 158.400 C 315.600 157.740,315.420 157.200,315.200 157.200 C 314.980 157.200,314.800 156.660,314.800 156.000 C 314.800 155.340,314.620 154.800,314.400 154.800 C 314.180 154.800,314.000 154.440,314.000 154.000 C 314.000 153.560,313.820 153.200,313.600 153.200 C 313.380 153.200,313.200 152.660,313.200 152.000 C 313.200 151.340,313.020 150.800,312.800 150.800 C 312.580 150.800,312.400 150.440,312.400 150.000 C 312.400 149.560,312.220 149.200,312.000 149.200 C 311.780 149.200,311.600 148.840,311.600 148.400 C 311.600 147.960,311.420 147.600,311.200 147.600 C 310.980 147.600,310.800 147.240,310.800 146.800 C 310.800 146.360,310.620 146.000,310.400 146.000 C 310.180 146.000,310.000 145.640,310.000 145.200 C 310.000 144.760,309.820 144.400,309.600 144.400 C 309.380 144.400,309.200 144.040,309.200 143.600 C 309.200 143.160,309.020 142.800,308.800 142.800 C 308.580 142.800,308.400 142.440,308.400 142.000 C 308.400 141.560,308.220 141.200,308.000 141.200 C 307.780 141.200,307.600 140.880,307.600 140.488 C 307.600 140.097,307.240 139.517,306.800 139.200 C 306.360 138.883,306.000 138.303,306.000 137.912 C 306.000 137.520,305.820 137.200,305.600 137.200 C 305.380 137.200,305.200 136.880,305.200 136.488 C 305.200 136.097,304.840 135.517,304.400 135.200 C 303.960 134.883,303.600 134.343,303.600 134.000 C 303.600 133.657,303.240 133.117,302.800 132.800 C 302.360 132.483,302.000 131.975,302.000 131.672 C 302.000 131.369,301.460 130.617,300.800 130.000 C 300.140 129.383,299.600 128.663,299.600 128.400 C 299.600 128.137,299.060 127.417,298.400 126.800 C 297.740 126.183,297.200 125.473,297.200 125.220 C 297.200 124.968,295.940 123.519,294.400 122.000 C 292.860 120.481,291.600 119.047,291.600 118.812 C 291.600 118.255,286.545 113.200,285.988 113.200 C 285.753 113.200,284.319 111.940,282.800 110.400 C 281.281 108.860,279.832 107.600,279.580 107.600 C 279.327 107.600,278.617 107.060,278.000 106.400 C 277.383 105.740,276.663 105.200,276.400 105.200 C 276.137 105.200,275.417 104.660,274.800 104.000 C 274.183 103.340,273.391 102.800,273.040 102.800 C 272.688 102.800,272.400 102.620,272.400 102.400 C 272.400 102.180,272.040 102.000,271.600 102.000 C 271.160 102.000,270.800 101.820,270.800 101.600 C 270.800 101.380,269.900 101.200,268.800 101.200 C 267.700 101.200,266.800 101.380,266.800 101.600 M97.700 104.198 C 96.650 105.391,98.045 108.400,99.648 108.400 C 99.915 108.400,100.027 108.506,99.897 108.636 C 99.597 108.936,106.235 115.600,106.834 115.600 C 107.079 115.600,107.783 116.140,108.400 116.800 C 110.246 118.776,111.526 118.488,114.607 115.407 C 116.033 113.981,117.200 112.581,117.200 112.296 C 117.200 112.010,117.560 111.517,118.000 111.200 C 118.557 110.798,118.800 110.165,118.800 109.112 C 118.800 106.392,116.662 106.890,113.181 110.420 L 110.400 113.239 107.619 110.420 C 106.090 108.869,104.638 107.600,104.393 107.600 C 104.148 107.600,103.071 106.700,102.000 105.600 C 99.985 103.532,98.666 103.101,97.700 104.198 M90.800 115.200 C 90.800 115.420,90.524 115.600,90.187 115.600 C 89.438 115.600,86.800 118.169,86.800 118.898 C 86.800 119.187,86.440 119.683,86.000 120.000 C 85.560 120.317,85.200 120.857,85.200 121.200 C 85.200 121.543,84.840 122.083,84.400 122.400 C 82.780 123.567,84.094 127.600,86.094 127.600 C 86.385 127.600,86.883 127.960,87.200 128.400 C 87.517 128.840,88.057 129.200,88.400 129.200 C 88.743 129.200,89.283 129.560,89.600 130.000 C 89.917 130.440,90.457 130.800,90.800 130.800 C 91.143 130.800,91.683 131.160,92.000 131.600 C 92.317 132.040,92.857 132.400,93.200 132.400 C 93.543 132.400,94.083 132.760,94.400 133.200 C 94.717 133.640,95.257 134.000,95.600 134.000 C 95.943 134.000,96.483 134.360,96.800 134.800 C 97.895 136.320,100.400 135.492,100.400 133.610 C 100.400 132.726,98.755 130.800,98.000 130.800 C 97.760 130.800,97.105 130.341,96.544 129.780 L 95.524 128.760 96.362 128.033 C 96.823 127.633,97.200 127.052,97.200 126.741 C 97.200 126.431,97.560 125.917,98.000 125.600 C 98.557 125.198,98.800 124.565,98.800 123.512 C 98.800 122.680,98.980 122.000,99.200 122.000 C 99.420 122.000,99.600 121.460,99.600 120.800 C 99.600 120.140,99.420 119.600,99.200 119.600 C 98.980 119.600,98.800 119.324,98.800 118.987 C 98.800 118.191,96.209 115.600,95.413 115.600 C 95.076 115.600,94.800 115.420,94.800 115.200 C 94.800 114.980,93.900 114.800,92.800 114.800 C 91.700 114.800,90.800 114.980,90.800 115.200 M94.618 119.782 C 95.612 120.776,95.933 122.000,95.200 122.000 C 94.980 122.000,94.800 122.360,94.800 122.800 C 94.800 123.240,94.620 123.600,94.400 123.600 C 94.180 123.600,94.000 123.878,94.000 124.218 C 94.000 125.065,91.909 127.126,91.696 126.489 C 91.607 126.220,91.270 126.000,90.948 126.000 C 89.195 126.000,87.901 123.336,89.200 122.400 C 89.640 122.083,90.000 121.587,90.000 121.297 C 90.000 119.249,93.076 118.240,94.618 119.782 M88.100 149.798 C 87.825 150.111,87.600 150.824,87.600 151.383 C 87.600 151.942,87.420 152.400,87.200 152.400 C 86.980 152.400,86.800 152.940,86.800 153.600 C 86.800 154.260,86.620 154.800,86.400 154.800 C 86.180 154.800,86.000 155.263,86.000 155.829 C 86.000 156.995,84.774 158.521,84.499 157.696 C 84.408 157.423,83.808 157.200,83.167 157.200 C 82.525 157.200,82.000 157.020,82.000 156.800 C 82.000 156.580,81.460 156.400,80.800 156.400 C 80.140 156.400,79.600 156.220,79.600 156.000 C 79.600 155.780,79.060 155.600,78.400 155.600 C 77.740 155.600,77.200 155.420,77.200 155.200 C 77.200 154.980,76.660 154.800,76.000 154.800 C 75.340 154.800,74.800 154.620,74.800 154.400 C 74.800 154.178,73.733 154.000,72.400 154.000 L 70.000 154.000 70.000 155.600 C 70.000 156.933,70.133 157.200,70.800 157.200 C 71.240 157.200,71.600 157.380,71.600 157.600 C 71.600 157.820,72.140 158.000,72.800 158.000 C 73.460 158.000,74.000 158.180,74.000 158.400 C 74.000 158.620,74.540 158.800,75.200 158.800 C 75.860 158.800,76.400 158.980,76.400 159.200 C 76.400 159.420,76.940 159.600,77.600 159.600 C 78.260 159.600,78.800 159.780,78.800 160.000 C 78.800 160.220,79.340 160.400,80.000 160.400 C 80.660 160.400,81.200 160.580,81.200 160.800 C 81.200 161.020,81.740 161.200,82.400 161.200 C 83.060 161.200,83.600 161.380,83.600 161.600 C 83.600 161.822,84.667 162.000,86.000 162.000 C 88.133 162.000,88.400 161.911,88.400 161.200 C 88.400 160.760,88.580 160.400,88.800 160.400 C 89.020 160.400,89.200 159.860,89.200 159.200 C 89.200 158.540,89.380 158.000,89.600 158.000 C 89.820 158.000,90.000 157.460,90.000 156.800 C 90.000 156.140,90.180 155.600,90.400 155.600 C 90.620 155.600,90.800 155.060,90.800 154.400 C 90.800 153.740,90.980 153.200,91.200 153.200 C 91.814 153.200,91.675 150.418,91.029 149.771 C 90.303 149.045,88.750 149.060,88.100 149.798 M81.200 168.800 C 81.200 169.020,80.480 169.200,79.600 169.200 C 78.720 169.200,78.000 169.380,78.000 169.600 C 78.000 169.820,77.280 170.000,76.400 170.000 C 75.520 170.000,74.800 170.180,74.800 170.400 C 74.800 170.620,74.080 170.800,73.200 170.800 C 72.320 170.800,71.600 170.980,71.600 171.200 C 71.600 171.420,71.060 171.600,70.400 171.600 C 69.740 171.600,69.200 171.780,69.200 172.000 C 69.200 172.220,68.737 172.400,68.171 172.400 C 66.654 172.400,66.000 173.295,66.000 175.371 C 66.000 176.933,66.117 177.200,66.800 177.200 C 67.240 177.200,67.600 177.380,67.600 177.600 C 67.600 177.820,67.920 178.000,68.312 178.000 C 68.703 178.000,69.283 178.360,69.600 178.800 C 69.917 179.240,70.497 179.600,70.888 179.600 C 71.280 179.600,71.600 179.780,71.600 180.000 C 71.600 180.220,71.920 180.400,72.312 180.400 C 72.703 180.400,73.283 180.760,73.600 181.200 C 73.917 181.640,74.497 182.000,74.888 182.000 C 75.280 182.000,75.600 182.180,75.600 182.400 C 75.600 182.620,75.920 182.800,76.312 182.800 C 76.703 182.800,77.283 183.160,77.600 183.600 C 77.917 184.040,78.497 184.400,78.888 184.400 C 79.280 184.400,79.600 184.580,79.600 184.800 C 79.600 185.020,79.960 185.200,80.400 185.200 C 80.840 185.200,81.200 185.380,81.200 185.600 C 81.200 186.207,83.179 186.078,83.829 185.429 C 84.894 184.363,84.193 182.000,82.810 182.000 C 81.429 182.000,80.400 180.044,80.400 177.418 C 80.400 175.939,80.574 174.800,80.800 174.800 C 81.020 174.800,81.200 174.260,81.200 173.600 C 81.200 172.467,81.289 172.400,82.800 172.400 C 83.680 172.400,84.400 172.220,84.400 172.000 C 84.400 171.780,84.760 171.600,85.200 171.600 C 85.867 171.600,86.000 171.333,86.000 170.000 L 86.000 168.400 83.600 168.400 C 82.267 168.400,81.200 168.578,81.200 168.800 M77.200 175.200 C 77.200 175.860,77.020 176.400,76.800 176.400 C 76.580 176.400,76.400 176.760,76.400 177.200 C 76.400 177.640,76.220 178.000,76.000 178.000 C 75.780 178.000,75.600 177.820,75.600 177.600 C 75.600 177.380,75.240 177.200,74.800 177.200 C 74.360 177.200,74.000 177.020,74.000 176.800 C 74.000 176.580,73.640 176.400,73.200 176.400 C 72.667 176.400,72.400 176.133,72.400 175.600 C 72.400 174.933,72.667 174.800,74.000 174.800 C 74.880 174.800,75.600 174.620,75.600 174.400 C 75.600 174.180,75.960 174.000,76.400 174.000 C 77.022 174.000,77.200 174.267,77.200 175.200 M80.400 196.000 L 80.400 201.200 78.400 201.200 L 76.400 201.200 76.400 198.800 C 76.400 197.467,76.222 196.400,76.000 196.400 C 75.780 196.400,75.600 195.500,75.600 194.400 L 75.600 192.400 74.000 192.400 L 72.400 192.400 72.400 196.800 L 72.400 201.200 70.400 201.200 L 68.400 201.200 68.400 197.200 C 68.400 194.800,68.240 193.200,68.000 193.200 C 67.780 193.200,67.600 192.840,67.600 192.400 C 67.600 191.733,67.333 191.600,66.000 191.600 L 64.400 191.600 64.400 197.600 C 64.400 201.333,64.551 203.600,64.800 203.600 C 65.020 203.600,65.200 203.960,65.200 204.400 C 65.200 205.173,65.467 205.200,73.200 205.200 C 78.267 205.200,81.200 205.053,81.200 204.800 C 81.200 204.580,81.663 204.400,82.229 204.400 C 83.835 204.400,84.400 203.522,84.400 201.029 C 84.400 199.803,84.220 198.800,84.000 198.800 C 83.760 198.800,83.600 197.200,83.600 194.800 L 83.600 190.800 82.000 190.800 L 80.400 190.800 80.400 196.000 M82.000 212.000 C 82.000 212.220,81.280 212.400,80.400 212.400 C 79.520 212.400,78.800 212.580,78.800 212.800 C 78.800 213.020,78.260 213.200,77.600 213.200 C 76.940 213.200,76.400 213.380,76.400 213.600 C 76.400 213.820,75.680 214.000,74.800 214.000 C 73.920 214.000,73.200 214.180,73.200 214.400 C 73.200 214.620,72.480 214.800,71.600 214.800 C 70.720 214.800,70.000 214.980,70.000 215.200 C 70.000 215.420,69.537 215.600,68.971 215.600 C 67.497 215.600,66.800 216.499,66.800 218.400 C 66.800 220.543,67.498 221.200,69.771 221.200 C 70.777 221.200,71.600 221.380,71.600 221.600 C 71.600 221.833,72.933 222.000,74.800 222.000 C 76.667 222.000,78.000 222.167,78.000 222.400 C 78.000 222.620,78.900 222.800,80.000 222.800 C 81.100 222.800,82.000 222.903,82.000 223.029 C 82.000 223.438,80.869 224.400,80.389 224.400 C 80.132 224.400,79.417 224.940,78.800 225.600 C 78.183 226.260,77.463 226.800,77.200 226.800 C 76.937 226.800,76.217 227.340,75.600 228.000 C 74.983 228.660,74.275 229.200,74.026 229.200 C 71.895 229.200,69.850 234.307,71.371 235.829 C 72.018 236.475,74.800 236.614,74.800 236.000 C 74.800 235.780,75.520 235.600,76.400 235.600 C 77.280 235.600,78.000 235.420,78.000 235.200 C 78.000 234.980,78.720 234.800,79.600 234.800 C 80.480 234.800,81.200 234.620,81.200 234.400 C 81.200 234.180,81.920 234.000,82.800 234.000 C 83.680 234.000,84.400 233.820,84.400 233.600 C 84.400 233.380,85.120 233.200,86.000 233.200 C 86.880 233.200,87.600 233.020,87.600 232.800 C 87.600 232.580,87.883 232.400,88.229 232.400 C 89.736 232.400,90.478 230.068,89.343 228.900 C 88.765 228.305,86.800 228.228,86.800 228.800 C 86.800 229.020,86.080 229.200,85.200 229.200 C 84.320 229.200,83.600 229.380,83.600 229.600 C 83.600 229.820,82.880 230.000,82.000 230.000 C 81.120 230.000,80.400 230.180,80.400 230.400 C 80.400 230.620,80.040 230.800,79.600 230.800 C 79.160 230.800,78.800 230.697,78.800 230.571 C 78.800 230.162,79.931 229.200,80.411 229.200 C 80.668 229.200,81.383 228.660,82.000 228.000 C 82.617 227.340,83.337 226.800,83.600 226.800 C 83.863 226.800,84.583 226.260,85.200 225.600 C 85.817 224.940,86.609 224.400,86.960 224.400 C 87.453 224.400,87.600 223.980,87.600 222.571 C 87.600 220.142,86.985 219.600,84.229 219.600 C 83.003 219.600,82.000 219.420,82.000 219.200 C 82.000 218.967,80.667 218.800,78.800 218.800 C 77.040 218.800,75.600 218.697,75.600 218.571 C 75.600 217.902,76.917 217.200,78.171 217.200 C 78.957 217.200,79.600 217.020,79.600 216.800 C 79.600 216.580,80.320 216.400,81.200 216.400 C 82.080 216.400,82.800 216.220,82.800 216.000 C 82.800 215.780,83.340 215.600,84.000 215.600 C 85.173 215.600,85.200 215.556,85.200 213.600 L 85.200 211.600 83.600 211.600 C 82.720 211.600,82.000 211.780,82.000 212.000 M212.400 227.200 C 212.400 227.420,212.940 227.600,213.600 227.600 C 214.260 227.600,214.800 227.780,214.800 228.000 C 214.800 228.220,215.253 228.400,215.807 228.400 C 216.939 228.400,222.000 233.134,222.000 234.193 C 222.000 234.527,222.180 234.800,222.400 234.800 C 222.620 234.800,222.800 235.160,222.800 235.600 C 222.800 236.040,222.980 236.400,223.200 236.400 C 223.420 236.400,223.600 236.940,223.600 237.600 C 223.600 238.260,223.780 238.800,224.000 238.800 C 224.220 238.800,224.400 239.520,224.400 240.400 C 224.400 241.280,224.220 242.000,224.000 242.000 C 223.780 242.000,223.600 242.720,223.600 243.600 C 223.600 244.480,223.420 245.200,223.200 245.200 C 222.980 245.200,222.800 245.700,222.800 246.312 C 222.800 246.965,222.470 247.661,222.000 248.000 C 221.560 248.317,221.200 248.813,221.200 249.102 C 221.200 249.831,218.562 252.400,217.813 252.400 C 217.476 252.400,217.200 252.580,217.200 252.800 C 217.200 253.020,216.840 253.200,216.400 253.200 C 215.960 253.200,215.600 253.380,215.600 253.600 C 215.600 253.820,215.060 254.000,214.400 254.000 C 213.740 254.000,213.200 254.180,213.200 254.400 C 213.200 254.629,212.000 254.800,210.400 254.800 C 208.800 254.800,207.600 254.629,207.600 254.400 C 207.600 254.180,207.060 254.000,206.400 254.000 C 205.740 254.000,205.200 253.820,205.200 253.600 C 205.200 253.380,204.840 253.200,204.400 253.200 C 203.960 253.200,203.600 253.020,203.600 252.800 C 203.600 252.580,203.326 252.400,202.991 252.400 C 201.944 252.400,198.000 248.140,198.000 247.009 C 198.000 246.454,197.820 246.000,197.600 246.000 C 197.380 246.000,197.200 245.460,197.200 244.800 C 197.200 244.140,197.020 243.600,196.800 243.600 C 196.567 243.600,196.400 242.267,196.400 240.400 C 196.400 238.533,196.567 237.200,196.800 237.200 C 197.020 237.200,197.200 236.840,197.200 236.400 C 197.200 235.960,197.380 235.600,197.600 235.600 C 197.820 235.600,198.000 235.240,198.000 234.800 C 198.000 234.360,198.180 234.000,198.400 234.000 C 198.620 234.000,198.800 233.724,198.800 233.387 C 198.800 232.638,201.369 230.000,202.098 230.000 C 202.387 230.000,202.883 229.640,203.200 229.200 C 203.517 228.760,204.097 228.400,204.488 228.400 C 204.880 228.400,205.200 228.220,205.200 228.000 C 205.200 227.780,205.920 227.600,206.800 227.600 C 207.680 227.600,208.400 227.420,208.400 227.200 C 208.400 226.980,209.300 226.800,210.400 226.800 C 211.500 226.800,212.400 226.980,212.400 227.200 M98.000 252.800 C 98.000 253.020,97.680 253.200,97.288 253.200 C 96.897 253.200,96.317 253.560,96.000 254.000 C 95.683 254.440,95.103 254.800,94.712 254.800 C 94.320 254.800,94.000 254.980,94.000 255.200 C 94.000 255.444,92.133 255.600,89.200 255.600 C 86.267 255.600,84.400 255.444,84.400 255.200 C 84.400 254.593,82.421 254.722,81.771 255.371 C 81.457 255.686,81.200 256.586,81.200 257.371 L 81.200 258.800 85.200 258.800 C 87.600 258.800,89.200 258.960,89.200 259.200 C 89.200 259.420,89.560 259.600,90.000 259.600 C 90.533 259.600,90.800 259.867,90.800 260.400 C 90.800 260.840,90.620 261.200,90.400 261.200 C 90.180 261.200,90.000 261.560,90.000 262.000 C 90.000 262.440,89.820 262.800,89.600 262.800 C 89.380 262.800,89.200 263.340,89.200 264.000 C 89.200 264.660,89.020 265.200,88.800 265.200 C 88.580 265.200,88.400 265.560,88.400 266.000 C 88.400 266.440,88.220 266.800,88.000 266.800 C 87.267 266.800,87.588 268.024,88.582 269.018 C 89.962 270.399,91.600 269.970,91.600 268.229 C 91.600 267.883,91.780 267.600,92.000 267.600 C 92.220 267.600,92.400 267.240,92.400 266.800 C 92.400 266.360,92.580 266.000,92.800 266.000 C 93.020 266.000,93.200 265.460,93.200 264.800 C 93.200 264.140,93.380 263.600,93.600 263.600 C 93.820 263.600,94.000 263.240,94.000 262.800 C 94.000 262.360,94.180 262.000,94.400 262.000 C 94.620 262.000,94.800 261.542,94.800 260.982 C 94.800 259.859,96.410 258.000,97.382 258.000 C 97.722 258.000,98.000 257.820,98.000 257.600 C 98.000 257.380,98.276 257.200,98.613 257.200 C 100.285 257.200,102.432 253.975,101.429 252.971 C 100.782 252.325,98.000 252.186,98.000 252.800 M101.300 271.029 C 95.323 277.074,94.621 278.278,96.171 279.829 C 96.829 280.486,101.200 280.635,101.200 280.000 C 101.200 279.780,101.740 279.600,102.400 279.600 C 103.060 279.600,103.600 279.420,103.600 279.200 C 103.600 278.980,103.960 278.800,104.400 278.800 C 104.840 278.800,105.200 278.620,105.200 278.400 C 105.200 278.180,105.560 278.000,106.000 278.000 C 106.440 278.000,106.800 277.820,106.800 277.600 C 106.800 277.380,107.340 277.200,108.000 277.200 C 108.660 277.200,109.200 277.020,109.200 276.800 C 109.200 276.580,109.560 276.400,110.000 276.400 C 110.440 276.400,110.800 276.220,110.800 276.000 C 110.800 275.780,110.980 275.600,111.200 275.600 C 111.420 275.600,111.600 275.960,111.600 276.400 C 111.600 276.840,111.420 277.200,111.200 277.200 C 110.980 277.200,110.800 277.560,110.800 278.000 C 110.800 278.440,110.620 278.800,110.400 278.800 C 110.180 278.800,110.000 279.340,110.000 280.000 C 110.000 280.660,109.820 281.200,109.600 281.200 C 109.380 281.200,109.200 281.560,109.200 282.000 C 109.200 282.440,109.020 282.800,108.800 282.800 C 108.580 282.800,108.400 283.160,108.400 283.600 C 108.400 284.040,108.220 284.400,108.000 284.400 C 107.780 284.400,107.600 284.760,107.600 285.200 C 107.600 285.640,107.420 286.000,107.200 286.000 C 106.565 286.000,106.714 290.371,107.371 291.029 C 109.200 292.857,110.840 291.967,117.003 285.803 C 122.839 279.968,123.464 279.007,122.229 277.771 C 121.063 276.606,120.013 277.156,116.359 280.841 C 114.374 282.844,112.626 284.349,112.475 284.186 C 112.324 284.024,112.425 283.810,112.700 283.712 C 112.975 283.614,113.200 283.008,113.200 282.367 C 113.200 281.725,113.380 281.200,113.600 281.200 C 113.820 281.200,114.000 280.840,114.000 280.400 C 114.000 279.960,114.180 279.600,114.400 279.600 C 114.620 279.600,114.800 279.240,114.800 278.800 C 114.800 278.360,114.980 278.000,115.200 278.000 C 115.420 278.000,115.600 277.460,115.600 276.800 C 115.600 276.140,115.780 275.600,116.000 275.600 C 116.623 275.600,116.478 272.020,115.829 271.371 C 115.182 270.725,112.400 270.586,112.400 271.200 C 112.400 271.420,112.040 271.600,111.600 271.600 C 111.160 271.600,110.800 271.780,110.800 272.000 C 110.800 272.220,110.440 272.400,110.000 272.400 C 109.560 272.400,109.200 272.580,109.200 272.800 C 109.200 273.020,108.660 273.200,108.000 273.200 C 107.340 273.200,106.800 273.380,106.800 273.600 C 106.800 273.820,106.440 274.000,106.000 274.000 C 105.560 274.000,105.200 274.180,105.200 274.400 C 105.200 274.620,104.840 274.800,104.400 274.800 C 103.207 274.800,103.302 274.665,107.200 270.800 C 110.949 267.083,111.171 266.714,110.229 265.771 C 108.633 264.176,107.300 264.961,101.300 271.029 " stroke="none" fill="#1c4444" fill-rule="evenodd"></path></g></svg>