<svg xmlns="http://www.w3.org/2000/svg" xmlns:xlink="http://www.w3.org/1999/xlink" width="300" zoomAndPan="magnify" viewBox="0 0 224.87999 225" height="300" preserveAspectRatio="xMidYMid meet" version="1.0"><defs><g/><clipPath id="6aaae07fe5"><path d="M 36 77 L 46 77 L 46 83 L 36 83 Z M 36 77 " clip-rule="nonzero"/></clipPath><clipPath id="74f6264f6a"><path d="M 30.203125 61.332031 L 56.8125 56.832031 L 60.6875 79.746094 L 34.082031 84.246094 Z M 30.203125 61.332031 " clip-rule="nonzero"/></clipPath><clipPath id="42f93b10d0"><path d="M 30.203125 61.332031 L 56.8125 56.832031 L 60.6875 79.746094 L 34.082031 84.246094 Z M 30.203125 61.332031 " clip-rule="nonzero"/></clipPath><clipPath id="8e5856fb28"><path d="M 41 73 L 47 73 L 47 79 L 41 79 Z M 41 73 " clip-rule="nonzero"/></clipPath><clipPath id="2585f0d342"><path d="M 30.203125 61.332031 L 56.8125 56.832031 L 60.6875 79.746094 L 34.082031 84.246094 Z M 30.203125 61.332031 " clip-rule="nonzero"/></clipPath><clipPath id="28ff03eb3d"><path d="M 30.203125 61.332031 L 56.8125 56.832031 L 60.6875 79.746094 L 34.082031 84.246094 Z M 30.203125 61.332031 " clip-rule="nonzero"/></clipPath><clipPath id="a1b8cd24be"><path d="M 42 65 L 50 65 L 50 76 L 42 76 Z M 42 65 " clip-rule="nonzero"/></clipPath><clipPath id="9b783d101f"><path d="M 30.203125 61.332031 L 56.8125 56.832031 L 60.6875 79.746094 L 34.082031 84.246094 Z M 30.203125 61.332031 " clip-rule="nonzero"/></clipPath><clipPath id="3813b73aaa"><path d="M 30.203125 61.332031 L 56.8125 56.832031 L 60.6875 79.746094 L 34.082031 84.246094 Z M 30.203125 61.332031 " clip-rule="nonzero"/></clipPath><clipPath id="11faf0f04d"><path d="M 50 66 L 54 66 L 54 73 L 50 73 Z M 50 66 " clip-rule="nonzero"/></clipPath><clipPath id="51d48490a0"><path d="M 30.203125 61.332031 L 56.8125 56.832031 L 60.6875 79.746094 L 34.082031 84.246094 Z M 30.203125 61.332031 " clip-rule="nonzero"/></clipPath><clipPath id="3800dfc648"><path d="M 30.203125 61.332031 L 56.8125 56.832031 L 60.6875 79.746094 L 34.082031 84.246094 Z M 30.203125 61.332031 " clip-rule="nonzero"/></clipPath><clipPath id="85f217b068"><path d="M 55 60 L 58 60 L 58 72 L 55 72 Z M 55 60 " clip-rule="nonzero"/></clipPath><clipPath id="a703768921"><path d="M 30.203125 61.332031 L 56.8125 56.832031 L 60.6875 79.746094 L 34.082031 84.246094 Z M 30.203125 61.332031 " clip-rule="nonzero"/></clipPath><clipPath id="1478a6e85c"><path d="M 30.203125 61.332031 L 56.8125 56.832031 L 60.6875 79.746094 L 34.082031 84.246094 Z M 30.203125 61.332031 " clip-rule="nonzero"/></clipPath><clipPath id="41e668d14c"><path d="M 55 56 L 57 56 L 57 59 L 55 59 Z M 55 56 " clip-rule="nonzero"/></clipPath><clipPath id="2365ebc45a"><path d="M 30.203125 61.332031 L 56.8125 56.832031 L 60.6875 79.746094 L 34.082031 84.246094 Z M 30.203125 61.332031 " clip-rule="nonzero"/></clipPath><clipPath id="e946910bd8"><path d="M 30.203125 61.332031 L 56.8125 56.832031 L 60.6875 79.746094 L 34.082031 84.246094 Z M 30.203125 61.332031 " clip-rule="nonzero"/></clipPath><clipPath id="075a63fca4"><path d="M 39 69 L 41 69 L 41 71 L 39 71 Z M 39 69 " clip-rule="nonzero"/></clipPath><clipPath id="b770b69bae"><path d="M 30.203125 61.332031 L 56.8125 56.832031 L 60.6875 79.746094 L 34.082031 84.246094 Z M 30.203125 61.332031 " clip-rule="nonzero"/></clipPath><clipPath id="08ae138d80"><path d="M 30.203125 61.332031 L 56.8125 56.832031 L 60.6875 79.746094 L 34.082031 84.246094 Z M 30.203125 61.332031 " clip-rule="nonzero"/></clipPath><clipPath id="8eea2a96cd"><path d="M 48 62 L 51 62 L 51 64 L 48 64 Z M 48 62 " clip-rule="nonzero"/></clipPath><clipPath id="e5f3b77daa"><path d="M 30.203125 61.332031 L 56.8125 56.832031 L 60.6875 79.746094 L 34.082031 84.246094 Z M 30.203125 61.332031 " clip-rule="nonzero"/></clipPath><clipPath id="0aabf26636"><path d="M 30.203125 61.332031 L 56.8125 56.832031 L 60.6875 79.746094 L 34.082031 84.246094 Z M 30.203125 61.332031 " clip-rule="nonzero"/></clipPath><clipPath id="5bf6f339c7"><path d="M 32 76 L 35 76 L 35 78 L 32 78 Z M 32 76 " clip-rule="nonzero"/></clipPath><clipPath id="78951b9776"><path d="M 30.203125 61.332031 L 56.8125 56.832031 L 60.6875 79.746094 L 34.082031 84.246094 Z M 30.203125 61.332031 " clip-rule="nonzero"/></clipPath><clipPath id="1a0ce79429"><path d="M 30.203125 61.332031 L 56.8125 56.832031 L 60.6875 79.746094 L 34.082031 84.246094 Z M 30.203125 61.332031 " clip-rule="nonzero"/></clipPath><clipPath id="0037f7df94"><path d="M 190 128 L 201 128 L 201 135 L 190 135 Z M 190 128 " clip-rule="nonzero"/></clipPath><clipPath id="fa533c5717"><path d="M 205.226562 150.164062 L 178.445312 153.46875 L 175.597656 130.40625 L 202.382812 127.101562 Z M 205.226562 150.164062 " clip-rule="nonzero"/></clipPath><clipPath id="54a679baa2"><path d="M 205.226562 150.164062 L 178.445312 153.46875 L 175.597656 130.40625 L 202.382812 127.101562 Z M 205.226562 150.164062 " clip-rule="nonzero"/></clipPath><clipPath id="269c43bcf4"><path d="M 189 132 L 195 132 L 195 138 L 189 138 Z M 189 132 " clip-rule="nonzero"/></clipPath><clipPath id="31c67472ec"><path d="M 205.226562 150.164062 L 178.445312 153.46875 L 175.597656 130.40625 L 202.382812 127.101562 Z M 205.226562 150.164062 " clip-rule="nonzero"/></clipPath><clipPath id="fe7b13d736"><path d="M 205.226562 150.164062 L 178.445312 153.46875 L 175.597656 130.40625 L 202.382812 127.101562 Z M 205.226562 150.164062 " clip-rule="nonzero"/></clipPath><clipPath id="f8da99f1d3"><path d="M 186 135 L 193 135 L 193 146 L 186 146 Z M 186 135 " clip-rule="nonzero"/></clipPath><clipPath id="4dd2695327"><path d="M 205.226562 150.164062 L 178.445312 153.46875 L 175.597656 130.40625 L 202.382812 127.101562 Z M 205.226562 150.164062 " clip-rule="nonzero"/></clipPath><clipPath id="9d798e00ac"><path d="M 205.226562 150.164062 L 178.445312 153.46875 L 175.597656 130.40625 L 202.382812 127.101562 Z M 205.226562 150.164062 " clip-rule="nonzero"/></clipPath><clipPath id="b6e8805acc"><path d="M 182 137 L 186 137 L 186 145 L 182 145 Z M 182 137 " clip-rule="nonzero"/></clipPath><clipPath id="b979d66de2"><path d="M 205.226562 150.164062 L 178.445312 153.46875 L 175.597656 130.40625 L 202.382812 127.101562 Z M 205.226562 150.164062 " clip-rule="nonzero"/></clipPath><clipPath id="0cd8b9372d"><path d="M 205.226562 150.164062 L 178.445312 153.46875 L 175.597656 130.40625 L 202.382812 127.101562 Z M 205.226562 150.164062 " clip-rule="nonzero"/></clipPath><clipPath id="86178b714d"><path d="M 178 139 L 181 139 L 181 150 L 178 150 Z M 178 139 " clip-rule="nonzero"/></clipPath><clipPath id="ea96e8b0b7"><path d="M 205.226562 150.164062 L 178.445312 153.46875 L 175.597656 130.40625 L 202.382812 127.101562 Z M 205.226562 150.164062 " clip-rule="nonzero"/></clipPath><clipPath id="8467ed5345"><path d="M 205.226562 150.164062 L 178.445312 153.46875 L 175.597656 130.40625 L 202.382812 127.101562 Z M 205.226562 150.164062 " clip-rule="nonzero"/></clipPath><clipPath id="56bd959268"><path d="M 178 152 L 180 152 L 180 154 L 178 154 Z M 178 152 " clip-rule="nonzero"/></clipPath><clipPath id="35e76e9a96"><path d="M 205.226562 150.164062 L 178.445312 153.46875 L 175.597656 130.40625 L 202.382812 127.101562 Z M 205.226562 150.164062 " clip-rule="nonzero"/></clipPath><clipPath id="1e7669d5b1"><path d="M 205.226562 150.164062 L 178.445312 153.46875 L 175.597656 130.40625 L 202.382812 127.101562 Z M 205.226562 150.164062 " clip-rule="nonzero"/></clipPath><clipPath id="ff7e73ec80"><path d="M 195 140 L 197 140 L 197 142 L 195 142 Z M 195 140 " clip-rule="nonzero"/></clipPath><clipPath id="3b140b50f5"><path d="M 205.226562 150.164062 L 178.445312 153.46875 L 175.597656 130.40625 L 202.382812 127.101562 Z M 205.226562 150.164062 " clip-rule="nonzero"/></clipPath><clipPath id="2f1399e09a"><path d="M 205.226562 150.164062 L 178.445312 153.46875 L 175.597656 130.40625 L 202.382812 127.101562 Z M 205.226562 150.164062 " clip-rule="nonzero"/></clipPath><clipPath id="b163cbb15e"><path d="M 185 147 L 187 147 L 187 149 L 185 149 Z M 185 147 " clip-rule="nonzero"/></clipPath><clipPath id="f6418bb3ff"><path d="M 205.226562 150.164062 L 178.445312 153.46875 L 175.597656 130.40625 L 202.382812 127.101562 Z M 205.226562 150.164062 " clip-rule="nonzero"/></clipPath><clipPath id="4849336c33"><path d="M 205.226562 150.164062 L 178.445312 153.46875 L 175.597656 130.40625 L 202.382812 127.101562 Z M 205.226562 150.164062 " clip-rule="nonzero"/></clipPath><clipPath id="10461c1a98"><path d="M 202 134 L 204 134 L 204 136 L 202 136 Z M 202 134 " clip-rule="nonzero"/></clipPath><clipPath id="0839b977f7"><path d="M 205.226562 150.164062 L 178.445312 153.46875 L 175.597656 130.40625 L 202.382812 127.101562 Z M 205.226562 150.164062 " clip-rule="nonzero"/></clipPath><clipPath id="ea5c6a399e"><path d="M 205.226562 150.164062 L 178.445312 153.46875 L 175.597656 130.40625 L 202.382812 127.101562 Z M 205.226562 150.164062 " clip-rule="nonzero"/></clipPath><clipPath id="c0cece280f"><path d="M 45.546875 130.148438 L 58.289062 130.148438 L 58.289062 142.894531 L 45.546875 142.894531 Z M 45.546875 130.148438 " clip-rule="nonzero"/></clipPath><clipPath id="fe762e4f7c"><path d="M 171.515625 77.484375 L 184.257812 77.484375 L 184.257812 90.226562 L 171.515625 90.226562 Z M 171.515625 77.484375 " clip-rule="nonzero"/></clipPath><clipPath id="bd3994109f"><path d="M 167.640625 65.324219 L 178.132812 65.324219 L 178.132812 75.816406 L 167.640625 75.816406 Z M 167.640625 65.324219 " clip-rule="nonzero"/></clipPath></defs><g clip-path="url(#6aaae07fe5)"><g clip-path="url(#74f6264f6a)"><g clip-path="url(#42f93b10d0)"><path fill="#dea600" d="M 45.296875 81 C 42.449219 79.722656 39.597656 78.445312 36.75 77.171875 C 36.113281 76.886719 35.738281 77.90625 36.371094 78.191406 C 39.21875 79.464844 42.070312 80.742188 44.917969 82.019531 C 45.554688 82.304688 45.929688 81.28125 45.296875 81 Z M 45.296875 81 " fill-opacity="1" fill-rule="nonzero"/></g></g></g><g clip-path="url(#8e5856fb28)"><g clip-path="url(#2585f0d342)"><g clip-path="url(#28ff03eb3d)"><path fill="#dea600" d="M 46.539062 77.222656 C 45.296875 76.117188 44.058594 75.007812 42.816406 73.902344 C 42.597656 73.707031 42.222656 73.808594 42.066406 74.03125 C 41.882812 74.289062 41.972656 74.59375 42.195312 74.789062 C 43.433594 75.898438 44.675781 77.003906 45.917969 78.109375 C 46.136719 78.304688 46.511719 78.203125 46.667969 77.984375 C 46.851562 77.722656 46.757812 77.417969 46.539062 77.222656 Z M 46.539062 77.222656 " fill-opacity="1" fill-rule="nonzero"/></g></g></g><g clip-path="url(#a1b8cd24be)"><g clip-path="url(#9b783d101f)"><g clip-path="url(#3813b73aaa)"><path fill="#dea600" d="M 49.757812 74.277344 C 47.644531 71.664062 45.726562 68.894531 44.027344 65.992188 C 43.675781 65.394531 42.695312 65.84375 43.050781 66.453125 C 44.800781 69.4375 46.761719 72.289062 48.933594 74.976562 C 49.371094 75.519531 50.199219 74.824219 49.757812 74.277344 Z M 49.757812 74.277344 " fill-opacity="1" fill-rule="nonzero"/></g></g></g><g clip-path="url(#11faf0f04d)"><g clip-path="url(#51d48490a0)"><g clip-path="url(#3800dfc648)"><path fill="#dea600" d="M 53.464844 72 C 52.964844 70.078125 52.222656 68.234375 51.230469 66.519531 C 51.085938 66.265625 50.796875 66.121094 50.515625 66.253906 C 50.269531 66.367188 50.109375 66.722656 50.257812 66.976562 C 51.199219 68.605469 51.929688 70.355469 52.40625 72.179688 C 52.480469 72.460938 52.722656 72.675781 53.027344 72.625 C 53.292969 72.582031 53.539062 72.285156 53.464844 72 Z M 53.464844 72 " fill-opacity="1" fill-rule="nonzero"/></g></g></g><g clip-path="url(#85f217b068)"><g clip-path="url(#a703768921)"><g clip-path="url(#1478a6e85c)"><path fill="#dea600" d="M 57.054688 70.636719 C 56.671875 67.578125 56.539062 64.5 56.664062 61.425781 C 56.691406 60.726562 55.621094 60.609375 55.59375 61.3125 C 55.464844 64.484375 55.597656 67.664062 55.992188 70.816406 C 56.078125 71.511719 57.140625 71.332031 57.054688 70.636719 Z M 57.054688 70.636719 " fill-opacity="1" fill-rule="nonzero"/></g></g></g><g clip-path="url(#41e668d14c)"><g clip-path="url(#2365ebc45a)"><g clip-path="url(#e946910bd8)"><path fill="#dea600" d="M 56.308594 58.023438 C 56.992188 57.910156 56.808594 56.832031 56.125 56.949219 C 55.441406 57.0625 55.625 58.140625 56.308594 58.023438 Z M 56.308594 58.023438 " fill-opacity="1" fill-rule="nonzero"/></g></g></g><g clip-path="url(#075a63fca4)"><g clip-path="url(#b770b69bae)"><g clip-path="url(#08ae138d80)"><path fill="#dea600" d="M 40.117188 70.992188 C 40.796875 70.875 40.617188 69.800781 39.933594 69.917969 C 39.25 70.03125 39.433594 71.105469 40.117188 70.992188 Z M 40.117188 70.992188 " fill-opacity="1" fill-rule="nonzero"/></g></g></g><g clip-path="url(#8eea2a96cd)"><g clip-path="url(#e5f3b77daa)"><g clip-path="url(#0aabf26636)"><path fill="#dea600" d="M 49.609375 63.175781 C 50.292969 63.058594 50.109375 61.984375 49.425781 62.101562 C 48.742188 62.214844 48.925781 63.292969 49.609375 63.175781 Z M 49.609375 63.175781 " fill-opacity="1" fill-rule="nonzero"/></g></g></g><g clip-path="url(#5bf6f339c7)"><g clip-path="url(#78951b9776)"><g clip-path="url(#1a0ce79429)"><path fill="#dea600" d="M 33.597656 77.207031 C 34.28125 77.09375 34.097656 76.015625 33.414062 76.132812 C 32.730469 76.25 32.914062 77.324219 33.597656 77.207031 Z M 33.597656 77.207031 " fill-opacity="1" fill-rule="nonzero"/></g></g></g><g clip-path="url(#0037f7df94)"><g clip-path="url(#fa533c5717)"><g clip-path="url(#54a679baa2)"><path fill="#dea600" d="M 191.027344 129.839844 C 193.820312 131.246094 196.609375 132.648438 199.398438 134.050781 C 200.023438 134.363281 200.441406 133.359375 199.824219 133.046875 C 197.03125 131.644531 194.242188 130.242188 191.453125 128.839844 C 190.828125 128.527344 190.410156 129.53125 191.027344 129.839844 Z M 191.027344 129.839844 " fill-opacity="1" fill-rule="nonzero"/></g></g></g><g clip-path="url(#269c43bcf4)"><g clip-path="url(#31c67472ec)"><g clip-path="url(#fe7b13d736)"><path fill="#dea600" d="M 189.621094 133.558594 C 190.8125 134.71875 192 135.882812 193.191406 137.042969 C 193.402344 137.246094 193.78125 137.164062 193.945312 136.949219 C 194.140625 136.699219 194.0625 136.390625 193.851562 136.183594 C 192.664062 135.023438 191.472656 133.863281 190.28125 132.699219 C 190.070312 132.496094 189.691406 132.578125 189.527344 132.792969 C 189.332031 133.046875 189.410156 133.355469 189.621094 133.558594 Z M 189.621094 133.558594 " fill-opacity="1" fill-rule="nonzero"/></g></g></g><g clip-path="url(#f8da99f1d3)"><g clip-path="url(#4dd2695327)"><g clip-path="url(#9d798e00ac)"><path fill="#dea600" d="M 186.273438 136.359375 C 188.265625 139.0625 190.058594 141.914062 191.628906 144.890625 C 191.949219 145.503906 192.949219 145.097656 192.621094 144.476562 C 191.007812 141.414062 189.175781 138.480469 187.128906 135.699219 C 186.714844 135.132812 185.859375 135.792969 186.273438 136.359375 Z M 186.273438 136.359375 " fill-opacity="1" fill-rule="nonzero"/></g></g></g><g clip-path="url(#b6e8805acc)"><g clip-path="url(#b979d66de2)"><g clip-path="url(#0cd8b9372d)"><path fill="#dea600" d="M 182.46875 138.46875 C 182.878906 140.410156 183.539062 142.285156 184.453125 144.042969 C 184.589844 144.304688 184.871094 144.457031 185.15625 144.339844 C 185.40625 144.234375 185.585938 143.890625 185.449219 143.628906 C 184.578125 141.957031 183.925781 140.179688 183.535156 138.335938 C 183.472656 138.046875 183.242188 137.824219 182.933594 137.859375 C 182.664062 137.894531 182.40625 138.179688 182.46875 138.46875 Z M 182.46875 138.46875 " fill-opacity="1" fill-rule="nonzero"/></g></g></g><g clip-path="url(#86178b714d)"><g clip-path="url(#ea96e8b0b7)"><g clip-path="url(#8467ed5345)"><path fill="#dea600" d="M 178.820312 139.667969 C 179.066406 142.738281 179.058594 145.820312 178.796875 148.886719 C 178.738281 149.582031 179.804688 149.746094 179.863281 149.046875 C 180.132812 145.886719 180.144531 142.703125 179.890625 139.535156 C 179.835938 138.835938 178.765625 138.96875 178.820312 139.667969 Z M 178.820312 139.667969 " fill-opacity="1" fill-rule="nonzero"/></g></g></g><g clip-path="url(#56bd959268)"><g clip-path="url(#35e76e9a96)"><g clip-path="url(#1e7669d5b1)"><path fill="#dea600" d="M 179 152.300781 C 178.3125 152.386719 178.445312 153.46875 179.136719 153.382812 C 179.820312 153.296875 179.691406 152.214844 179 152.300781 Z M 179 152.300781 " fill-opacity="1" fill-rule="nonzero"/></g></g></g><g clip-path="url(#ff7e73ec80)"><g clip-path="url(#3b140b50f5)"><g clip-path="url(#2f1399e09a)"><path fill="#dea600" d="M 195.757812 140.070312 C 195.070312 140.15625 195.203125 141.238281 195.890625 141.15625 C 196.578125 141.070312 196.445312 139.988281 195.757812 140.070312 Z M 195.757812 140.070312 " fill-opacity="1" fill-rule="nonzero"/></g></g></g><g clip-path="url(#b163cbb15e)"><g clip-path="url(#f6418bb3ff)"><g clip-path="url(#4849336c33)"><path fill="#dea600" d="M 185.925781 147.453125 C 185.238281 147.539062 185.371094 148.621094 186.058594 148.539062 C 186.746094 148.453125 186.613281 147.371094 185.925781 147.453125 Z M 185.925781 147.453125 " fill-opacity="1" fill-rule="nonzero"/></g></g></g><g clip-path="url(#10461c1a98)"><g clip-path="url(#0839b977f7)"><g clip-path="url(#ea5c6a399e)"><path fill="#dea600" d="M 202.550781 134.152344 C 201.863281 134.238281 201.992188 135.320312 202.683594 135.234375 C 203.371094 135.152344 203.238281 134.066406 202.550781 134.152344 Z M 202.550781 134.152344 " fill-opacity="1" fill-rule="nonzero"/></g></g></g><g fill="#ffded0" fill-opacity="1"><g transform="translate(49.417295, 101.432141)"><g><path d="M 20.9375 -0.1875 C 25.667969 1.5 25.253906 -8.144531 25.140625 -10.246094 C 25.027344 -13.019531 24.652344 -15.796875 24.164062 -18.574219 C 23.867188 -20.261719 23.753906 -22.476562 22.363281 -23.679688 C 18.648438 -26.941406 14.785156 -20.902344 13.132812 -18.3125 C 11.332031 -20.902344 6.90625 -26.605469 3.601562 -22.589844 C 2.4375 -21.125 2.363281 -18.949219 2.101562 -17.1875 C 1.652344 -14.222656 1.199219 -11.21875 0.902344 -8.21875 C 0.636719 -6.078125 0.113281 -3.339844 1.425781 -1.425781 C 2.589844 0.226562 4.390625 0.226562 5.589844 -1.386719 C 8.253906 -4.992188 6.492188 -10.246094 8.179688 -14.070312 C 9.230469 -12.34375 10.582031 -8.667969 12.945312 -8.519531 C 15.199219 -8.367188 17.335938 -11.292969 18.761719 -12.722656 C 19.136719 -9.90625 18.988281 -7.128906 19.175781 -4.316406 C 19.25 -2.925781 19.363281 -0.789062 20.9375 -0.1875 Z M 20.9375 -0.1875 "/></g></g></g><g fill="#ffded0" fill-opacity="1"><g transform="translate(74.0573, 101.432141)"><g><path d="M 10.65625 -1.050781 C 12.683594 -3.003906 12.457031 -6.042969 12.15625 -9.867188 C 11.859375 -12.269531 11.933594 -12.871094 13.285156 -14.820312 C 14.148438 -16.097656 15.011719 -17.410156 15.683594 -18.835938 C 16.398438 -20.375 17.75 -23.566406 15.574219 -24.578125 C 12.195312 -26.191406 10.207031 -20.226562 8.929688 -18.125 C 7.84375 -20.488281 7.46875 -23.976562 4.878906 -25.253906 C 1.839844 -26.753906 0 -24.164062 0.714844 -21.390625 C 1.464844 -18.3125 4.242188 -15.871094 4.617188 -12.871094 C 4.953125 -9.832031 3.527344 -4.351562 5.289062 -1.652344 C 6.71875 0.488281 9.71875 0.675781 10.65625 -1.050781 Z M 10.65625 -1.050781 "/></g></g></g><g fill="#ffded0" fill-opacity="1"><g transform="translate(89.696167, 101.432141)"><g/></g></g><g fill="#ffded0" fill-opacity="1"><g transform="translate(97.946606, 101.432141)"><g><path d="M 20.9375 -0.1875 C 25.667969 1.5 25.253906 -8.144531 25.140625 -10.246094 C 25.027344 -13.019531 24.652344 -15.796875 24.164062 -18.574219 C 23.867188 -20.261719 23.753906 -22.476562 22.363281 -23.679688 C 18.648438 -26.941406 14.785156 -20.902344 13.132812 -18.3125 C 11.332031 -20.902344 6.90625 -26.605469 3.601562 -22.589844 C 2.4375 -21.125 2.363281 -18.949219 2.101562 -17.1875 C 1.652344 -14.222656 1.199219 -11.21875 0.902344 -8.21875 C 0.636719 -6.078125 0.113281 -3.339844 1.425781 -1.425781 C 2.589844 0.226562 4.390625 0.226562 5.589844 -1.386719 C 8.253906 -4.992188 6.492188 -10.246094 8.179688 -14.070312 C 9.230469 -12.34375 10.582031 -8.667969 12.945312 -8.519531 C 15.199219 -8.367188 17.335938 -11.292969 18.761719 -12.722656 C 19.136719 -9.90625 18.988281 -7.128906 19.175781 -4.316406 C 19.25 -2.925781 19.363281 -0.789062 20.9375 -0.1875 Z M 20.9375 -0.1875 "/></g></g></g><g fill="#ffded0" fill-opacity="1"><g transform="translate(122.586611, 101.432141)"><g><path d="M 6.230469 -0.0742188 C 8.554688 -0.1875 10.882812 -0.148438 13.171875 -0.261719 C 15.085938 -0.375 16.511719 -0.636719 17.261719 -2.515625 C 17.710938 -3.753906 17.972656 -6.003906 16.734375 -6.941406 C 15.347656 -7.957031 13.171875 -7.503906 11.59375 -7.578125 C 10.167969 -7.65625 6.492188 -8.816406 8.628906 -10.808594 C 9.90625 -12.007812 11.894531 -10.582031 13.394531 -10.996094 C 15.046875 -11.484375 15.421875 -13.359375 15.234375 -14.898438 C 15.121094 -16.210938 14.671875 -16.960938 13.394531 -17.449219 C 12.15625 -17.898438 9.570312 -17.074219 8.59375 -17.785156 C 7.28125 -18.726562 8.480469 -20.488281 9.417969 -20.675781 C 10.84375 -21.015625 12.382812 -20.039062 13.882812 -20.636719 C 15.199219 -21.164062 15.871094 -22.402344 15.683594 -23.828125 C 15.421875 -25.816406 13.773438 -26.15625 12.046875 -26.417969 C 9.492188 -26.792969 2.738281 -28.070312 1.613281 -24.917969 C 1.125 -23.566406 1.386719 -21.6875 1.3125 -20.300781 C 1.238281 -17.785156 1.125 -15.273438 1.011719 -12.757812 C 0.902344 -10.621094 0.824219 -8.480469 0.714844 -6.339844 C 0.636719 -4.652344 0.148438 -2.214844 1.5 -0.902344 C 2.738281 0.300781 4.726562 -0.0390625 6.230469 -0.0742188 Z M 6.230469 -0.0742188 "/></g></g></g><g fill="#ffded0" fill-opacity="1"><g transform="translate(139.650669, 101.432141)"><g><path d="M 2.890625 -0.226562 C 4.242188 0.1875 5.929688 0.0742188 6.828125 -1.050781 C 7.804688 -2.25 7.503906 -5.214844 8.59375 -6.117188 C 9.195312 -6.566406 14.445312 -6.152344 14.632812 -6.003906 C 15.648438 -5.140625 15.835938 -2.738281 16.585938 -1.652344 C 17.636719 -0.113281 19.023438 -0.0390625 20.488281 -1.199219 C 21.953125 -2.402344 21.800781 -3.640625 21.203125 -5.289062 L 16.8125 -17.636719 C 15.761719 -20.636719 15.046875 -25.253906 11.105469 -25.179688 C 7.617188 -25.066406 5.890625 -22.964844 4.878906 -19.886719 C 3.675781 -16.25 2.550781 -12.570312 1.652344 -8.855469 C 0.976562 -6.078125 -0.976562 -1.351562 2.890625 -0.226562 Z M 10.320312 -11.445312 C 10.65625 -12.570312 11.03125 -13.695312 11.371094 -14.820312 C 11.671875 -13.808594 12.007812 -12.832031 12.34375 -11.820312 C 11.671875 -11.707031 10.996094 -11.558594 10.320312 -11.445312 Z M 10.320312 -11.445312 "/></g></g></g><g fill="#ffded0" fill-opacity="1"><g transform="translate(160.727716, 101.432141)"><g><path d="M 14.523438 -0.601562 C 16.960938 -1.953125 17.035156 -5.742188 14.746094 -7.28125 C 13.097656 -8.367188 11.371094 -7.992188 9.53125 -8.332031 C 8.144531 -8.59375 8.40625 -7.957031 8.179688 -9.53125 C 8.066406 -10.355469 8.292969 -11.332031 8.332031 -12.15625 C 8.441406 -15.496094 9.007812 -19.625 7.917969 -22.890625 C 7.054688 -25.554688 4.277344 -26.53125 2.328125 -24.242188 C 0.488281 -22.066406 0.636719 -18.273438 0.636719 -15.648438 C 0.601562 -12.535156 0.449219 -9.15625 0.75 -6.042969 C 1.089844 -2.589844 3.300781 -1.164062 6.566406 -0.636719 C 8.816406 -0.261719 12.421875 0.5625 14.523438 -0.601562 Z M 14.523438 -0.601562 "/></g></g></g><g fill="#6897ec" fill-opacity="1"><g transform="translate(48.289597, 100.304447)"><g><path d="M 20.9375 -0.1875 C 25.667969 1.5 25.253906 -8.144531 25.140625 -10.246094 C 25.027344 -13.019531 24.652344 -15.796875 24.164062 -18.574219 C 23.867188 -20.261719 23.753906 -22.476562 22.363281 -23.679688 C 18.648438 -26.941406 14.785156 -20.902344 13.132812 -18.3125 C 11.332031 -20.902344 6.90625 -26.605469 3.601562 -22.589844 C 2.4375 -21.125 2.363281 -18.949219 2.101562 -17.1875 C 1.652344 -14.222656 1.199219 -11.21875 0.902344 -8.21875 C 0.636719 -6.078125 0.113281 -3.339844 1.425781 -1.425781 C 2.589844 0.226562 4.390625 0.226562 5.589844 -1.386719 C 8.253906 -4.992188 6.492188 -10.246094 8.179688 -14.070312 C 9.230469 -12.34375 10.582031 -8.667969 12.945312 -8.519531 C 15.199219 -8.367188 17.335938 -11.292969 18.761719 -12.722656 C 19.136719 -9.90625 18.988281 -7.128906 19.175781 -4.316406 C 19.25 -2.925781 19.363281 -0.789062 20.9375 -0.1875 Z M 20.9375 -0.1875 "/></g></g></g><g fill="#6897ec" fill-opacity="1"><g transform="translate(72.929602, 100.304447)"><g><path d="M 10.65625 -1.050781 C 12.683594 -3.003906 12.457031 -6.042969 12.15625 -9.867188 C 11.859375 -12.269531 11.933594 -12.871094 13.285156 -14.820312 C 14.148438 -16.097656 15.011719 -17.410156 15.683594 -18.835938 C 16.398438 -20.375 17.75 -23.566406 15.574219 -24.578125 C 12.195312 -26.191406 10.207031 -20.226562 8.929688 -18.125 C 7.84375 -20.488281 7.46875 -23.976562 4.878906 -25.253906 C 1.839844 -26.753906 0 -24.164062 0.714844 -21.390625 C 1.464844 -18.3125 4.242188 -15.871094 4.617188 -12.871094 C 4.953125 -9.832031 3.527344 -4.351562 5.289062 -1.652344 C 6.71875 0.488281 9.71875 0.675781 10.65625 -1.050781 Z M 10.65625 -1.050781 "/></g></g></g><g fill="#6897ec" fill-opacity="1"><g transform="translate(88.56847, 100.304447)"><g/></g></g><g fill="#6897ec" fill-opacity="1"><g transform="translate(96.818908, 100.304447)"><g><path d="M 20.9375 -0.1875 C 25.667969 1.5 25.253906 -8.144531 25.140625 -10.246094 C 25.027344 -13.019531 24.652344 -15.796875 24.164062 -18.574219 C 23.867188 -20.261719 23.753906 -22.476562 22.363281 -23.679688 C 18.648438 -26.941406 14.785156 -20.902344 13.132812 -18.3125 C 11.332031 -20.902344 6.90625 -26.605469 3.601562 -22.589844 C 2.4375 -21.125 2.363281 -18.949219 2.101562 -17.1875 C 1.652344 -14.222656 1.199219 -11.21875 0.902344 -8.21875 C 0.636719 -6.078125 0.113281 -3.339844 1.425781 -1.425781 C 2.589844 0.226562 4.390625 0.226562 5.589844 -1.386719 C 8.253906 -4.992188 6.492188 -10.246094 8.179688 -14.070312 C 9.230469 -12.34375 10.582031 -8.667969 12.945312 -8.519531 C 15.199219 -8.367188 17.335938 -11.292969 18.761719 -12.722656 C 19.136719 -9.90625 18.988281 -7.128906 19.175781 -4.316406 C 19.25 -2.925781 19.363281 -0.789062 20.9375 -0.1875 Z M 20.9375 -0.1875 "/></g></g></g><g fill="#6897ec" fill-opacity="1"><g transform="translate(121.458913, 100.304447)"><g><path d="M 6.230469 -0.0742188 C 8.554688 -0.1875 10.882812 -0.148438 13.171875 -0.261719 C 15.085938 -0.375 16.511719 -0.636719 17.261719 -2.515625 C 17.710938 -3.753906 17.972656 -6.003906 16.734375 -6.941406 C 15.347656 -7.957031 13.171875 -7.503906 11.59375 -7.578125 C 10.167969 -7.65625 6.492188 -8.816406 8.628906 -10.808594 C 9.90625 -12.007812 11.894531 -10.582031 13.394531 -10.996094 C 15.046875 -11.484375 15.421875 -13.359375 15.234375 -14.898438 C 15.121094 -16.210938 14.671875 -16.960938 13.394531 -17.449219 C 12.15625 -17.898438 9.570312 -17.074219 8.59375 -17.785156 C 7.28125 -18.726562 8.480469 -20.488281 9.417969 -20.675781 C 10.84375 -21.015625 12.382812 -20.039062 13.882812 -20.636719 C 15.199219 -21.164062 15.871094 -22.402344 15.683594 -23.828125 C 15.421875 -25.816406 13.773438 -26.15625 12.046875 -26.417969 C 9.492188 -26.792969 2.738281 -28.070312 1.613281 -24.917969 C 1.125 -23.566406 1.386719 -21.6875 1.3125 -20.300781 C 1.238281 -17.785156 1.125 -15.273438 1.011719 -12.757812 C 0.902344 -10.621094 0.824219 -8.480469 0.714844 -6.339844 C 0.636719 -4.652344 0.148438 -2.214844 1.5 -0.902344 C 2.738281 0.300781 4.726562 -0.0390625 6.230469 -0.0742188 Z M 6.230469 -0.0742188 "/></g></g></g><g fill="#6897ec" fill-opacity="1"><g transform="translate(138.522971, 100.304447)"><g><path d="M 2.890625 -0.226562 C 4.242188 0.1875 5.929688 0.0742188 6.828125 -1.050781 C 7.804688 -2.25 7.503906 -5.214844 8.59375 -6.117188 C 9.195312 -6.566406 14.445312 -6.152344 14.632812 -6.003906 C 15.648438 -5.140625 15.835938 -2.738281 16.585938 -1.652344 C 17.636719 -0.113281 19.023438 -0.0390625 20.488281 -1.199219 C 21.953125 -2.402344 21.800781 -3.640625 21.203125 -5.289062 L 16.8125 -17.636719 C 15.761719 -20.636719 15.046875 -25.253906 11.105469 -25.179688 C 7.617188 -25.066406 5.890625 -22.964844 4.878906 -19.886719 C 3.675781 -16.25 2.550781 -12.570312 1.652344 -8.855469 C 0.976562 -6.078125 -0.976562 -1.351562 2.890625 -0.226562 Z M 10.320312 -11.445312 C 10.65625 -12.570312 11.03125 -13.695312 11.371094 -14.820312 C 11.671875 -13.808594 12.007812 -12.832031 12.34375 -11.820312 C 11.671875 -11.707031 10.996094 -11.558594 10.320312 -11.445312 Z M 10.320312 -11.445312 "/></g></g></g><g fill="#6897ec" fill-opacity="1"><g transform="translate(159.600018, 100.304447)"><g><path d="M 14.523438 -0.601562 C 16.960938 -1.953125 17.035156 -5.742188 14.746094 -7.28125 C 13.097656 -8.367188 11.371094 -7.992188 9.53125 -8.332031 C 8.144531 -8.59375 8.40625 -7.957031 8.179688 -9.53125 C 8.066406 -10.355469 8.292969 -11.332031 8.332031 -12.15625 C 8.441406 -15.496094 9.007812 -19.625 7.917969 -22.890625 C 7.054688 -25.554688 4.277344 -26.53125 2.328125 -24.242188 C 0.488281 -22.066406 0.636719 -18.273438 0.636719 -15.648438 C 0.601562 -12.535156 0.449219 -9.15625 0.75 -6.042969 C 1.089844 -2.589844 3.300781 -1.164062 6.566406 -0.636719 C 8.816406 -0.261719 12.421875 0.5625 14.523438 -0.601562 Z M 14.523438 -0.601562 "/></g></g></g><g fill="#ffded0" fill-opacity="1"><g transform="translate(40.417721, 133.349266)"><g><path d="M 5.230469 -0.0429688 C 8.496094 -0.460938 8.289062 -4.605469 8.289062 -7.074219 C 8.289062 -8.957031 8.078125 -11.96875 9.710938 -13.394531 C 10.882812 -14.398438 13.101562 -14.773438 14.441406 -15.613281 C 17.242188 -17.328125 19.921875 -19.964844 19.503906 -23.523438 C 18.707031 -30.136719 10.964844 -31.390625 5.566406 -31.222656 C 0.753906 -31.054688 1.214844 -26.621094 1.003906 -22.683594 C 0.753906 -17.664062 0.878906 -12.640625 0.628906 -7.574219 C 0.503906 -4.6875 1.003906 0.503906 5.230469 -0.0429688 Z M 10.757812 -18.457031 C 8.453125 -17.746094 8.832031 -18.960938 8.914062 -20.757812 C 8.957031 -22.601562 8.121094 -26.828125 10.964844 -25.40625 C 12.304688 -24.695312 13.101562 -22.976562 13.015625 -21.511719 C 12.976562 -20.007812 12.222656 -18.917969 10.757812 -18.457031 Z M 10.757812 -18.457031 "/></g></g></g><g fill="#ffded0" fill-opacity="1"><g transform="translate(58.707104, 133.349266)"><g><path d="M 16.199219 -0.667969 C 18.917969 -2.175781 19 -6.402344 16.449219 -8.121094 C 14.605469 -9.332031 12.683594 -8.914062 10.632812 -9.292969 C 9.082031 -9.585938 9.375 -8.875 9.125 -10.632812 C 9 -11.550781 9.25 -12.640625 9.292969 -13.5625 C 9.417969 -17.285156 10.046875 -21.890625 8.832031 -25.53125 C 7.867188 -28.503906 4.769531 -29.589844 2.59375 -27.039062 C 0.542969 -24.609375 0.710938 -20.382812 0.710938 -17.453125 C 0.667969 -13.980469 0.503906 -10.210938 0.835938 -6.738281 C 1.214844 -2.886719 3.683594 -1.296875 7.324219 -0.710938 C 9.835938 -0.292969 13.855469 0.628906 16.199219 -0.667969 Z M 16.199219 -0.667969 "/></g></g></g><g fill="#ffded0" fill-opacity="1"><g transform="translate(76.368684, 133.349266)"><g><path d="M 3.222656 -0.25 C 4.730469 0.210938 6.613281 0.0820312 7.617188 -1.171875 C 8.707031 -2.511719 8.371094 -5.816406 9.585938 -6.820312 C 10.253906 -7.324219 16.113281 -6.863281 16.324219 -6.695312 C 17.453125 -5.734375 17.664062 -3.054688 18.5 -1.839844 C 19.671875 -0.125 21.21875 -0.0429688 22.851562 -1.339844 C 24.484375 -2.679688 24.316406 -4.058594 23.648438 -5.902344 L 18.75 -19.671875 C 17.578125 -23.019531 16.785156 -28.167969 12.390625 -28.085938 C 8.496094 -27.957031 6.570312 -25.613281 5.441406 -22.183594 C 4.101562 -18.121094 2.847656 -14.019531 1.839844 -9.878906 C 1.089844 -6.78125 -1.089844 -1.507812 3.222656 -0.25 Z M 11.511719 -12.765625 C 11.886719 -14.019531 12.304688 -15.277344 12.683594 -16.53125 C 13.015625 -15.402344 13.394531 -14.3125 13.769531 -13.183594 C 13.015625 -13.058594 12.261719 -12.890625 11.511719 -12.765625 Z M 11.511719 -12.765625 "/></g></g></g><g fill="#ffded0" fill-opacity="1"><g transform="translate(99.88967, 133.349266)"><g><path d="M 1.96875 -0.796875 C 5.941406 3.433594 7.785156 -10.589844 8.203125 -12.304688 C 9.917969 -9.5 16.785156 4.8125 20.59375 -3.390625 C 22.976562 -8.453125 22.308594 -16.992188 21.511719 -22.183594 C 21.136719 -24.988281 18.164062 -26.160156 16.113281 -24.023438 C 13.980469 -21.765625 14.859375 -17.328125 15.027344 -14.605469 C 13.351562 -17.203125 12.429688 -20.046875 10.839844 -22.601562 C 9.585938 -24.695312 6.863281 -26.453125 4.394531 -25.238281 C 0.460938 -23.269531 1.089844 -14.398438 0.878906 -10.671875 C 0.753906 -8.078125 0.0429688 -2.886719 1.96875 -0.796875 Z M 1.96875 -0.796875 "/></g></g></g><g fill="#ffded0" fill-opacity="1"><g transform="translate(121.52727, 133.349266)"><g><path d="M 1.96875 -0.796875 C 5.941406 3.433594 7.785156 -10.589844 8.203125 -12.304688 C 9.917969 -9.5 16.785156 4.8125 20.59375 -3.390625 C 22.976562 -8.453125 22.308594 -16.992188 21.511719 -22.183594 C 21.136719 -24.988281 18.164062 -26.160156 16.113281 -24.023438 C 13.980469 -21.765625 14.859375 -17.328125 15.027344 -14.605469 C 13.351562 -17.203125 12.429688 -20.046875 10.839844 -22.601562 C 9.585938 -24.695312 6.863281 -26.453125 4.394531 -25.238281 C 0.460938 -23.269531 1.089844 -14.398438 0.878906 -10.671875 C 0.753906 -8.078125 0.0429688 -2.886719 1.96875 -0.796875 Z M 1.96875 -0.796875 "/></g></g></g><g fill="#ffded0" fill-opacity="1"><g transform="translate(143.164871, 133.349266)"><g><path d="M 6.949219 -0.0820312 C 9.542969 -0.210938 12.136719 -0.167969 14.691406 -0.292969 C 16.824219 -0.417969 18.414062 -0.710938 19.253906 -2.804688 C 19.753906 -4.183594 20.046875 -6.695312 18.667969 -7.742188 C 17.117188 -8.875 14.691406 -8.371094 12.933594 -8.453125 C 11.34375 -8.539062 7.242188 -9.835938 9.625 -12.054688 C 11.050781 -13.394531 13.269531 -11.804688 14.941406 -12.261719 C 16.785156 -12.808594 17.203125 -14.898438 16.992188 -16.617188 C 16.867188 -18.082031 16.363281 -18.917969 14.941406 -19.460938 C 13.5625 -19.964844 10.671875 -19.042969 9.585938 -19.839844 C 8.121094 -20.886719 9.460938 -22.851562 10.503906 -23.0625 C 12.097656 -23.4375 13.8125 -22.351562 15.484375 -23.019531 C 16.949219 -23.605469 17.703125 -24.988281 17.496094 -26.578125 C 17.203125 -28.796875 15.359375 -29.171875 13.433594 -29.464844 C 10.589844 -29.882812 3.054688 -31.308594 1.800781 -27.792969 C 1.253906 -26.285156 1.546875 -24.191406 1.464844 -22.644531 C 1.382812 -19.839844 1.253906 -17.035156 1.128906 -14.230469 C 1.003906 -11.84375 0.921875 -9.460938 0.796875 -7.074219 C 0.710938 -5.191406 0.167969 -2.46875 1.675781 -1.003906 C 3.054688 0.335938 5.273438 -0.0429688 6.949219 -0.0820312 Z M 6.949219 -0.0820312 "/></g></g></g><g fill="#ffded0" fill-opacity="1"><g transform="translate(162.207594, 133.349266)"><g><path d="M 22.558594 -1.421875 C 26.074219 -4.898438 22.226562 -11.34375 20.171875 -14.441406 C 24.902344 -18.835938 25.992188 -25.742188 20.089844 -29.589844 C 15.945312 -32.3125 3.140625 -34.613281 2.007812 -27.625 C 1.382812 -23.898438 1.839844 -19.714844 1.589844 -15.863281 C 1.339844 -12.347656 -0.125 -7.410156 1.128906 -3.976562 C 2.300781 -0.835938 5.859375 -0.0429688 8.035156 -2.679688 C 9.125 -4.019531 9.5 -5.777344 9.878906 -7.410156 C 10.003906 -7.953125 9.960938 -9.417969 10.339844 -9.835938 C 10.796875 -10.339844 13.394531 -10.546875 14.0625 -10.757812 C 14.648438 -7.660156 16.992188 4.019531 22.558594 -1.421875 Z M 9.667969 -15.988281 C 9.5 -17.664062 8.496094 -20.800781 9 -22.351562 C 9.332031 -23.480469 10.128906 -23.4375 11.382812 -23.480469 C 14.480469 -23.648438 17.914062 -20.84375 14.273438 -18.289062 C 12.847656 -17.285156 11.257812 -16.617188 9.667969 -15.988281 Z M 9.667969 -15.988281 "/></g></g></g><g fill="#6897ec" fill-opacity="1"><g transform="translate(39.159663, 132.091212)"><g><path d="M 5.230469 -0.0429688 C 8.496094 -0.460938 8.289062 -4.605469 8.289062 -7.074219 C 8.289062 -8.957031 8.078125 -11.96875 9.710938 -13.394531 C 10.882812 -14.398438 13.101562 -14.773438 14.441406 -15.613281 C 17.242188 -17.328125 19.921875 -19.964844 19.503906 -23.523438 C 18.707031 -30.136719 10.964844 -31.390625 5.566406 -31.222656 C 0.753906 -31.054688 1.214844 -26.621094 1.003906 -22.683594 C 0.753906 -17.664062 0.878906 -12.640625 0.628906 -7.574219 C 0.503906 -4.6875 1.003906 0.503906 5.230469 -0.0429688 Z M 10.757812 -18.457031 C 8.453125 -17.746094 8.832031 -18.960938 8.914062 -20.757812 C 8.957031 -22.601562 8.121094 -26.828125 10.964844 -25.40625 C 12.304688 -24.695312 13.101562 -22.976562 13.015625 -21.511719 C 12.976562 -20.007812 12.222656 -18.917969 10.757812 -18.457031 Z M 10.757812 -18.457031 "/></g></g></g><g fill="#6897ec" fill-opacity="1"><g transform="translate(57.449046, 132.091212)"><g><path d="M 16.199219 -0.667969 C 18.917969 -2.175781 19 -6.402344 16.449219 -8.121094 C 14.605469 -9.332031 12.683594 -8.914062 10.632812 -9.292969 C 9.082031 -9.585938 9.375 -8.875 9.125 -10.632812 C 9 -11.550781 9.25 -12.640625 9.292969 -13.5625 C 9.417969 -17.285156 10.046875 -21.890625 8.832031 -25.53125 C 7.867188 -28.503906 4.769531 -29.589844 2.59375 -27.039062 C 0.542969 -24.609375 0.710938 -20.382812 0.710938 -17.453125 C 0.667969 -13.980469 0.503906 -10.210938 0.835938 -6.738281 C 1.214844 -2.886719 3.683594 -1.296875 7.324219 -0.710938 C 9.835938 -0.292969 13.855469 0.628906 16.199219 -0.667969 Z M 16.199219 -0.667969 "/></g></g></g><g fill="#6897ec" fill-opacity="1"><g transform="translate(75.110626, 132.091212)"><g><path d="M 3.222656 -0.25 C 4.730469 0.210938 6.613281 0.0820312 7.617188 -1.171875 C 8.707031 -2.511719 8.371094 -5.816406 9.585938 -6.820312 C 10.253906 -7.324219 16.113281 -6.863281 16.324219 -6.695312 C 17.453125 -5.734375 17.664062 -3.054688 18.5 -1.839844 C 19.671875 -0.125 21.21875 -0.0429688 22.851562 -1.339844 C 24.484375 -2.679688 24.316406 -4.058594 23.648438 -5.902344 L 18.75 -19.671875 C 17.578125 -23.019531 16.785156 -28.167969 12.390625 -28.085938 C 8.496094 -27.957031 6.570312 -25.613281 5.441406 -22.183594 C 4.101562 -18.121094 2.847656 -14.019531 1.839844 -9.878906 C 1.089844 -6.78125 -1.089844 -1.507812 3.222656 -0.25 Z M 11.511719 -12.765625 C 11.886719 -14.019531 12.304688 -15.277344 12.683594 -16.53125 C 13.015625 -15.402344 13.394531 -14.3125 13.769531 -13.183594 C 13.015625 -13.058594 12.261719 -12.890625 11.511719 -12.765625 Z M 11.511719 -12.765625 "/></g></g></g><g fill="#6897ec" fill-opacity="1"><g transform="translate(98.631612, 132.091212)"><g><path d="M 1.96875 -0.796875 C 5.941406 3.433594 7.785156 -10.589844 8.203125 -12.304688 C 9.917969 -9.5 16.785156 4.8125 20.59375 -3.390625 C 22.976562 -8.453125 22.308594 -16.992188 21.511719 -22.183594 C 21.136719 -24.988281 18.164062 -26.160156 16.113281 -24.023438 C 13.980469 -21.765625 14.859375 -17.328125 15.027344 -14.605469 C 13.351562 -17.203125 12.429688 -20.046875 10.839844 -22.601562 C 9.585938 -24.695312 6.863281 -26.453125 4.394531 -25.238281 C 0.460938 -23.269531 1.089844 -14.398438 0.878906 -10.671875 C 0.753906 -8.078125 0.0429688 -2.886719 1.96875 -0.796875 Z M 1.96875 -0.796875 "/></g></g></g><g fill="#6897ec" fill-opacity="1"><g transform="translate(120.269213, 132.091212)"><g><path d="M 1.96875 -0.796875 C 5.941406 3.433594 7.785156 -10.589844 8.203125 -12.304688 C 9.917969 -9.5 16.785156 4.8125 20.59375 -3.390625 C 22.976562 -8.453125 22.308594 -16.992188 21.511719 -22.183594 C 21.136719 -24.988281 18.164062 -26.160156 16.113281 -24.023438 C 13.980469 -21.765625 14.859375 -17.328125 15.027344 -14.605469 C 13.351562 -17.203125 12.429688 -20.046875 10.839844 -22.601562 C 9.585938 -24.695312 6.863281 -26.453125 4.394531 -25.238281 C 0.460938 -23.269531 1.089844 -14.398438 0.878906 -10.671875 C 0.753906 -8.078125 0.0429688 -2.886719 1.96875 -0.796875 Z M 1.96875 -0.796875 "/></g></g></g><g fill="#6897ec" fill-opacity="1"><g transform="translate(141.906813, 132.091212)"><g><path d="M 6.949219 -0.0820312 C 9.542969 -0.210938 12.136719 -0.167969 14.691406 -0.292969 C 16.824219 -0.417969 18.414062 -0.710938 19.253906 -2.804688 C 19.753906 -4.183594 20.046875 -6.695312 18.667969 -7.742188 C 17.117188 -8.875 14.691406 -8.371094 12.933594 -8.453125 C 11.34375 -8.539062 7.242188 -9.835938 9.625 -12.054688 C 11.050781 -13.394531 13.269531 -11.804688 14.941406 -12.261719 C 16.785156 -12.808594 17.203125 -14.898438 16.992188 -16.617188 C 16.867188 -18.082031 16.363281 -18.917969 14.941406 -19.460938 C 13.5625 -19.964844 10.671875 -19.042969 9.585938 -19.839844 C 8.121094 -20.886719 9.460938 -22.851562 10.503906 -23.0625 C 12.097656 -23.4375 13.8125 -22.351562 15.484375 -23.019531 C 16.949219 -23.605469 17.703125 -24.988281 17.496094 -26.578125 C 17.203125 -28.796875 15.359375 -29.171875 13.433594 -29.464844 C 10.589844 -29.882812 3.054688 -31.308594 1.800781 -27.792969 C 1.253906 -26.285156 1.546875 -24.191406 1.464844 -22.644531 C 1.382812 -19.839844 1.253906 -17.035156 1.128906 -14.230469 C 1.003906 -11.84375 0.921875 -9.460938 0.796875 -7.074219 C 0.710938 -5.191406 0.167969 -2.46875 1.675781 -1.003906 C 3.054688 0.335938 5.273438 -0.0429688 6.949219 -0.0820312 Z M 6.949219 -0.0820312 "/></g></g></g><g fill="#6897ec" fill-opacity="1"><g transform="translate(160.949536, 132.091212)"><g><path d="M 22.558594 -1.421875 C 26.074219 -4.898438 22.226562 -11.34375 20.171875 -14.441406 C 24.902344 -18.835938 25.992188 -25.742188 20.089844 -29.589844 C 15.945312 -32.3125 3.140625 -34.613281 2.007812 -27.625 C 1.382812 -23.898438 1.839844 -19.714844 1.589844 -15.863281 C 1.339844 -12.347656 -0.125 -7.410156 1.128906 -3.976562 C 2.300781 -0.835938 5.859375 -0.0429688 8.035156 -2.679688 C 9.125 -4.019531 9.5 -5.777344 9.878906 -7.410156 C 10.003906 -7.953125 9.960938 -9.417969 10.339844 -9.835938 C 10.796875 -10.339844 13.394531 -10.546875 14.0625 -10.757812 C 14.648438 -7.660156 16.992188 4.019531 22.558594 -1.421875 Z M 9.667969 -15.988281 C 9.5 -17.664062 8.496094 -20.800781 9 -22.351562 C 9.332031 -23.480469 10.128906 -23.4375 11.382812 -23.480469 C 14.480469 -23.648438 17.914062 -20.84375 14.273438 -18.289062 C 12.847656 -17.285156 11.257812 -16.617188 9.667969 -15.988281 Z M 9.667969 -15.988281 "/></g></g></g><g clip-path="url(#c0cece280f)"><path fill="#ffded0" d="M 51.917969 130.148438 C 51.296875 135.398438 50.792969 135.898438 45.546875 136.519531 C 45.558594 136.523438 45.570312 136.523438 45.578125 136.523438 C 50.796875 137.144531 51.300781 137.65625 51.917969 142.894531 C 52.539062 137.644531 53.042969 137.140625 58.289062 136.519531 C 53.042969 135.898438 52.539062 135.398438 51.917969 130.148438 Z M 51.917969 130.148438 " fill-opacity="1" fill-rule="nonzero"/></g><g clip-path="url(#fe762e4f7c)"><path fill="#ffded0" d="M 177.886719 77.484375 C 177.265625 82.730469 176.761719 83.234375 171.515625 83.855469 C 171.527344 83.855469 171.539062 83.859375 171.546875 83.859375 C 176.765625 84.480469 177.265625 84.992188 177.886719 90.226562 C 178.507812 84.980469 179.011719 84.476562 184.257812 83.855469 C 179.011719 83.234375 178.507812 82.730469 177.886719 77.484375 Z M 177.886719 77.484375 " fill-opacity="1" fill-rule="nonzero"/></g><g clip-path="url(#bd3994109f)"><path fill="#ffded0" d="M 172.886719 65.324219 C 172.375 69.644531 171.960938 70.058594 167.640625 70.570312 C 167.648438 70.570312 167.65625 70.574219 167.667969 70.574219 C 171.960938 71.082031 172.375 71.503906 172.886719 75.816406 C 173.398438 71.496094 173.8125 71.082031 178.132812 70.570312 C 173.8125 70.058594 173.398438 69.644531 172.886719 65.324219 Z M 172.886719 65.324219 " fill-opacity="1" fill-rule="nonzero"/></g></svg>