<svg xmlns="http://www.w3.org/2000/svg" xmlns:xlink="http://www.w3.org/1999/xlink" width="150" zoomAndPan="magnify" viewBox="0 0 112.5 56.249996" height="75" preserveAspectRatio="xMidYMid meet" version="1.0"><defs><g/><clipPath id="608b6d0586"><path d="M 20 15 L 26 15 L 26 18 L 20 18 Z M 20 15 " clip-rule="nonzero"/></clipPath><clipPath id="d7e2c330e5"><path d="M 17.398438 6.554688 L 32.058594 4.074219 L 34.167969 16.535156 L 19.507812 19.015625 Z M 17.398438 6.554688 " clip-rule="nonzero"/></clipPath><clipPath id="7db1178b9a"><path d="M 17.398438 6.554688 L 32.058594 4.074219 L 34.167969 16.535156 L 19.507812 19.015625 Z M 17.398438 6.554688 " clip-rule="nonzero"/></clipPath><clipPath id="2a5ff2ccf1"><path d="M 23 13 L 27 13 L 27 16 L 23 16 Z M 23 13 " clip-rule="nonzero"/></clipPath><clipPath id="10a24664c0"><path d="M 17.398438 6.554688 L 32.058594 4.074219 L 34.167969 16.535156 L 19.507812 19.015625 Z M 17.398438 6.554688 " clip-rule="nonzero"/></clipPath><clipPath id="10bf6fd860"><path d="M 17.398438 6.554688 L 32.058594 4.074219 L 34.167969 16.535156 L 19.507812 19.015625 Z M 17.398438 6.554688 " clip-rule="nonzero"/></clipPath><clipPath id="1bb3322643"><path d="M 24 8 L 29 8 L 29 15 L 24 15 Z M 24 8 " clip-rule="nonzero"/></clipPath><clipPath id="b878d8a718"><path d="M 17.398438 6.554688 L 32.058594 4.074219 L 34.167969 16.535156 L 19.507812 19.015625 Z M 17.398438 6.554688 " clip-rule="nonzero"/></clipPath><clipPath id="3ffb26fde5"><path d="M 17.398438 6.554688 L 32.058594 4.074219 L 34.167969 16.535156 L 19.507812 19.015625 Z M 17.398438 6.554688 " clip-rule="nonzero"/></clipPath><clipPath id="c959314c6e"><path d="M 28 9 L 31 9 L 31 13 L 28 13 Z M 28 9 " clip-rule="nonzero"/></clipPath><clipPath id="3b721e4e4c"><path d="M 17.398438 6.554688 L 32.058594 4.074219 L 34.167969 16.535156 L 19.507812 19.015625 Z M 17.398438 6.554688 " clip-rule="nonzero"/></clipPath><clipPath id="2a5ef0b4b2"><path d="M 17.398438 6.554688 L 32.058594 4.074219 L 34.167969 16.535156 L 19.507812 19.015625 Z M 17.398438 6.554688 " clip-rule="nonzero"/></clipPath><clipPath id="31acc551f5"><path d="M 31 6 L 33 6 L 33 12 L 31 12 Z M 31 6 " clip-rule="nonzero"/></clipPath><clipPath id="a6e314bc59"><path d="M 17.398438 6.554688 L 32.058594 4.074219 L 34.167969 16.535156 L 19.507812 19.015625 Z M 17.398438 6.554688 " clip-rule="nonzero"/></clipPath><clipPath id="e386b91980"><path d="M 17.398438 6.554688 L 32.058594 4.074219 L 34.167969 16.535156 L 19.507812 19.015625 Z M 17.398438 6.554688 " clip-rule="nonzero"/></clipPath><clipPath id="e46a2d9468"><path d="M 31 4 L 33 4 L 33 5 L 31 5 Z M 31 4 " clip-rule="nonzero"/></clipPath><clipPath id="431a516f60"><path d="M 17.398438 6.554688 L 32.058594 4.074219 L 34.167969 16.535156 L 19.507812 19.015625 Z M 17.398438 6.554688 " clip-rule="nonzero"/></clipPath><clipPath id="1cee0068c1"><path d="M 17.398438 6.554688 L 32.058594 4.074219 L 34.167969 16.535156 L 19.507812 19.015625 Z M 17.398438 6.554688 " clip-rule="nonzero"/></clipPath><clipPath id="41b214469c"><path d="M 22 11 L 24 11 L 24 12 L 22 12 Z M 22 11 " clip-rule="nonzero"/></clipPath><clipPath id="a3e4dc247a"><path d="M 17.398438 6.554688 L 32.058594 4.074219 L 34.167969 16.535156 L 19.507812 19.015625 Z M 17.398438 6.554688 " clip-rule="nonzero"/></clipPath><clipPath id="c6b2b40020"><path d="M 17.398438 6.554688 L 32.058594 4.074219 L 34.167969 16.535156 L 19.507812 19.015625 Z M 17.398438 6.554688 " clip-rule="nonzero"/></clipPath><clipPath id="e4cf2a9a67"><path d="M 27 6 L 29 6 L 29 8 L 27 8 Z M 27 6 " clip-rule="nonzero"/></clipPath><clipPath id="0e50897cfa"><path d="M 17.398438 6.554688 L 32.058594 4.074219 L 34.167969 16.535156 L 19.507812 19.015625 Z M 17.398438 6.554688 " clip-rule="nonzero"/></clipPath><clipPath id="cfd4d7ff61"><path d="M 17.398438 6.554688 L 32.058594 4.074219 L 34.167969 16.535156 L 19.507812 19.015625 Z M 17.398438 6.554688 " clip-rule="nonzero"/></clipPath><clipPath id="0d6c1e26e0"><path d="M 18 14 L 20 14 L 20 16 L 18 16 Z M 18 14 " clip-rule="nonzero"/></clipPath><clipPath id="ae62804680"><path d="M 17.398438 6.554688 L 32.058594 4.074219 L 34.167969 16.535156 L 19.507812 19.015625 Z M 17.398438 6.554688 " clip-rule="nonzero"/></clipPath><clipPath id="0a4749556d"><path d="M 17.398438 6.554688 L 32.058594 4.074219 L 34.167969 16.535156 L 19.507812 19.015625 Z M 17.398438 6.554688 " clip-rule="nonzero"/></clipPath><clipPath id="45fb99a1aa"><path d="M 94 34 L 101 34 L 101 38 L 94 38 Z M 94 34 " clip-rule="nonzero"/></clipPath><clipPath id="b0b6d52c34"><path d="M 103.417969 47.433594 L 86.445312 49.527344 L 84.71875 35.507812 L 101.6875 33.414062 Z M 103.417969 47.433594 " clip-rule="nonzero"/></clipPath><clipPath id="27c590b7d9"><path d="M 103.417969 47.433594 L 86.445312 49.527344 L 84.71875 35.507812 L 101.6875 33.414062 Z M 103.417969 47.433594 " clip-rule="nonzero"/></clipPath><clipPath id="30ffe73fff"><path d="M 93 36 L 97 36 L 97 40 L 93 40 Z M 93 36 " clip-rule="nonzero"/></clipPath><clipPath id="4639f8c9ba"><path d="M 103.417969 47.433594 L 86.445312 49.527344 L 84.71875 35.507812 L 101.6875 33.414062 Z M 103.417969 47.433594 " clip-rule="nonzero"/></clipPath><clipPath id="b6f635c204"><path d="M 103.417969 47.433594 L 86.445312 49.527344 L 84.71875 35.507812 L 101.6875 33.414062 Z M 103.417969 47.433594 " clip-rule="nonzero"/></clipPath><clipPath id="5ac2056c1b"><path d="M 91 38 L 96 38 L 96 45 L 91 45 Z M 91 38 " clip-rule="nonzero"/></clipPath><clipPath id="66168f1a03"><path d="M 103.417969 47.433594 L 86.445312 49.527344 L 84.71875 35.507812 L 101.6875 33.414062 Z M 103.417969 47.433594 " clip-rule="nonzero"/></clipPath><clipPath id="b3737fde59"><path d="M 103.417969 47.433594 L 86.445312 49.527344 L 84.71875 35.507812 L 101.6875 33.414062 Z M 103.417969 47.433594 " clip-rule="nonzero"/></clipPath><clipPath id="07ce81f643"><path d="M 89 40 L 91 40 L 91 44 L 89 44 Z M 89 40 " clip-rule="nonzero"/></clipPath><clipPath id="7eb6a1a4d8"><path d="M 103.417969 47.433594 L 86.445312 49.527344 L 84.71875 35.507812 L 101.6875 33.414062 Z M 103.417969 47.433594 " clip-rule="nonzero"/></clipPath><clipPath id="a7fa463a09"><path d="M 103.417969 47.433594 L 86.445312 49.527344 L 84.71875 35.507812 L 101.6875 33.414062 Z M 103.417969 47.433594 " clip-rule="nonzero"/></clipPath><clipPath id="4e0b805770"><path d="M 86 40 L 88 40 L 88 48 L 86 48 Z M 86 40 " clip-rule="nonzero"/></clipPath><clipPath id="d13636964d"><path d="M 103.417969 47.433594 L 86.445312 49.527344 L 84.71875 35.507812 L 101.6875 33.414062 Z M 103.417969 47.433594 " clip-rule="nonzero"/></clipPath><clipPath id="4d8f0422b8"><path d="M 103.417969 47.433594 L 86.445312 49.527344 L 84.71875 35.507812 L 101.6875 33.414062 Z M 103.417969 47.433594 " clip-rule="nonzero"/></clipPath><clipPath id="4cbf57c787"><path d="M 86 48 L 88 48 L 88 50 L 86 50 Z M 86 48 " clip-rule="nonzero"/></clipPath><clipPath id="4be9e0a550"><path d="M 103.417969 47.433594 L 86.445312 49.527344 L 84.71875 35.507812 L 101.6875 33.414062 Z M 103.417969 47.433594 " clip-rule="nonzero"/></clipPath><clipPath id="58b358eb51"><path d="M 103.417969 47.433594 L 86.445312 49.527344 L 84.71875 35.507812 L 101.6875 33.414062 Z M 103.417969 47.433594 " clip-rule="nonzero"/></clipPath><clipPath id="af1b69f0a2"><path d="M 97 41 L 98 41 L 98 42 L 97 42 Z M 97 41 " clip-rule="nonzero"/></clipPath><clipPath id="5fe66c964f"><path d="M 103.417969 47.433594 L 86.445312 49.527344 L 84.71875 35.507812 L 101.6875 33.414062 Z M 103.417969 47.433594 " clip-rule="nonzero"/></clipPath><clipPath id="8d4f2da1bc"><path d="M 103.417969 47.433594 L 86.445312 49.527344 L 84.71875 35.507812 L 101.6875 33.414062 Z M 103.417969 47.433594 " clip-rule="nonzero"/></clipPath><clipPath id="e126aa3758"><path d="M 90 45 L 92 45 L 92 47 L 90 47 Z M 90 45 " clip-rule="nonzero"/></clipPath><clipPath id="a3f50da6eb"><path d="M 103.417969 47.433594 L 86.445312 49.527344 L 84.71875 35.507812 L 101.6875 33.414062 Z M 103.417969 47.433594 " clip-rule="nonzero"/></clipPath><clipPath id="446cd678c5"><path d="M 103.417969 47.433594 L 86.445312 49.527344 L 84.71875 35.507812 L 101.6875 33.414062 Z M 103.417969 47.433594 " clip-rule="nonzero"/></clipPath><clipPath id="cdc7dbeb8f"><path d="M 101 37 L 103 37 L 103 39 L 101 39 Z M 101 37 " clip-rule="nonzero"/></clipPath><clipPath id="faa71124c0"><path d="M 103.417969 47.433594 L 86.445312 49.527344 L 84.71875 35.507812 L 101.6875 33.414062 Z M 103.417969 47.433594 " clip-rule="nonzero"/></clipPath><clipPath id="bf1b3e1d30"><path d="M 103.417969 47.433594 L 86.445312 49.527344 L 84.71875 35.507812 L 101.6875 33.414062 Z M 103.417969 47.433594 " clip-rule="nonzero"/></clipPath><clipPath id="8bed97badf"><path d="M 24.214844 34.308594 L 34.625 34.308594 L 34.625 44.714844 L 24.214844 44.714844 Z M 24.214844 34.308594 " clip-rule="nonzero"/></clipPath><clipPath id="cb9124e87d"><path d="M 79.535156 8.566406 L 85.480469 8.566406 L 85.480469 14.515625 L 79.535156 14.515625 Z M 79.535156 8.566406 " clip-rule="nonzero"/></clipPath><clipPath id="e677d96325"><path d="M 82.964844 16.550781 L 88.167969 16.550781 L 88.167969 21.753906 L 82.964844 21.753906 Z M 82.964844 16.550781 " clip-rule="nonzero"/></clipPath></defs><g clip-path="url(#608b6d0586)"><g clip-path="url(#d7e2c330e5)"><g clip-path="url(#7db1178b9a)"><path fill="#dea600" d="M 25.6875 17.234375 C 24.121094 16.542969 22.550781 15.851562 20.984375 15.160156 C 20.632812 15.007812 20.425781 15.5625 20.773438 15.714844 C 22.339844 16.40625 23.910156 17.097656 25.476562 17.789062 C 25.828125 17.941406 26.035156 17.386719 25.6875 17.234375 Z M 25.6875 17.234375 " fill-opacity="1" fill-rule="nonzero"/></g></g></g><g clip-path="url(#2a5ff2ccf1)"><g clip-path="url(#10a24664c0)"><g clip-path="url(#10bf6fd860)"><path fill="#dea600" d="M 26.375 15.175781 C 25.695312 14.578125 25.011719 13.976562 24.328125 13.375 C 24.210938 13.269531 24 13.324219 23.914062 13.445312 C 23.816406 13.589844 23.863281 13.753906 23.984375 13.859375 C 24.667969 14.460938 25.351562 15.058594 26.03125 15.660156 C 26.152344 15.765625 26.359375 15.710938 26.445312 15.589844 C 26.546875 15.449219 26.496094 15.28125 26.375 15.175781 Z M 26.375 15.175781 " fill-opacity="1" fill-rule="nonzero"/></g></g></g><g clip-path="url(#1bb3322643)"><g clip-path="url(#b878d8a718)"><g clip-path="url(#3ffb26fde5)"><path fill="#dea600" d="M 28.152344 13.570312 C 26.992188 12.152344 25.941406 10.648438 25.007812 9.074219 C 24.8125 8.75 24.273438 8.996094 24.46875 9.324219 C 25.429688 10.945312 26.503906 12.492188 27.699219 13.953125 C 27.9375 14.246094 28.394531 13.867188 28.152344 13.570312 Z M 28.152344 13.570312 " fill-opacity="1" fill-rule="nonzero"/></g></g></g><g clip-path="url(#c959314c6e)"><g clip-path="url(#3b721e4e4c)"><g clip-path="url(#2a5ef0b4b2)"><path fill="#dea600" d="M 30.199219 12.328125 C 29.925781 11.285156 29.519531 10.28125 28.972656 9.351562 C 28.894531 9.210938 28.734375 9.136719 28.582031 9.207031 C 28.445312 9.269531 28.355469 9.460938 28.4375 9.601562 C 28.953125 10.484375 29.355469 11.433594 29.613281 12.425781 C 29.65625 12.582031 29.789062 12.699219 29.957031 12.667969 C 30.101562 12.644531 30.238281 12.484375 30.199219 12.328125 Z M 30.199219 12.328125 " fill-opacity="1" fill-rule="nonzero"/></g></g></g><g clip-path="url(#31acc551f5)"><g clip-path="url(#a6e314bc59)"><g clip-path="url(#e386b91980)"><path fill="#dea600" d="M 32.175781 11.582031 C 31.96875 9.921875 31.902344 8.246094 31.972656 6.574219 C 31.992188 6.195312 31.402344 6.132812 31.382812 6.515625 C 31.308594 8.238281 31.378906 9.96875 31.59375 11.679688 C 31.640625 12.058594 32.222656 11.960938 32.175781 11.582031 Z M 32.175781 11.582031 " fill-opacity="1" fill-rule="nonzero"/></g></g></g><g clip-path="url(#e46a2d9468)"><g clip-path="url(#431a516f60)"><g clip-path="url(#1cee0068c1)"><path fill="#dea600" d="M 31.78125 4.726562 C 32.15625 4.660156 32.058594 4.078125 31.683594 4.140625 C 31.304688 4.203125 31.40625 4.789062 31.78125 4.726562 Z M 31.78125 4.726562 " fill-opacity="1" fill-rule="nonzero"/></g></g></g><g clip-path="url(#41b214469c)"><g clip-path="url(#a3e4dc247a)"><g clip-path="url(#c6b2b40020)"><path fill="#dea600" d="M 22.84375 11.796875 C 23.222656 11.734375 23.125 11.148438 22.746094 11.210938 C 22.371094 11.277344 22.46875 11.859375 22.84375 11.796875 Z M 22.84375 11.796875 " fill-opacity="1" fill-rule="nonzero"/></g></g></g><g clip-path="url(#e4cf2a9a67)"><g clip-path="url(#0e50897cfa)"><g clip-path="url(#cfd4d7ff61)"><path fill="#dea600" d="M 28.085938 7.535156 C 28.460938 7.472656 28.363281 6.886719 27.984375 6.949219 C 27.609375 7.011719 27.707031 7.597656 28.085938 7.535156 Z M 28.085938 7.535156 " fill-opacity="1" fill-rule="nonzero"/></g></g></g><g clip-path="url(#0d6c1e26e0)"><g clip-path="url(#ae62804680)"><g clip-path="url(#0a4749556d)"><path fill="#dea600" d="M 19.246094 15.183594 C 19.621094 15.121094 19.523438 14.535156 19.148438 14.601562 C 18.773438 14.664062 18.871094 15.25 19.246094 15.183594 Z M 19.246094 15.183594 " fill-opacity="1" fill-rule="nonzero"/></g></g></g><g clip-path="url(#45fb99a1aa)"><g clip-path="url(#b0b6d52c34)"><g clip-path="url(#27c590b7d9)"><path fill="#dea600" d="M 94.492188 35.117188 C 96.253906 35.960938 98.015625 36.804688 99.777344 37.648438 C 100.171875 37.839844 100.441406 37.226562 100.050781 37.039062 C 98.285156 36.195312 96.523438 35.351562 94.761719 34.507812 C 94.367188 34.316406 94.097656 34.929688 94.492188 35.117188 Z M 94.492188 35.117188 " fill-opacity="1" fill-rule="nonzero"/></g></g></g><g clip-path="url(#30ffe73fff)"><g clip-path="url(#4639f8c9ba)"><g clip-path="url(#b6f635c204)"><path fill="#dea600" d="M 93.585938 37.382812 C 94.335938 38.085938 95.085938 38.789062 95.835938 39.488281 C 95.96875 39.613281 96.210938 39.5625 96.316406 39.429688 C 96.4375 39.277344 96.390625 39.089844 96.257812 38.964844 C 95.507812 38.261719 94.757812 37.558594 94.007812 36.859375 C 93.875 36.734375 93.636719 36.785156 93.53125 36.917969 C 93.40625 37.070312 93.453125 37.257812 93.585938 37.382812 Z M 93.585938 37.382812 " fill-opacity="1" fill-rule="nonzero"/></g></g></g><g clip-path="url(#5ac2056c1b)"><g clip-path="url(#66168f1a03)"><g clip-path="url(#b3737fde59)"><path fill="#dea600" d="M 91.457031 39.09375 C 92.710938 40.734375 93.835938 42.460938 94.820312 44.269531 C 95.023438 44.640625 95.660156 44.390625 95.453125 44.011719 C 94.441406 42.15625 93.289062 40.375 92.003906 38.691406 C 91.742188 38.347656 91.195312 38.753906 91.457031 39.09375 Z M 91.457031 39.09375 " fill-opacity="1" fill-rule="nonzero"/></g></g></g><g clip-path="url(#07ce81f643)"><g clip-path="url(#7eb6a1a4d8)"><g clip-path="url(#a7fa463a09)"><path fill="#dea600" d="M 89.039062 40.390625 C 89.296875 41.570312 89.707031 42.707031 90.28125 43.773438 C 90.367188 43.933594 90.542969 44.027344 90.726562 43.953125 C 90.882812 43.890625 91 43.679688 90.914062 43.519531 C 90.367188 42.507812 89.960938 41.425781 89.71875 40.308594 C 89.679688 40.132812 89.53125 39.996094 89.339844 40.019531 C 89.167969 40.039062 89.003906 40.214844 89.039062 40.390625 Z M 89.039062 40.390625 " fill-opacity="1" fill-rule="nonzero"/></g></g></g><g clip-path="url(#4e0b805770)"><g clip-path="url(#d13636964d)"><g clip-path="url(#4d8f0422b8)"><path fill="#dea600" d="M 86.730469 41.132812 C 86.875 43 86.859375 44.871094 86.683594 46.738281 C 86.644531 47.164062 87.320312 47.257812 87.359375 46.832031 C 87.539062 44.910156 87.554688 42.972656 87.40625 41.046875 C 87.371094 40.621094 86.695312 40.707031 86.730469 41.132812 Z M 86.730469 41.132812 " fill-opacity="1" fill-rule="nonzero"/></g></g></g><g clip-path="url(#4cbf57c787)"><g clip-path="url(#4be9e0a550)"><g clip-path="url(#58b358eb51)"><path fill="#dea600" d="M 86.804688 48.816406 C 86.367188 48.867188 86.449219 49.527344 86.882812 49.472656 C 87.320312 49.417969 87.238281 48.761719 86.804688 48.816406 Z M 86.804688 48.816406 " fill-opacity="1" fill-rule="nonzero"/></g></g></g><g clip-path="url(#af1b69f0a2)"><g clip-path="url(#5fe66c964f)"><g clip-path="url(#8d4f2da1bc)"><path fill="#dea600" d="M 97.453125 41.324219 C 97.015625 41.378906 97.097656 42.035156 97.535156 41.980469 C 97.96875 41.929688 97.890625 41.269531 97.453125 41.324219 Z M 97.453125 41.324219 " fill-opacity="1" fill-rule="nonzero"/></g></g></g><g clip-path="url(#e126aa3758)"><g clip-path="url(#a3f50da6eb)"><g clip-path="url(#446cd678c5)"><path fill="#dea600" d="M 91.203125 45.84375 C 90.765625 45.898438 90.847656 46.558594 91.285156 46.503906 C 91.71875 46.449219 91.636719 45.792969 91.203125 45.84375 Z M 91.203125 45.84375 " fill-opacity="1" fill-rule="nonzero"/></g></g></g><g clip-path="url(#cdc7dbeb8f)"><g clip-path="url(#faa71124c0)"><g clip-path="url(#bf1b3e1d30)"><path fill="#dea600" d="M 101.773438 37.703125 C 101.335938 37.757812 101.417969 38.414062 101.851562 38.359375 C 102.289062 38.308594 102.207031 37.648438 101.773438 37.703125 Z M 101.773438 37.703125 " fill-opacity="1" fill-rule="nonzero"/></g></g></g><g fill="#ffffff" fill-opacity="1"><g transform="translate(27.714599, 25.305063)"><g><path d="M 9.347656 -0.0820312 C 11.460938 0.671875 11.277344 -3.636719 11.226562 -4.574219 C 11.175781 -5.8125 11.007812 -7.054688 10.789062 -8.292969 C 10.65625 -9.046875 10.605469 -10.035156 9.984375 -10.574219 C 8.328125 -12.03125 6.601562 -9.332031 5.863281 -8.175781 C 5.058594 -9.332031 3.082031 -11.878906 1.609375 -10.085938 C 1.089844 -9.433594 1.054688 -8.460938 0.9375 -7.671875 C 0.738281 -6.351562 0.535156 -5.007812 0.402344 -3.667969 C 0.285156 -2.714844 0.0507812 -1.492188 0.636719 -0.636719 C 1.15625 0.101562 1.960938 0.101562 2.496094 -0.621094 C 3.6875 -2.226562 2.898438 -4.574219 3.652344 -6.28125 C 4.121094 -5.511719 4.726562 -3.871094 5.78125 -3.804688 C 6.785156 -3.738281 7.742188 -5.042969 8.378906 -5.679688 C 8.546875 -4.421875 8.476562 -3.183594 8.5625 -1.925781 C 8.59375 -1.308594 8.644531 -0.351562 9.347656 -0.0820312 Z M 9.347656 -0.0820312 "/></g></g></g><g fill="#ffffff" fill-opacity="1"><g transform="translate(38.716413, 25.305063)"><g><path d="M 4.757812 -0.46875 C 5.664062 -1.339844 5.5625 -2.699219 5.429688 -4.40625 C 5.292969 -5.480469 5.328125 -5.746094 5.929688 -6.617188 C 6.316406 -7.1875 6.703125 -7.773438 7.003906 -8.410156 C 7.320312 -9.097656 7.925781 -10.523438 6.953125 -10.972656 C 5.445312 -11.695312 4.558594 -9.03125 3.988281 -8.09375 C 3.5 -9.148438 3.335938 -10.707031 2.179688 -11.277344 C 0.820312 -11.945312 0 -10.789062 0.316406 -9.550781 C 0.652344 -8.175781 1.894531 -7.085938 2.0625 -5.746094 C 2.210938 -4.390625 1.574219 -1.945312 2.363281 -0.738281 C 3 0.21875 4.339844 0.300781 4.757812 -0.46875 Z M 4.757812 -0.46875 "/></g></g></g><g fill="#ffffff" fill-opacity="1"><g transform="translate(45.699201, 25.305063)"><g/></g></g><g fill="#ffffff" fill-opacity="1"><g transform="translate(49.383039, 25.305063)"><g><path d="M 9.347656 -0.0820312 C 11.460938 0.671875 11.277344 -3.636719 11.226562 -4.574219 C 11.175781 -5.8125 11.007812 -7.054688 10.789062 -8.292969 C 10.65625 -9.046875 10.605469 -10.035156 9.984375 -10.574219 C 8.328125 -12.03125 6.601562 -9.332031 5.863281 -8.175781 C 5.058594 -9.332031 3.082031 -11.878906 1.609375 -10.085938 C 1.089844 -9.433594 1.054688 -8.460938 0.9375 -7.671875 C 0.738281 -6.351562 0.535156 -5.007812 0.402344 -3.667969 C 0.285156 -2.714844 0.0507812 -1.492188 0.636719 -0.636719 C 1.15625 0.101562 1.960938 0.101562 2.496094 -0.621094 C 3.6875 -2.226562 2.898438 -4.574219 3.652344 -6.28125 C 4.121094 -5.511719 4.726562 -3.871094 5.78125 -3.804688 C 6.785156 -3.738281 7.742188 -5.042969 8.378906 -5.679688 C 8.546875 -4.421875 8.476562 -3.183594 8.5625 -1.925781 C 8.59375 -1.308594 8.644531 -0.351562 9.347656 -0.0820312 Z M 9.347656 -0.0820312 "/></g></g></g><g fill="#ffffff" fill-opacity="1"><g transform="translate(60.384853, 25.305063)"><g><path d="M 2.78125 -0.0351562 C 3.820312 -0.0820312 4.859375 -0.0664062 5.882812 -0.117188 C 6.734375 -0.167969 7.371094 -0.285156 7.707031 -1.121094 C 7.910156 -1.675781 8.027344 -2.679688 7.472656 -3.101562 C 6.851562 -3.550781 5.882812 -3.351562 5.175781 -3.382812 C 4.539062 -3.417969 2.898438 -3.9375 3.855469 -4.824219 C 4.421875 -5.363281 5.3125 -4.726562 5.980469 -4.910156 C 6.71875 -5.128906 6.886719 -5.964844 6.800781 -6.652344 C 6.753906 -7.238281 6.550781 -7.574219 5.980469 -7.789062 C 5.429688 -7.992188 4.273438 -7.625 3.835938 -7.941406 C 3.25 -8.359375 3.785156 -9.148438 4.207031 -9.230469 C 4.84375 -9.382812 5.527344 -8.945312 6.199219 -9.214844 C 6.785156 -9.449219 7.085938 -10.003906 7.003906 -10.640625 C 6.886719 -11.527344 6.148438 -11.679688 5.378906 -11.796875 C 4.238281 -11.964844 1.222656 -12.53125 0.71875 -11.125 C 0.503906 -10.523438 0.621094 -9.683594 0.585938 -9.0625 C 0.554688 -7.941406 0.503906 -6.820312 0.453125 -5.695312 C 0.402344 -4.742188 0.367188 -3.785156 0.316406 -2.832031 C 0.285156 -2.078125 0.0664062 -0.988281 0.671875 -0.402344 C 1.222656 0.132812 2.109375 -0.015625 2.78125 -0.0351562 Z M 2.78125 -0.0351562 "/></g></g></g><g fill="#ffffff" fill-opacity="1"><g transform="translate(68.003991, 25.305063)"><g><path d="M 1.289062 -0.101562 C 1.894531 0.0820312 2.648438 0.0351562 3.050781 -0.46875 C 3.484375 -1.003906 3.351562 -2.328125 3.835938 -2.730469 C 4.105469 -2.933594 6.449219 -2.746094 6.535156 -2.679688 C 6.988281 -2.296875 7.070312 -1.222656 7.40625 -0.738281 C 7.875 -0.0507812 8.496094 -0.015625 9.148438 -0.535156 C 9.800781 -1.074219 9.734375 -1.625 9.464844 -2.363281 L 7.507812 -7.875 C 7.035156 -9.214844 6.71875 -11.277344 4.960938 -11.242188 C 3.402344 -11.191406 2.628906 -10.253906 2.179688 -8.878906 C 1.640625 -7.253906 1.140625 -5.613281 0.738281 -3.953125 C 0.4375 -2.714844 -0.4375 -0.601562 1.289062 -0.101562 Z M 4.609375 -5.109375 C 4.757812 -5.613281 4.925781 -6.117188 5.078125 -6.617188 C 5.210938 -6.164062 5.363281 -5.730469 5.511719 -5.277344 C 5.210938 -5.226562 4.910156 -5.160156 4.609375 -5.109375 Z M 4.609375 -5.109375 "/></g></g></g><g fill="#ffffff" fill-opacity="1"><g transform="translate(77.414937, 25.305063)"><g><path d="M 6.484375 -0.269531 C 7.574219 -0.871094 7.605469 -2.5625 6.585938 -3.25 C 5.847656 -3.738281 5.078125 -3.570312 4.253906 -3.71875 C 3.636719 -3.835938 3.753906 -3.550781 3.652344 -4.253906 C 3.601562 -4.625 3.703125 -5.058594 3.71875 -5.429688 C 3.769531 -6.917969 4.019531 -8.761719 3.535156 -10.21875 C 3.148438 -11.410156 1.910156 -11.84375 1.039062 -10.824219 C 0.21875 -9.851562 0.285156 -8.160156 0.285156 -6.988281 C 0.269531 -5.597656 0.199219 -4.089844 0.335938 -2.699219 C 0.484375 -1.15625 1.472656 -0.519531 2.933594 -0.285156 C 3.9375 -0.117188 5.546875 0.25 6.484375 -0.269531 Z M 6.484375 -0.269531 "/></g></g></g><g fill="#ffded0" fill-opacity="1"><g transform="translate(27.21108, 24.801545)"><g><path d="M 9.347656 -0.0820312 C 11.460938 0.671875 11.277344 -3.636719 11.226562 -4.574219 C 11.175781 -5.8125 11.007812 -7.054688 10.789062 -8.292969 C 10.65625 -9.046875 10.605469 -10.035156 9.984375 -10.574219 C 8.328125 -12.03125 6.601562 -9.332031 5.863281 -8.175781 C 5.058594 -9.332031 3.082031 -11.878906 1.609375 -10.085938 C 1.089844 -9.433594 1.054688 -8.460938 0.9375 -7.671875 C 0.738281 -6.351562 0.535156 -5.007812 0.402344 -3.667969 C 0.285156 -2.714844 0.0507812 -1.492188 0.636719 -0.636719 C 1.15625 0.101562 1.960938 0.101562 2.496094 -0.621094 C 3.6875 -2.226562 2.898438 -4.574219 3.652344 -6.28125 C 4.121094 -5.511719 4.726562 -3.871094 5.78125 -3.804688 C 6.785156 -3.738281 7.742188 -5.042969 8.378906 -5.679688 C 8.546875 -4.421875 8.476562 -3.183594 8.5625 -1.925781 C 8.59375 -1.308594 8.644531 -0.351562 9.347656 -0.0820312 Z M 9.347656 -0.0820312 "/></g></g></g><g fill="#ffded0" fill-opacity="1"><g transform="translate(38.212894, 24.801545)"><g><path d="M 4.757812 -0.46875 C 5.664062 -1.339844 5.5625 -2.699219 5.429688 -4.40625 C 5.292969 -5.480469 5.328125 -5.746094 5.929688 -6.617188 C 6.316406 -7.1875 6.703125 -7.773438 7.003906 -8.410156 C 7.320312 -9.097656 7.925781 -10.523438 6.953125 -10.972656 C 5.445312 -11.695312 4.558594 -9.03125 3.988281 -8.09375 C 3.5 -9.148438 3.335938 -10.707031 2.179688 -11.277344 C 0.820312 -11.945312 0 -10.789062 0.316406 -9.550781 C 0.652344 -8.175781 1.894531 -7.085938 2.0625 -5.746094 C 2.210938 -4.390625 1.574219 -1.945312 2.363281 -0.738281 C 3 0.21875 4.339844 0.300781 4.757812 -0.46875 Z M 4.757812 -0.46875 "/></g></g></g><g fill="#ffded0" fill-opacity="1"><g transform="translate(45.195682, 24.801545)"><g/></g></g><g fill="#ffded0" fill-opacity="1"><g transform="translate(48.87952, 24.801545)"><g><path d="M 9.347656 -0.0820312 C 11.460938 0.671875 11.277344 -3.636719 11.226562 -4.574219 C 11.175781 -5.8125 11.007812 -7.054688 10.789062 -8.292969 C 10.65625 -9.046875 10.605469 -10.035156 9.984375 -10.574219 C 8.328125 -12.03125 6.601562 -9.332031 5.863281 -8.175781 C 5.058594 -9.332031 3.082031 -11.878906 1.609375 -10.085938 C 1.089844 -9.433594 1.054688 -8.460938 0.9375 -7.671875 C 0.738281 -6.351562 0.535156 -5.007812 0.402344 -3.667969 C 0.285156 -2.714844 0.0507812 -1.492188 0.636719 -0.636719 C 1.15625 0.101562 1.960938 0.101562 2.496094 -0.621094 C 3.6875 -2.226562 2.898438 -4.574219 3.652344 -6.28125 C 4.121094 -5.511719 4.726562 -3.871094 5.78125 -3.804688 C 6.785156 -3.738281 7.742188 -5.042969 8.378906 -5.679688 C 8.546875 -4.421875 8.476562 -3.183594 8.5625 -1.925781 C 8.59375 -1.308594 8.644531 -0.351562 9.347656 -0.0820312 Z M 9.347656 -0.0820312 "/></g></g></g><g fill="#ffded0" fill-opacity="1"><g transform="translate(59.881334, 24.801545)"><g><path d="M 2.78125 -0.0351562 C 3.820312 -0.0820312 4.859375 -0.0664062 5.882812 -0.117188 C 6.734375 -0.167969 7.371094 -0.285156 7.707031 -1.121094 C 7.910156 -1.675781 8.027344 -2.679688 7.472656 -3.101562 C 6.851562 -3.550781 5.882812 -3.351562 5.175781 -3.382812 C 4.539062 -3.417969 2.898438 -3.9375 3.855469 -4.824219 C 4.421875 -5.363281 5.3125 -4.726562 5.980469 -4.910156 C 6.71875 -5.128906 6.886719 -5.964844 6.800781 -6.652344 C 6.753906 -7.238281 6.550781 -7.574219 5.980469 -7.789062 C 5.429688 -7.992188 4.273438 -7.625 3.835938 -7.941406 C 3.25 -8.359375 3.785156 -9.148438 4.207031 -9.230469 C 4.84375 -9.382812 5.527344 -8.945312 6.199219 -9.214844 C 6.785156 -9.449219 7.085938 -10.003906 7.003906 -10.640625 C 6.886719 -11.527344 6.148438 -11.679688 5.378906 -11.796875 C 4.238281 -11.964844 1.222656 -12.53125 0.71875 -11.125 C 0.503906 -10.523438 0.621094 -9.683594 0.585938 -9.0625 C 0.554688 -7.941406 0.503906 -6.820312 0.453125 -5.695312 C 0.402344 -4.742188 0.367188 -3.785156 0.316406 -2.832031 C 0.285156 -2.078125 0.0664062 -0.988281 0.671875 -0.402344 C 1.222656 0.132812 2.109375 -0.015625 2.78125 -0.0351562 Z M 2.78125 -0.0351562 "/></g></g></g><g fill="#ffded0" fill-opacity="1"><g transform="translate(67.500472, 24.801545)"><g><path d="M 1.289062 -0.101562 C 1.894531 0.0820312 2.648438 0.0351562 3.050781 -0.46875 C 3.484375 -1.003906 3.351562 -2.328125 3.835938 -2.730469 C 4.105469 -2.933594 6.449219 -2.746094 6.535156 -2.679688 C 6.988281 -2.296875 7.070312 -1.222656 7.40625 -0.738281 C 7.875 -0.0507812 8.496094 -0.015625 9.148438 -0.535156 C 9.800781 -1.074219 9.734375 -1.625 9.464844 -2.363281 L 7.507812 -7.875 C 7.035156 -9.214844 6.71875 -11.277344 4.960938 -11.242188 C 3.402344 -11.191406 2.628906 -10.253906 2.179688 -8.878906 C 1.640625 -7.253906 1.140625 -5.613281 0.738281 -3.953125 C 0.4375 -2.714844 -0.4375 -0.601562 1.289062 -0.101562 Z M 4.609375 -5.109375 C 4.757812 -5.613281 4.925781 -6.117188 5.078125 -6.617188 C 5.210938 -6.164062 5.363281 -5.730469 5.511719 -5.277344 C 5.210938 -5.226562 4.910156 -5.160156 4.609375 -5.109375 Z M 4.609375 -5.109375 "/></g></g></g><g fill="#ffded0" fill-opacity="1"><g transform="translate(76.911418, 24.801545)"><g><path d="M 6.484375 -0.269531 C 7.574219 -0.871094 7.605469 -2.5625 6.585938 -3.25 C 5.847656 -3.738281 5.078125 -3.570312 4.253906 -3.71875 C 3.636719 -3.835938 3.753906 -3.550781 3.652344 -4.253906 C 3.601562 -4.625 3.703125 -5.058594 3.71875 -5.429688 C 3.769531 -6.917969 4.019531 -8.761719 3.535156 -10.21875 C 3.148438 -11.410156 1.910156 -11.84375 1.039062 -10.824219 C 0.21875 -9.851562 0.285156 -8.160156 0.285156 -6.988281 C 0.269531 -5.597656 0.199219 -4.089844 0.335938 -2.699219 C 0.484375 -1.15625 1.472656 -0.519531 2.933594 -0.285156 C 3.9375 -0.117188 5.546875 0.25 6.484375 -0.269531 Z M 6.484375 -0.269531 "/></g></g></g><g fill="#ffffff" fill-opacity="1"><g transform="translate(24.128741, 38.328543)"><g><path d="M 2.445312 -0.0195312 C 3.972656 -0.214844 3.875 -2.152344 3.875 -3.308594 C 3.875 -4.1875 3.777344 -5.597656 4.539062 -6.261719 C 5.089844 -6.730469 6.125 -6.910156 6.75 -7.300781 C 8.0625 -8.101562 9.316406 -9.335938 9.121094 -11 C 8.746094 -14.089844 5.128906 -14.679688 2.601562 -14.597656 C 0.351562 -14.519531 0.566406 -12.445312 0.46875 -10.605469 C 0.351562 -8.257812 0.410156 -5.910156 0.292969 -3.542969 C 0.234375 -2.191406 0.46875 0.234375 2.445312 -0.0195312 Z M 5.03125 -8.628906 C 3.953125 -8.296875 4.128906 -8.867188 4.167969 -9.707031 C 4.1875 -10.566406 3.796875 -12.542969 5.128906 -11.878906 C 5.753906 -11.546875 6.125 -10.746094 6.085938 -10.058594 C 6.066406 -9.355469 5.714844 -8.847656 5.03125 -8.628906 Z M 5.03125 -8.628906 "/></g></g></g><g fill="#ffffff" fill-opacity="1"><g transform="translate(32.680551, 38.328543)"><g><path d="M 7.574219 -0.3125 C 8.847656 -1.019531 8.886719 -2.996094 7.691406 -3.796875 C 6.828125 -4.363281 5.929688 -4.167969 4.972656 -4.34375 C 4.246094 -4.480469 4.382812 -4.148438 4.265625 -4.972656 C 4.207031 -5.402344 4.324219 -5.910156 4.34375 -6.339844 C 4.402344 -8.082031 4.695312 -10.234375 4.128906 -11.9375 C 3.679688 -13.328125 2.230469 -13.835938 1.214844 -12.640625 C 0.253906 -11.507812 0.332031 -9.53125 0.332031 -8.160156 C 0.3125 -6.535156 0.234375 -4.773438 0.390625 -3.152344 C 0.566406 -1.351562 1.722656 -0.605469 3.425781 -0.332031 C 4.597656 -0.136719 6.476562 0.292969 7.574219 -0.3125 Z M 7.574219 -0.3125 "/></g></g></g><g fill="#ffffff" fill-opacity="1"><g transform="translate(40.93881, 38.328543)"><g><path d="M 1.507812 -0.117188 C 2.210938 0.0976562 3.09375 0.0390625 3.5625 -0.546875 C 4.070312 -1.175781 3.914062 -2.71875 4.480469 -3.191406 C 4.792969 -3.425781 7.535156 -3.210938 7.632812 -3.132812 C 8.160156 -2.679688 8.257812 -1.429688 8.648438 -0.859375 C 9.199219 -0.0585938 9.921875 -0.0195312 10.683594 -0.625 C 11.449219 -1.253906 11.371094 -1.898438 11.058594 -2.757812 L 8.765625 -9.199219 C 8.21875 -10.765625 7.847656 -13.171875 5.792969 -13.132812 C 3.972656 -13.074219 3.074219 -11.976562 2.542969 -10.371094 C 1.917969 -8.472656 1.332031 -6.554688 0.859375 -4.617188 C 0.507812 -3.171875 -0.507812 -0.703125 1.507812 -0.117188 Z M 5.382812 -5.96875 C 5.558594 -6.554688 5.753906 -7.144531 5.929688 -7.730469 C 6.085938 -7.203125 6.261719 -6.691406 6.4375 -6.164062 C 6.085938 -6.105469 5.734375 -6.027344 5.382812 -5.96875 Z M 5.382812 -5.96875 "/></g></g></g><g fill="#ffffff" fill-opacity="1"><g transform="translate(51.93683, 38.328543)"><g><path d="M 0.917969 -0.371094 C 2.777344 1.605469 3.640625 -4.953125 3.835938 -5.753906 C 4.636719 -4.441406 7.847656 2.25 9.628906 -1.585938 C 10.746094 -3.953125 10.429688 -7.945312 10.058594 -10.371094 C 9.882812 -11.683594 8.492188 -12.230469 7.535156 -11.234375 C 6.535156 -10.175781 6.949219 -8.101562 7.027344 -6.828125 C 6.242188 -8.042969 5.8125 -9.375 5.070312 -10.566406 C 4.480469 -11.546875 3.210938 -12.367188 2.054688 -11.800781 C 0.214844 -10.882812 0.507812 -6.730469 0.410156 -4.992188 C 0.351562 -3.777344 0.0195312 -1.351562 0.917969 -0.371094 Z M 0.917969 -0.371094 "/></g></g></g><g fill="#ffffff" fill-opacity="1"><g transform="translate(62.05421, 38.328543)"><g><path d="M 0.917969 -0.371094 C 2.777344 1.605469 3.640625 -4.953125 3.835938 -5.753906 C 4.636719 -4.441406 7.847656 2.25 9.628906 -1.585938 C 10.746094 -3.953125 10.429688 -7.945312 10.058594 -10.371094 C 9.882812 -11.683594 8.492188 -12.230469 7.535156 -11.234375 C 6.535156 -10.175781 6.949219 -8.101562 7.027344 -6.828125 C 6.242188 -8.042969 5.8125 -9.375 5.070312 -10.566406 C 4.480469 -11.546875 3.210938 -12.367188 2.054688 -11.800781 C 0.214844 -10.882812 0.507812 -6.730469 0.410156 -4.992188 C 0.351562 -3.777344 0.0195312 -1.351562 0.917969 -0.371094 Z M 0.917969 -0.371094 "/></g></g></g><g fill="#ffffff" fill-opacity="1"><g transform="translate(72.17159, 38.328543)"><g><path d="M 3.25 -0.0390625 C 4.460938 -0.0976562 5.675781 -0.078125 6.871094 -0.136719 C 7.867188 -0.195312 8.609375 -0.332031 9.003906 -1.3125 C 9.238281 -1.957031 9.375 -3.132812 8.726562 -3.621094 C 8.003906 -4.148438 6.871094 -3.914062 6.046875 -3.953125 C 5.304688 -3.992188 3.386719 -4.597656 4.5 -5.636719 C 5.167969 -6.261719 6.203125 -5.519531 6.988281 -5.734375 C 7.847656 -5.988281 8.042969 -6.96875 7.945312 -7.769531 C 7.886719 -8.453125 7.652344 -8.847656 6.988281 -9.101562 C 6.339844 -9.335938 4.992188 -8.90625 4.480469 -9.277344 C 3.796875 -9.765625 4.421875 -10.683594 4.914062 -10.785156 C 5.65625 -10.960938 6.457031 -10.449219 7.242188 -10.765625 C 7.925781 -11.039062 8.277344 -11.683594 8.179688 -12.425781 C 8.042969 -13.464844 7.183594 -13.640625 6.28125 -13.777344 C 4.953125 -13.972656 1.429688 -14.636719 0.839844 -12.996094 C 0.585938 -12.289062 0.722656 -11.3125 0.683594 -10.585938 C 0.644531 -9.277344 0.585938 -7.964844 0.527344 -6.652344 C 0.46875 -5.539062 0.429688 -4.421875 0.371094 -3.308594 C 0.332031 -2.425781 0.078125 -1.15625 0.78125 -0.46875 C 1.429688 0.15625 2.464844 -0.0195312 3.25 -0.0390625 Z M 3.25 -0.0390625 "/></g></g></g><g fill="#ffffff" fill-opacity="1"><g transform="translate(81.075649, 38.328543)"><g><path d="M 10.546875 -0.664062 C 12.191406 -2.289062 10.390625 -5.304688 9.433594 -6.75 C 11.644531 -8.808594 12.152344 -12.035156 9.394531 -13.835938 C 7.457031 -15.109375 1.46875 -16.183594 0.9375 -12.917969 C 0.644531 -11.175781 0.859375 -9.21875 0.742188 -7.417969 C 0.625 -5.773438 -0.0585938 -3.464844 0.527344 -1.859375 C 1.078125 -0.390625 2.738281 -0.0195312 3.757812 -1.253906 C 4.265625 -1.878906 4.441406 -2.699219 4.617188 -3.464844 C 4.675781 -3.71875 4.65625 -4.402344 4.832031 -4.597656 C 5.050781 -4.832031 6.261719 -4.933594 6.574219 -5.03125 C 6.851562 -3.582031 7.945312 1.878906 10.546875 -0.664062 Z M 4.519531 -7.476562 C 4.441406 -8.257812 3.972656 -9.726562 4.207031 -10.449219 C 4.363281 -10.980469 4.734375 -10.960938 5.324219 -10.980469 C 6.769531 -11.058594 8.375 -9.746094 6.671875 -8.550781 C 6.007812 -8.082031 5.265625 -7.769531 4.519531 -7.476562 Z M 4.519531 -7.476562 "/></g></g></g><g fill="#ffded0" fill-opacity="1"><g transform="translate(23.540494, 37.740295)"><g><path d="M 2.445312 -0.0195312 C 3.972656 -0.214844 3.875 -2.152344 3.875 -3.308594 C 3.875 -4.1875 3.777344 -5.597656 4.539062 -6.261719 C 5.089844 -6.730469 6.125 -6.910156 6.75 -7.300781 C 8.0625 -8.101562 9.316406 -9.335938 9.121094 -11 C 8.746094 -14.089844 5.128906 -14.679688 2.601562 -14.597656 C 0.351562 -14.519531 0.566406 -12.445312 0.46875 -10.605469 C 0.351562 -8.257812 0.410156 -5.910156 0.292969 -3.542969 C 0.234375 -2.191406 0.46875 0.234375 2.445312 -0.0195312 Z M 5.03125 -8.628906 C 3.953125 -8.296875 4.128906 -8.867188 4.167969 -9.707031 C 4.1875 -10.566406 3.796875 -12.542969 5.128906 -11.878906 C 5.753906 -11.546875 6.125 -10.746094 6.085938 -10.058594 C 6.066406 -9.355469 5.714844 -8.847656 5.03125 -8.628906 Z M 5.03125 -8.628906 "/></g></g></g><g fill="#ffded0" fill-opacity="1"><g transform="translate(32.092304, 37.740295)"><g><path d="M 7.574219 -0.3125 C 8.847656 -1.019531 8.886719 -2.996094 7.691406 -3.796875 C 6.828125 -4.363281 5.929688 -4.167969 4.972656 -4.34375 C 4.246094 -4.480469 4.382812 -4.148438 4.265625 -4.972656 C 4.207031 -5.402344 4.324219 -5.910156 4.34375 -6.339844 C 4.402344 -8.082031 4.695312 -10.234375 4.128906 -11.9375 C 3.679688 -13.328125 2.230469 -13.835938 1.214844 -12.640625 C 0.253906 -11.507812 0.332031 -9.53125 0.332031 -8.160156 C 0.3125 -6.535156 0.234375 -4.773438 0.390625 -3.152344 C 0.566406 -1.351562 1.722656 -0.605469 3.425781 -0.332031 C 4.597656 -0.136719 6.476562 0.292969 7.574219 -0.3125 Z M 7.574219 -0.3125 "/></g></g></g><g fill="#ffded0" fill-opacity="1"><g transform="translate(40.350563, 37.740295)"><g><path d="M 1.507812 -0.117188 C 2.210938 0.0976562 3.09375 0.0390625 3.5625 -0.546875 C 4.070312 -1.175781 3.914062 -2.71875 4.480469 -3.191406 C 4.792969 -3.425781 7.535156 -3.210938 7.632812 -3.132812 C 8.160156 -2.679688 8.257812 -1.429688 8.648438 -0.859375 C 9.199219 -0.0585938 9.921875 -0.0195312 10.683594 -0.625 C 11.449219 -1.253906 11.371094 -1.898438 11.058594 -2.757812 L 8.765625 -9.199219 C 8.21875 -10.765625 7.847656 -13.171875 5.792969 -13.132812 C 3.972656 -13.074219 3.074219 -11.976562 2.542969 -10.371094 C 1.917969 -8.472656 1.332031 -6.554688 0.859375 -4.617188 C 0.507812 -3.171875 -0.507812 -0.703125 1.507812 -0.117188 Z M 5.382812 -5.96875 C 5.558594 -6.554688 5.753906 -7.144531 5.929688 -7.730469 C 6.085938 -7.203125 6.261719 -6.691406 6.4375 -6.164062 C 6.085938 -6.105469 5.734375 -6.027344 5.382812 -5.96875 Z M 5.382812 -5.96875 "/></g></g></g><g fill="#ffded0" fill-opacity="1"><g transform="translate(51.348582, 37.740295)"><g><path d="M 0.917969 -0.371094 C 2.777344 1.605469 3.640625 -4.953125 3.835938 -5.753906 C 4.636719 -4.441406 7.847656 2.25 9.628906 -1.585938 C 10.746094 -3.953125 10.429688 -7.945312 10.058594 -10.371094 C 9.882812 -11.683594 8.492188 -12.230469 7.535156 -11.234375 C 6.535156 -10.175781 6.949219 -8.101562 7.027344 -6.828125 C 6.242188 -8.042969 5.8125 -9.375 5.070312 -10.566406 C 4.480469 -11.546875 3.210938 -12.367188 2.054688 -11.800781 C 0.214844 -10.882812 0.507812 -6.730469 0.410156 -4.992188 C 0.351562 -3.777344 0.0195312 -1.351562 0.917969 -0.371094 Z M 0.917969 -0.371094 "/></g></g></g><g fill="#ffded0" fill-opacity="1"><g transform="translate(61.465963, 37.740295)"><g><path d="M 0.917969 -0.371094 C 2.777344 1.605469 3.640625 -4.953125 3.835938 -5.753906 C 4.636719 -4.441406 7.847656 2.25 9.628906 -1.585938 C 10.746094 -3.953125 10.429688 -7.945312 10.058594 -10.371094 C 9.882812 -11.683594 8.492188 -12.230469 7.535156 -11.234375 C 6.535156 -10.175781 6.949219 -8.101562 7.027344 -6.828125 C 6.242188 -8.042969 5.8125 -9.375 5.070312 -10.566406 C 4.480469 -11.546875 3.210938 -12.367188 2.054688 -11.800781 C 0.214844 -10.882812 0.507812 -6.730469 0.410156 -4.992188 C 0.351562 -3.777344 0.0195312 -1.351562 0.917969 -0.371094 Z M 0.917969 -0.371094 "/></g></g></g><g fill="#ffded0" fill-opacity="1"><g transform="translate(71.583343, 37.740295)"><g><path d="M 3.25 -0.0390625 C 4.460938 -0.0976562 5.675781 -0.078125 6.871094 -0.136719 C 7.867188 -0.195312 8.609375 -0.332031 9.003906 -1.3125 C 9.238281 -1.957031 9.375 -3.132812 8.726562 -3.621094 C 8.003906 -4.148438 6.871094 -3.914062 6.046875 -3.953125 C 5.304688 -3.992188 3.386719 -4.597656 4.5 -5.636719 C 5.167969 -6.261719 6.203125 -5.519531 6.988281 -5.734375 C 7.847656 -5.988281 8.042969 -6.96875 7.945312 -7.769531 C 7.886719 -8.453125 7.652344 -8.847656 6.988281 -9.101562 C 6.339844 -9.335938 4.992188 -8.90625 4.480469 -9.277344 C 3.796875 -9.765625 4.421875 -10.683594 4.914062 -10.785156 C 5.65625 -10.960938 6.457031 -10.449219 7.242188 -10.765625 C 7.925781 -11.039062 8.277344 -11.683594 8.179688 -12.425781 C 8.042969 -13.464844 7.183594 -13.640625 6.28125 -13.777344 C 4.953125 -13.972656 1.429688 -14.636719 0.839844 -12.996094 C 0.585938 -12.289062 0.722656 -11.3125 0.683594 -10.585938 C 0.644531 -9.277344 0.585938 -7.964844 0.527344 -6.652344 C 0.46875 -5.539062 0.429688 -4.421875 0.371094 -3.308594 C 0.332031 -2.425781 0.078125 -1.15625 0.78125 -0.46875 C 1.429688 0.15625 2.464844 -0.0195312 3.25 -0.0390625 Z M 3.25 -0.0390625 "/></g></g></g><g fill="#ffded0" fill-opacity="1"><g transform="translate(80.487401, 37.740295)"><g><path d="M 10.546875 -0.664062 C 12.191406 -2.289062 10.390625 -5.304688 9.433594 -6.75 C 11.644531 -8.808594 12.152344 -12.035156 9.394531 -13.835938 C 7.457031 -15.109375 1.46875 -16.183594 0.9375 -12.917969 C 0.644531 -11.175781 0.859375 -9.21875 0.742188 -7.417969 C 0.625 -5.773438 -0.0585938 -3.464844 0.527344 -1.859375 C 1.078125 -0.390625 2.738281 -0.0195312 3.757812 -1.253906 C 4.265625 -1.878906 4.441406 -2.699219 4.617188 -3.464844 C 4.675781 -3.71875 4.65625 -4.402344 4.832031 -4.597656 C 5.050781 -4.832031 6.261719 -4.933594 6.574219 -5.03125 C 6.851562 -3.582031 7.945312 1.878906 10.546875 -0.664062 Z M 4.519531 -7.476562 C 4.441406 -8.257812 3.972656 -9.726562 4.207031 -10.449219 C 4.363281 -10.980469 4.734375 -10.960938 5.324219 -10.980469 C 6.769531 -11.058594 8.375 -9.746094 6.671875 -8.550781 C 6.007812 -8.082031 5.265625 -7.769531 4.519531 -7.476562 Z M 4.519531 -7.476562 "/></g></g></g><g clip-path="url(#8bed97badf)"><path fill="#ffded0" d="M 29.421875 34.308594 C 28.914062 38.59375 28.503906 39.003906 24.214844 39.511719 C 24.226562 39.511719 24.234375 39.511719 24.242188 39.515625 C 28.503906 40.019531 28.914062 40.4375 29.421875 44.714844 C 29.929688 40.429688 30.339844 40.019531 34.625 39.511719 C 30.339844 39.003906 29.929688 38.59375 29.421875 34.308594 Z M 29.421875 34.308594 " fill-opacity="1" fill-rule="nonzero"/></g><g clip-path="url(#cb9124e87d)"><path fill="#ffded0" d="M 82.507812 8.566406 C 82.21875 11.015625 81.984375 11.25 79.535156 11.539062 C 79.539062 11.539062 79.542969 11.542969 79.550781 11.542969 C 81.984375 11.832031 82.21875 12.070312 82.507812 14.515625 C 82.796875 12.066406 83.03125 11.832031 85.480469 11.539062 C 83.03125 11.25 82.796875 11.015625 82.507812 8.566406 Z M 82.507812 8.566406 " fill-opacity="1" fill-rule="nonzero"/></g><g clip-path="url(#e677d96325)"><path fill="#ffded0" d="M 85.566406 16.550781 C 85.3125 18.691406 85.109375 18.898438 82.964844 19.152344 C 82.96875 19.152344 82.972656 19.152344 82.980469 19.152344 C 85.109375 19.40625 85.3125 19.617188 85.566406 21.753906 C 85.820312 19.613281 86.027344 19.40625 88.167969 19.152344 C 86.027344 18.898438 85.820312 18.691406 85.566406 16.550781 Z M 85.566406 16.550781 " fill-opacity="1" fill-rule="nonzero"/></g></svg>